G04 DipTrace 2.4.0.2*
%INDaughter-IsolatedUART.GBO*%
%MOMM*%
%ADD12C,0.076*%
%ADD47C,0.235*%
%FSLAX53Y53*%
G04*
G71*
G90*
G75*
G01*
%LNBotSilk*%
%LPD*%
X16312Y34880D2*
D12*
X16502D1*
X16312Y34842D2*
X16502D1*
X16312Y34804D2*
X16502D1*
X12892Y34766D2*
X13310D1*
X14602D2*
X14716D1*
X16312D2*
X16502D1*
X24406D2*
X24824D1*
X12763Y34728D2*
X13433D1*
X14572D2*
X14747D1*
X16312D2*
X16502D1*
X18858D2*
X19200D1*
X20568D2*
X20910D1*
X22734D2*
X23570D1*
X24291D2*
X24916D1*
X25774D2*
X25964D1*
X27104D2*
X27332D1*
X12652Y34690D2*
X13537D1*
X14550D2*
X14769D1*
X16312D2*
X16502D1*
X18858D2*
X19215D1*
X20555D2*
X20910D1*
X22607D2*
X23570D1*
X24204D2*
X24997D1*
X25774D2*
X25964D1*
X27104D2*
X27332D1*
X12550Y34652D2*
X13621D1*
X14535D2*
X14784D1*
X16312D2*
X16502D1*
X18858D2*
X19231D1*
X20543D2*
X20910D1*
X22505D2*
X23570D1*
X24141D2*
X25063D1*
X25774D2*
X25964D1*
X27104D2*
X27332D1*
X12569Y34614D2*
X13689D1*
X14534D2*
X14784D1*
X16312D2*
X16502D1*
X18858D2*
X19247D1*
X20530D2*
X20910D1*
X22429D2*
X23570D1*
X24122D2*
X25116D1*
X25774D2*
X25964D1*
X27104D2*
X27332D1*
X12585Y34576D2*
X13747D1*
X14550D2*
X14768D1*
X15552D2*
X15666D1*
X16312D2*
X16502D1*
X18858D2*
X19262D1*
X20516D2*
X20910D1*
X22376D2*
X23570D1*
X24124D2*
X25160D1*
X25774D2*
X25964D1*
X27104D2*
X27332D1*
X12600Y34538D2*
X12906D1*
X13303D2*
X13794D1*
X14574D2*
X14745D1*
X15552D2*
X15684D1*
X16312D2*
X16502D1*
X18858D2*
X19276D1*
X20500D2*
X20910D1*
X22339D2*
X22744D1*
X23380D2*
X23570D1*
X24130D2*
X24465D1*
X24809D2*
X25195D1*
X25774D2*
X25964D1*
X27104D2*
X27332D1*
X12614Y34500D2*
X12781D1*
X13399D2*
X13832D1*
X14602D2*
X14716D1*
X15552D2*
X15696D1*
X16312D2*
X16502D1*
X18858D2*
X19290D1*
X20483D2*
X20910D1*
X22312D2*
X22653D1*
X23380D2*
X23570D1*
X24136D2*
X24315D1*
X24892D2*
X25220D1*
X25774D2*
X25964D1*
X27104D2*
X27332D1*
X12626Y34462D2*
X12664D1*
X13482D2*
X13863D1*
X15552D2*
X15707D1*
X16312D2*
X16502D1*
X18858D2*
X19049D1*
X19130D2*
X19307D1*
X20469D2*
X20910D1*
X22290D2*
X22585D1*
X23380D2*
X23570D1*
X24140D2*
X24178D1*
X24954D2*
X25238D1*
X25774D2*
X25964D1*
X27104D2*
X27332D1*
X13549Y34424D2*
X13891D1*
X15552D2*
X15718D1*
X16312D2*
X16502D1*
X18858D2*
X19050D1*
X19140D2*
X19323D1*
X20455D2*
X20910D1*
X22271D2*
X22538D1*
X23380D2*
X23570D1*
X24998D2*
X25253D1*
X25774D2*
X25964D1*
X27104D2*
X27332D1*
X13602Y34386D2*
X13918D1*
X15552D2*
X15730D1*
X16312D2*
X16502D1*
X18858D2*
X19055D1*
X19151D2*
X19338D1*
X20442D2*
X20638D1*
X20720D2*
X20910D1*
X22257D2*
X22508D1*
X23380D2*
X23570D1*
X25031D2*
X25266D1*
X25774D2*
X25964D1*
X27104D2*
X27332D1*
X13647Y34348D2*
X13942D1*
X15552D2*
X15743D1*
X16312D2*
X16502D1*
X18858D2*
X19064D1*
X19163D2*
X19352D1*
X20429D2*
X20629D1*
X20720D2*
X20910D1*
X22248D2*
X22488D1*
X23380D2*
X23570D1*
X25042D2*
X25274D1*
X25774D2*
X25964D1*
X27104D2*
X27332D1*
X13687Y34310D2*
X13964D1*
X15552D2*
X15760D1*
X16312D2*
X16502D1*
X18858D2*
X19074D1*
X19177D2*
X19366D1*
X20417D2*
X20618D1*
X20720D2*
X20910D1*
X22244D2*
X22475D1*
X23380D2*
X23570D1*
X25048D2*
X25277D1*
X25774D2*
X25964D1*
X27104D2*
X27332D1*
X13721Y34272D2*
X13984D1*
X15552D2*
X15783D1*
X16312D2*
X16502D1*
X18858D2*
X19080D1*
X19193D2*
X19383D1*
X20402D2*
X20606D1*
X20720D2*
X20910D1*
X22242D2*
X22464D1*
X23380D2*
X23570D1*
X25051D2*
X25279D1*
X25774D2*
X25964D1*
X27104D2*
X27332D1*
X4228Y34234D2*
X4646D1*
X5786D2*
X6128D1*
X6774D2*
X7116D1*
X8522D2*
X8864D1*
X9510D2*
X9852D1*
X11372D2*
X11714D1*
X13749D2*
X14002D1*
X15552D2*
X15833D1*
X16312D2*
X16502D1*
X18858D2*
X19084D1*
X19209D2*
X19399D1*
X20386D2*
X20593D1*
X20720D2*
X20910D1*
X22241D2*
X22449D1*
X23380D2*
X23570D1*
X25052D2*
X25280D1*
X25774D2*
X25964D1*
X27104D2*
X27332D1*
X4118Y34196D2*
X4732D1*
X5709D2*
X6203D1*
X6706D2*
X7195D1*
X7496D2*
X7648D1*
X8445D2*
X8939D1*
X9442D2*
X9931D1*
X10232D2*
X10384D1*
X11285D2*
X11806D1*
X13771D2*
X14018D1*
X14564D2*
X14754D1*
X15096D2*
X15890D1*
X16312D2*
X16502D1*
X17034D2*
X17262D1*
X18098D2*
X18326D1*
X18858D2*
X19085D1*
X19224D2*
X19414D1*
X20369D2*
X20581D1*
X20720D2*
X20910D1*
X22241D2*
X22430D1*
X23380D2*
X23570D1*
X25052D2*
X25280D1*
X25774D2*
X25964D1*
X27104D2*
X27332D1*
X4032Y34158D2*
X4804D1*
X5644D2*
X6273D1*
X6645D2*
X7263D1*
X7483D2*
X7648D1*
X8380D2*
X9009D1*
X9381D2*
X9999D1*
X10219D2*
X10384D1*
X11209D2*
X11887D1*
X13789D2*
X14031D1*
X14564D2*
X14754D1*
X15096D2*
X15940D1*
X16312D2*
X16502D1*
X17034D2*
X17262D1*
X18098D2*
X18326D1*
X18858D2*
X19086D1*
X19237D2*
X19428D1*
X20355D2*
X20568D1*
X20720D2*
X20910D1*
X22241D2*
X22448D1*
X23380D2*
X23570D1*
X25051D2*
X25279D1*
X25774D2*
X25964D1*
X27104D2*
X27332D1*
X3962Y34120D2*
X4860D1*
X5595D2*
X6335D1*
X6593D2*
X7317D1*
X7470D2*
X7648D1*
X8331D2*
X9071D1*
X9329D2*
X10053D1*
X10206D2*
X10384D1*
X11144D2*
X11953D1*
X13803D2*
X14045D1*
X14564D2*
X14754D1*
X15096D2*
X15980D1*
X16312D2*
X16502D1*
X17034D2*
X17262D1*
X18098D2*
X18326D1*
X18858D2*
X19086D1*
X19251D2*
X19442D1*
X20341D2*
X20554D1*
X20720D2*
X20910D1*
X22242D2*
X22460D1*
X23380D2*
X23570D1*
X25044D2*
X25274D1*
X25774D2*
X25964D1*
X27104D2*
X27332D1*
X3987Y34082D2*
X4905D1*
X5557D2*
X6391D1*
X6543D2*
X7357D1*
X7457D2*
X7648D1*
X8293D2*
X9127D1*
X9279D2*
X10093D1*
X10193D2*
X10384D1*
X11089D2*
X12006D1*
X13817D2*
X14056D1*
X14564D2*
X14754D1*
X15096D2*
X15995D1*
X16312D2*
X16502D1*
X17034D2*
X17262D1*
X18098D2*
X18326D1*
X18858D2*
X19086D1*
X19264D2*
X19459D1*
X20327D2*
X20538D1*
X20720D2*
X20910D1*
X22247D2*
X22471D1*
X23380D2*
X23570D1*
X25029D2*
X25263D1*
X25774D2*
X25964D1*
X27104D2*
X27332D1*
X4012Y34044D2*
X4266D1*
X4643D2*
X4940D1*
X5526D2*
X5833D1*
X6165D2*
X6449D1*
X6489D2*
X6858D1*
X7139D2*
X7390D1*
X7440D2*
X7648D1*
X8262D2*
X8569D1*
X8901D2*
X9185D1*
X9225D2*
X9594D1*
X9875D2*
X10126D1*
X10176D2*
X10384D1*
X11045D2*
X11374D1*
X11699D2*
X12050D1*
X13830D2*
X14065D1*
X14564D2*
X14754D1*
X15096D2*
X16003D1*
X16312D2*
X16502D1*
X17034D2*
X17262D1*
X18098D2*
X18326D1*
X18858D2*
X19086D1*
X19276D2*
X19475D1*
X20310D2*
X20521D1*
X20720D2*
X20910D1*
X22257D2*
X22484D1*
X23380D2*
X23570D1*
X25002D2*
X25249D1*
X25774D2*
X25964D1*
X27104D2*
X27332D1*
X4038Y34006D2*
X4114D1*
X4708D2*
X4966D1*
X5503D2*
X5778D1*
X6233D2*
X6799D1*
X7222D2*
X7648D1*
X8239D2*
X8514D1*
X8969D2*
X9535D1*
X9958D2*
X10384D1*
X11013D2*
X11306D1*
X11782D2*
X12086D1*
X13842D2*
X14074D1*
X14564D2*
X14754D1*
X15552D2*
X15780D1*
X16312D2*
X16502D1*
X17034D2*
X17262D1*
X18098D2*
X18326D1*
X18858D2*
X19086D1*
X19290D2*
X19490D1*
X20293D2*
X20507D1*
X20720D2*
X20910D1*
X22273D2*
X22503D1*
X23380D2*
X23570D1*
X24964D2*
X25232D1*
X25774D2*
X25964D1*
X27104D2*
X27332D1*
X4758Y33968D2*
X4984D1*
X5486D2*
X5738D1*
X6289D2*
X6753D1*
X7284D2*
X7648D1*
X8222D2*
X8474D1*
X9025D2*
X9489D1*
X10020D2*
X10384D1*
X10987D2*
X11250D1*
X11844D2*
X12115D1*
X13855D2*
X14085D1*
X14564D2*
X14754D1*
X15552D2*
X15780D1*
X16312D2*
X16502D1*
X17034D2*
X17262D1*
X18098D2*
X18326D1*
X18858D2*
X19086D1*
X19307D2*
X19503D1*
X20279D2*
X20493D1*
X20720D2*
X20910D1*
X22296D2*
X22527D1*
X23380D2*
X23570D1*
X24913D2*
X25212D1*
X25774D2*
X25964D1*
X27104D2*
X27332D1*
X4793Y33930D2*
X4999D1*
X5471D2*
X5710D1*
X6329D2*
X6720D1*
X7329D2*
X7648D1*
X8207D2*
X8446D1*
X9065D2*
X9456D1*
X10065D2*
X10384D1*
X10966D2*
X11209D1*
X11889D2*
X12138D1*
X13866D2*
X14095D1*
X14564D2*
X14754D1*
X15552D2*
X15780D1*
X16312D2*
X16502D1*
X17034D2*
X17262D1*
X18098D2*
X18326D1*
X18858D2*
X19086D1*
X19323D2*
X19517D1*
X20265D2*
X20479D1*
X20720D2*
X20910D1*
X22326D2*
X22582D1*
X23380D2*
X23570D1*
X24850D2*
X25188D1*
X25774D2*
X25964D1*
X27104D2*
X27332D1*
X4818Y33892D2*
X5012D1*
X5459D2*
X5690D1*
X6358D2*
X6695D1*
X7362D2*
X7648D1*
X8195D2*
X8426D1*
X9094D2*
X9431D1*
X10098D2*
X10384D1*
X10946D2*
X11176D1*
X11922D2*
X12159D1*
X13874D2*
X14102D1*
X14564D2*
X14754D1*
X15552D2*
X15780D1*
X16312D2*
X16502D1*
X17034D2*
X17262D1*
X18098D2*
X18326D1*
X18858D2*
X19086D1*
X19338D2*
X19530D1*
X20251D2*
X20462D1*
X20720D2*
X20910D1*
X22366D2*
X22657D1*
X23380D2*
X23570D1*
X24775D2*
X25159D1*
X25774D2*
X25964D1*
X27104D2*
X27332D1*
X4825Y33854D2*
X5018D1*
X5451D2*
X5675D1*
X6382D2*
X6678D1*
X7386D2*
X7648D1*
X8187D2*
X8411D1*
X9118D2*
X9414D1*
X10122D2*
X10384D1*
X10926D2*
X11148D1*
X11947D2*
X12178D1*
X13878D2*
X14106D1*
X14564D2*
X14754D1*
X15552D2*
X15780D1*
X16312D2*
X16502D1*
X17034D2*
X17262D1*
X18098D2*
X18326D1*
X18858D2*
X19086D1*
X19352D2*
X19542D1*
X20234D2*
X20445D1*
X20720D2*
X20910D1*
X22417D2*
X22749D1*
X23380D2*
X23570D1*
X24693D2*
X25124D1*
X25774D2*
X25964D1*
X27104D2*
X27332D1*
X4816Y33816D2*
X5017D1*
X5447D2*
X5660D1*
X6401D2*
X6668D1*
X7403D2*
X7648D1*
X8183D2*
X8396D1*
X9137D2*
X9404D1*
X10139D2*
X10384D1*
X10908D2*
X11126D1*
X11969D2*
X12194D1*
X13879D2*
X14107D1*
X14564D2*
X14754D1*
X15552D2*
X15780D1*
X16312D2*
X16502D1*
X17034D2*
X17262D1*
X18098D2*
X18326D1*
X18858D2*
X19086D1*
X19366D2*
X19556D1*
X20217D2*
X20431D1*
X20720D2*
X20910D1*
X22479D2*
X23570D1*
X24609D2*
X25083D1*
X25774D2*
X25964D1*
X27104D2*
X27332D1*
X4800Y33778D2*
X5010D1*
X5446D2*
X5649D1*
X6416D2*
X6664D1*
X7412D2*
X7648D1*
X8182D2*
X8385D1*
X9152D2*
X9400D1*
X10148D2*
X10384D1*
X10894D2*
X11110D1*
X11988D2*
X12207D1*
X13880D2*
X14108D1*
X14564D2*
X14754D1*
X15552D2*
X15780D1*
X16312D2*
X16502D1*
X17034D2*
X17262D1*
X18098D2*
X18326D1*
X18858D2*
X19086D1*
X19383D2*
X19573D1*
X20203D2*
X20417D1*
X20720D2*
X20910D1*
X22549D2*
X23570D1*
X24526D2*
X25033D1*
X25774D2*
X25964D1*
X27104D2*
X27332D1*
X4778Y33740D2*
X4999D1*
X5445D2*
X5641D1*
X6425D2*
X6662D1*
X7419D2*
X7648D1*
X8181D2*
X8377D1*
X9161D2*
X9398D1*
X10155D2*
X10384D1*
X10884D2*
X11095D1*
X12002D2*
X12221D1*
X13880D2*
X14108D1*
X14564D2*
X14754D1*
X15552D2*
X15780D1*
X16312D2*
X16502D1*
X17034D2*
X17262D1*
X18098D2*
X18326D1*
X18858D2*
X19086D1*
X19399D2*
X19589D1*
X20189D2*
X20404D1*
X20720D2*
X20910D1*
X22620D2*
X23570D1*
X24447D2*
X24975D1*
X25774D2*
X25964D1*
X27104D2*
X27332D1*
X4730Y33702D2*
X4986D1*
X5445D2*
X5637D1*
X6429D2*
X6661D1*
X7425D2*
X7648D1*
X8181D2*
X8373D1*
X9165D2*
X9397D1*
X10161D2*
X10384D1*
X10875D2*
X11083D1*
X12012D2*
X12232D1*
X13880D2*
X14108D1*
X14564D2*
X14754D1*
X15552D2*
X15780D1*
X16312D2*
X16502D1*
X17034D2*
X17262D1*
X18098D2*
X18326D1*
X18858D2*
X19086D1*
X19414D2*
X19604D1*
X20176D2*
X20391D1*
X20720D2*
X20910D1*
X22511D2*
X23570D1*
X24371D2*
X24904D1*
X25774D2*
X25964D1*
X27104D2*
X27332D1*
X4669Y33664D2*
X4968D1*
X5444D2*
X5635D1*
X6431D2*
X6661D1*
X7435D2*
X7648D1*
X8180D2*
X8371D1*
X9167D2*
X9397D1*
X10171D2*
X10384D1*
X10864D2*
X11075D1*
X12022D2*
X12240D1*
X13880D2*
X14108D1*
X14564D2*
X14754D1*
X15552D2*
X15780D1*
X16312D2*
X16502D1*
X17034D2*
X17262D1*
X18098D2*
X18326D1*
X18858D2*
X19086D1*
X19428D2*
X19618D1*
X20163D2*
X20379D1*
X20720D2*
X20910D1*
X22420D2*
X23570D1*
X24301D2*
X24823D1*
X25774D2*
X25964D1*
X27104D2*
X27332D1*
X4596Y33626D2*
X4941D1*
X5444D2*
X5635D1*
X6432D2*
X6660D1*
X7445D2*
X7648D1*
X8180D2*
X8371D1*
X9168D2*
X9396D1*
X10181D2*
X10384D1*
X10854D2*
X11071D1*
X12033D2*
X12244D1*
X13880D2*
X14108D1*
X14564D2*
X14754D1*
X15552D2*
X15780D1*
X16312D2*
X16502D1*
X17034D2*
X17262D1*
X18098D2*
X18326D1*
X18858D2*
X19086D1*
X19442D2*
X19632D1*
X20151D2*
X20364D1*
X20720D2*
X20910D1*
X22349D2*
X22705D1*
X23380D2*
X23570D1*
X24240D2*
X24736D1*
X25774D2*
X25964D1*
X27104D2*
X27332D1*
X4513Y33588D2*
X4907D1*
X5444D2*
X5635D1*
X6432D2*
X6660D1*
X7452D2*
X7648D1*
X8180D2*
X8371D1*
X9168D2*
X9396D1*
X10188D2*
X10384D1*
X10847D2*
X11070D1*
X12043D2*
X12245D1*
X13880D2*
X14108D1*
X14564D2*
X14754D1*
X15552D2*
X15780D1*
X16312D2*
X16502D1*
X17034D2*
X17262D1*
X18098D2*
X18326D1*
X18858D2*
X19086D1*
X19459D2*
X19649D1*
X20136D2*
X20348D1*
X20720D2*
X20910D1*
X22299D2*
X22614D1*
X23380D2*
X23570D1*
X24190D2*
X24649D1*
X25774D2*
X25964D1*
X27104D2*
X27332D1*
X4424Y33550D2*
X4865D1*
X5444D2*
X5634D1*
X6432D2*
X6660D1*
X7456D2*
X7648D1*
X8180D2*
X8370D1*
X9168D2*
X9396D1*
X10192D2*
X10384D1*
X10843D2*
X11069D1*
X12050D2*
X12246D1*
X13879D2*
X14108D1*
X14564D2*
X14754D1*
X15552D2*
X15780D1*
X16312D2*
X16502D1*
X17034D2*
X17262D1*
X18098D2*
X18326D1*
X18858D2*
X19086D1*
X19475D2*
X19665D1*
X20120D2*
X20331D1*
X20720D2*
X20910D1*
X22263D2*
X22542D1*
X23380D2*
X23570D1*
X24151D2*
X24567D1*
X25774D2*
X25964D1*
X27104D2*
X27332D1*
X4334Y33512D2*
X4812D1*
X5444D2*
X5634D1*
X6432D2*
X6660D1*
X7457D2*
X7648D1*
X8180D2*
X8370D1*
X9168D2*
X9396D1*
X10193D2*
X10384D1*
X10841D2*
X11069D1*
X12054D2*
X12246D1*
X13874D2*
X14107D1*
X14564D2*
X14754D1*
X15552D2*
X15780D1*
X16312D2*
X16502D1*
X17034D2*
X17262D1*
X18098D2*
X18326D1*
X18858D2*
X19086D1*
X19490D2*
X19680D1*
X20103D2*
X20317D1*
X20720D2*
X20910D1*
X22236D2*
X22490D1*
X23380D2*
X23570D1*
X24121D2*
X24493D1*
X25774D2*
X25964D1*
X27104D2*
X27332D1*
X4250Y33474D2*
X4748D1*
X5444D2*
X5634D1*
X6432D2*
X6660D1*
X7458D2*
X7648D1*
X8180D2*
X8370D1*
X9168D2*
X9396D1*
X10194D2*
X10384D1*
X10841D2*
X11068D1*
X12055D2*
X12246D1*
X13865D2*
X14102D1*
X14564D2*
X14754D1*
X15552D2*
X15780D1*
X16312D2*
X16502D1*
X17034D2*
X17262D1*
X18098D2*
X18326D1*
X18858D2*
X19086D1*
X19503D2*
X19694D1*
X20089D2*
X20303D1*
X20720D2*
X20910D1*
X22214D2*
X22453D1*
X23380D2*
X23570D1*
X24098D2*
X24431D1*
X25774D2*
X25964D1*
X27104D2*
X27332D1*
X4177Y33436D2*
X4673D1*
X5444D2*
X5634D1*
X6432D2*
X6660D1*
X7458D2*
X7648D1*
X8180D2*
X8370D1*
X9168D2*
X9396D1*
X10194D2*
X10384D1*
X10841D2*
X11068D1*
X12056D2*
X12246D1*
X13855D2*
X14093D1*
X14564D2*
X14754D1*
X15552D2*
X15780D1*
X16312D2*
X16502D1*
X17034D2*
X17262D1*
X18098D2*
X18326D1*
X18858D2*
X19086D1*
X19517D2*
X19708D1*
X20075D2*
X20289D1*
X20720D2*
X20910D1*
X22195D2*
X22428D1*
X23380D2*
X23570D1*
X24080D2*
X24380D1*
X25774D2*
X25964D1*
X27104D2*
X27332D1*
X4114Y33398D2*
X4590D1*
X5444D2*
X5634D1*
X6432D2*
X6660D1*
X7458D2*
X7648D1*
X8180D2*
X8370D1*
X9168D2*
X9396D1*
X10194D2*
X10384D1*
X10840D2*
X11068D1*
X12056D2*
X12246D1*
X13847D2*
X14083D1*
X14564D2*
X14754D1*
X15552D2*
X15780D1*
X16312D2*
X16502D1*
X17034D2*
X17262D1*
X18098D2*
X18326D1*
X18858D2*
X19086D1*
X19530D2*
X19725D1*
X20061D2*
X20272D1*
X20720D2*
X20910D1*
X22181D2*
X22410D1*
X23380D2*
X23570D1*
X24066D2*
X24337D1*
X25774D2*
X25964D1*
X27104D2*
X27332D1*
X4063Y33360D2*
X4502D1*
X5444D2*
X5634D1*
X6432D2*
X6660D1*
X7458D2*
X7648D1*
X8180D2*
X8370D1*
X9168D2*
X9396D1*
X10194D2*
X10384D1*
X10841D2*
X11068D1*
X12055D2*
X12246D1*
X13839D2*
X14075D1*
X14564D2*
X14754D1*
X15552D2*
X15780D1*
X16312D2*
X16502D1*
X17034D2*
X17262D1*
X18098D2*
X18326D1*
X18858D2*
X19086D1*
X19542D2*
X19741D1*
X20044D2*
X20255D1*
X20720D2*
X20910D1*
X22172D2*
X22401D1*
X23380D2*
X23570D1*
X24052D2*
X24302D1*
X25774D2*
X25965D1*
X27104D2*
X27331D1*
X4026Y33322D2*
X4415D1*
X5444D2*
X5634D1*
X6432D2*
X6660D1*
X7458D2*
X7648D1*
X8180D2*
X8370D1*
X9168D2*
X9396D1*
X10194D2*
X10384D1*
X10842D2*
X11068D1*
X12050D2*
X12246D1*
X13827D2*
X14067D1*
X14564D2*
X14754D1*
X15552D2*
X15780D1*
X16312D2*
X16502D1*
X17034D2*
X17262D1*
X18098D2*
X18326D1*
X18858D2*
X19086D1*
X19556D2*
X19756D1*
X20027D2*
X20241D1*
X20720D2*
X20910D1*
X22168D2*
X22396D1*
X23380D2*
X23570D1*
X24040D2*
X24275D1*
X25774D2*
X25966D1*
X27104D2*
X27326D1*
X3997Y33284D2*
X4337D1*
X5444D2*
X5634D1*
X6432D2*
X6660D1*
X7458D2*
X7648D1*
X8180D2*
X8370D1*
X9168D2*
X9396D1*
X10194D2*
X10384D1*
X10847D2*
X11069D1*
X12041D2*
X12246D1*
X13811D2*
X14056D1*
X14564D2*
X14754D1*
X15552D2*
X15780D1*
X16312D2*
X16502D1*
X17034D2*
X17262D1*
X18098D2*
X18326D1*
X18858D2*
X19086D1*
X19573D2*
X19770D1*
X20013D2*
X20227D1*
X20720D2*
X20910D1*
X22166D2*
X22394D1*
X23380D2*
X23570D1*
X24033D2*
X24264D1*
X25774D2*
X25971D1*
X27103D2*
X27317D1*
X3975Y33246D2*
X4270D1*
X5444D2*
X5634D1*
X6432D2*
X6660D1*
X7458D2*
X7648D1*
X8180D2*
X8370D1*
X9168D2*
X9396D1*
X10194D2*
X10384D1*
X10856D2*
X11070D1*
X12031D2*
X12245D1*
X13794D2*
X14044D1*
X14564D2*
X14754D1*
X15552D2*
X15780D1*
X16312D2*
X16502D1*
X17034D2*
X17263D1*
X18098D2*
X18326D1*
X18858D2*
X19086D1*
X19589D2*
X19784D1*
X19999D2*
X20213D1*
X20720D2*
X20910D1*
X22165D2*
X22393D1*
X23380D2*
X23570D1*
X24029D2*
X24259D1*
X25775D2*
X25980D1*
X27098D2*
X27307D1*
X3955Y33208D2*
X4217D1*
X5444D2*
X5634D1*
X6432D2*
X6660D1*
X7458D2*
X7648D1*
X8180D2*
X8370D1*
X9168D2*
X9396D1*
X10194D2*
X10384D1*
X10866D2*
X11075D1*
X12023D2*
X12240D1*
X13774D2*
X14032D1*
X14564D2*
X14754D1*
X15552D2*
X15780D1*
X16312D2*
X16502D1*
X17034D2*
X17264D1*
X18098D2*
X18326D1*
X18858D2*
X19086D1*
X19604D2*
X19801D1*
X19985D2*
X20196D1*
X20720D2*
X20910D1*
X22165D2*
X22394D1*
X23380D2*
X23570D1*
X24029D2*
X24256D1*
X25776D2*
X25991D1*
X27089D2*
X27300D1*
X3941Y33170D2*
X4179D1*
X5444D2*
X5634D1*
X6432D2*
X6660D1*
X7458D2*
X7648D1*
X8180D2*
X8370D1*
X9168D2*
X9396D1*
X10194D2*
X10384D1*
X10874D2*
X11084D1*
X12015D2*
X12231D1*
X13752D2*
X14018D1*
X14564D2*
X14754D1*
X15552D2*
X15780D1*
X16312D2*
X16502D1*
X17034D2*
X17269D1*
X18098D2*
X18325D1*
X18858D2*
X19086D1*
X19618D2*
X19817D1*
X19968D2*
X20179D1*
X20720D2*
X20910D1*
X22166D2*
X22399D1*
X23380D2*
X23570D1*
X24033D2*
X24256D1*
X25781D2*
X26003D1*
X27078D2*
X27296D1*
X3932Y33132D2*
X4151D1*
X5444D2*
X5634D1*
X6432D2*
X6660D1*
X7458D2*
X7648D1*
X8180D2*
X8370D1*
X9168D2*
X9396D1*
X10194D2*
X10384D1*
X10882D2*
X11095D1*
X12003D2*
X12220D1*
X13727D2*
X14002D1*
X14564D2*
X14754D1*
X15552D2*
X15780D1*
X16312D2*
X16502D1*
X17034D2*
X17278D1*
X18098D2*
X18320D1*
X18858D2*
X19086D1*
X19632D2*
X19832D1*
X19950D2*
X20165D1*
X20720D2*
X20910D1*
X22171D2*
X22409D1*
X23380D2*
X23570D1*
X24042D2*
X24261D1*
X25791D2*
X26017D1*
X27065D2*
X27289D1*
X3928Y33094D2*
X4131D1*
X5444D2*
X5634D1*
X6432D2*
X6660D1*
X7458D2*
X7648D1*
X8180D2*
X8370D1*
X9168D2*
X9396D1*
X10194D2*
X10384D1*
X10894D2*
X11108D1*
X11987D2*
X12208D1*
X13701D2*
X13984D1*
X14564D2*
X14754D1*
X15552D2*
X15780D1*
X16312D2*
X16502D1*
X17034D2*
X17289D1*
X18097D2*
X18311D1*
X18858D2*
X19086D1*
X19649D2*
X19847D1*
X19930D2*
X20151D1*
X20720D2*
X20910D1*
X22180D2*
X22424D1*
X23380D2*
X23570D1*
X24052D2*
X24272D1*
X25806D2*
X26034D1*
X27046D2*
X27278D1*
X3927Y33056D2*
X4128D1*
X5444D2*
X5634D1*
X6432D2*
X6660D1*
X7458D2*
X7648D1*
X8180D2*
X8370D1*
X9168D2*
X9396D1*
X10194D2*
X10384D1*
X10910D2*
X11126D1*
X11970D2*
X12194D1*
X13670D2*
X13964D1*
X14564D2*
X14754D1*
X15552D2*
X15779D1*
X16312D2*
X16502D1*
X17034D2*
X17302D1*
X18092D2*
X18301D1*
X18858D2*
X19086D1*
X19665D2*
X19864D1*
X19908D2*
X20138D1*
X20720D2*
X20910D1*
X22191D2*
X22441D1*
X23380D2*
X23570D1*
X24060D2*
X24288D1*
X25823D2*
X26057D1*
X27019D2*
X27263D1*
X3931Y33018D2*
X4135D1*
X5444D2*
X5634D1*
X6432D2*
X6660D1*
X7458D2*
X7648D1*
X8180D2*
X8370D1*
X9168D2*
X9396D1*
X10194D2*
X10384D1*
X10927D2*
X11148D1*
X11950D2*
X12178D1*
X13629D2*
X13940D1*
X14564D2*
X14754D1*
X15551D2*
X15774D1*
X16312D2*
X16502D1*
X17034D2*
X17321D1*
X18081D2*
X18293D1*
X18858D2*
X19086D1*
X19680D2*
X20125D1*
X20720D2*
X20910D1*
X22204D2*
X22463D1*
X23380D2*
X23570D1*
X24068D2*
X24311D1*
X25841D2*
X26088D1*
X26985D2*
X27246D1*
X3940Y32980D2*
X4149D1*
X5444D2*
X5634D1*
X6432D2*
X6660D1*
X7458D2*
X7648D1*
X8180D2*
X8370D1*
X9168D2*
X9396D1*
X10194D2*
X10384D1*
X10945D2*
X11173D1*
X11925D2*
X12160D1*
X13577D2*
X13911D1*
X14564D2*
X14754D1*
X15544D2*
X15765D1*
X16312D2*
X16502D1*
X17034D2*
X17348D1*
X18065D2*
X18285D1*
X18858D2*
X19086D1*
X19694D2*
X20113D1*
X20720D2*
X20910D1*
X22222D2*
X22494D1*
X23380D2*
X23570D1*
X24080D2*
X24348D1*
X25860D2*
X26131D1*
X26940D2*
X27226D1*
X3951Y32942D2*
X4169D1*
X5444D2*
X5634D1*
X6432D2*
X6660D1*
X7458D2*
X7648D1*
X8180D2*
X8370D1*
X9168D2*
X9396D1*
X10194D2*
X10384D1*
X10964D2*
X11206D1*
X11888D2*
X12140D1*
X13512D2*
X13877D1*
X14564D2*
X14754D1*
X15532D2*
X15754D1*
X16312D2*
X16502D1*
X17034D2*
X17385D1*
X18040D2*
X18273D1*
X18858D2*
X19086D1*
X19708D2*
X20098D1*
X20720D2*
X20910D1*
X22244D2*
X22545D1*
X23380D2*
X23570D1*
X24097D2*
X24397D1*
X25280D2*
X25318D1*
X25880D2*
X26201D1*
X26868D2*
X27202D1*
X3964Y32904D2*
X4212D1*
X4950D2*
X5026D1*
X5444D2*
X5634D1*
X6432D2*
X6660D1*
X7458D2*
X7648D1*
X8180D2*
X8370D1*
X9168D2*
X9396D1*
X10194D2*
X10384D1*
X10985D2*
X11250D1*
X11827D2*
X12116D1*
X12626D2*
X12664D1*
X13431D2*
X13841D1*
X14564D2*
X14754D1*
X15498D2*
X15742D1*
X16312D2*
X16502D1*
X17034D2*
X17430D1*
X18006D2*
X18257D1*
X18858D2*
X19086D1*
X19725D2*
X20082D1*
X20720D2*
X20910D1*
X22268D2*
X22619D1*
X23380D2*
X23570D1*
X24119D2*
X24534D1*
X25049D2*
X25318D1*
X25904D2*
X26332D1*
X26737D2*
X27173D1*
X3983Y32866D2*
X4341D1*
X4773D2*
X5026D1*
X5444D2*
X5634D1*
X6432D2*
X6660D1*
X7458D2*
X7648D1*
X8180D2*
X8370D1*
X9168D2*
X9396D1*
X10194D2*
X10384D1*
X11010D2*
X11366D1*
X11719D2*
X12087D1*
X12626D2*
X12854D1*
X13336D2*
X13804D1*
X14564D2*
X14754D1*
X15407D2*
X15728D1*
X16312D2*
X16502D1*
X17034D2*
X17556D1*
X17901D2*
X18240D1*
X18858D2*
X19086D1*
X19741D2*
X20065D1*
X20720D2*
X20910D1*
X22299D2*
X22711D1*
X23380D2*
X23570D1*
X24148D2*
X24749D1*
X24736D2*
X25318D1*
X25935D2*
X26542D1*
X26527D2*
X27139D1*
X4010Y32828D2*
X4546D1*
X4539D2*
X5025D1*
X5444D2*
X5634D1*
X6432D2*
X6660D1*
X7458D2*
X7648D1*
X8180D2*
X8370D1*
X9168D2*
X9396D1*
X10194D2*
X10384D1*
X11044D2*
X11540D1*
X11546D2*
X12052D1*
X12627D2*
X13764D1*
X14564D2*
X14754D1*
X15267D2*
X15710D1*
X16312D2*
X16502D1*
X17034D2*
X17224D1*
X17301D2*
X17748D1*
X17735D2*
X18220D1*
X18858D2*
X19086D1*
X19756D2*
X20051D1*
X20720D2*
X20910D1*
X22340D2*
X23570D1*
X24183D2*
X25317D1*
X25974D2*
X27102D1*
X4044Y32790D2*
X5021D1*
X5444D2*
X5634D1*
X6432D2*
X6660D1*
X7458D2*
X7648D1*
X8180D2*
X8370D1*
X9168D2*
X9396D1*
X10194D2*
X10384D1*
X11089D2*
X12009D1*
X12630D2*
X13719D1*
X14564D2*
X14754D1*
X15096D2*
X15687D1*
X16312D2*
X16502D1*
X17034D2*
X17224D1*
X17340D2*
X18194D1*
X18858D2*
X19086D1*
X19769D2*
X20037D1*
X20720D2*
X20910D1*
X22394D2*
X23570D1*
X24226D2*
X25313D1*
X26022D2*
X27058D1*
X4089Y32752D2*
X5000D1*
X5444D2*
X5634D1*
X6432D2*
X6660D1*
X7458D2*
X7648D1*
X8180D2*
X8370D1*
X9168D2*
X9396D1*
X10194D2*
X10384D1*
X11142D2*
X11955D1*
X12639D2*
X13659D1*
X14564D2*
X14754D1*
X15099D2*
X15655D1*
X16312D2*
X16502D1*
X17034D2*
X17224D1*
X17386D2*
X18157D1*
X18858D2*
X19086D1*
X19783D2*
X20024D1*
X20720D2*
X20910D1*
X22464D2*
X23570D1*
X24281D2*
X25292D1*
X26082D2*
X27003D1*
X4153Y32714D2*
X4942D1*
X5444D2*
X5634D1*
X6432D2*
X6660D1*
X7458D2*
X7648D1*
X8180D2*
X8370D1*
X9168D2*
X9396D1*
X10194D2*
X10384D1*
X11207D2*
X11886D1*
X12681D2*
X13581D1*
X14564D2*
X14754D1*
X15106D2*
X15610D1*
X16312D2*
X16502D1*
X17034D2*
X17224D1*
X17445D2*
X18103D1*
X18858D2*
X19086D1*
X19796D2*
X20010D1*
X20720D2*
X20910D1*
X22555D2*
X23570D1*
X24356D2*
X25227D1*
X26157D2*
X26934D1*
X4241Y32676D2*
X4858D1*
X5444D2*
X5634D1*
X6432D2*
X6660D1*
X7458D2*
X7648D1*
X8180D2*
X8370D1*
X9168D2*
X9396D1*
X10194D2*
X10384D1*
X11286D2*
X11804D1*
X12779D2*
X13487D1*
X14564D2*
X14754D1*
X15136D2*
X15548D1*
X16312D2*
X16502D1*
X17034D2*
X17224D1*
X17520D2*
X18029D1*
X18858D2*
X19086D1*
X19808D2*
X19998D1*
X20720D2*
X20910D1*
X22658D2*
X23570D1*
X24451D2*
X25130D1*
X26247D2*
X26852D1*
X4342Y32638D2*
X4760D1*
X11372D2*
X11714D1*
X12892D2*
X13386D1*
X15172D2*
X15476D1*
X17604D2*
X17946D1*
X24558D2*
X25014D1*
X26344D2*
X26762D1*
X19127Y31622D2*
X19203D1*
X24257D2*
X24371D1*
X19127Y31584D2*
X19203D1*
X24257D2*
X24371D1*
X19127Y31546D2*
X19203D1*
X24257D2*
X24371D1*
X11907Y31508D2*
X13199D1*
X13845D2*
X14491D1*
X15517D2*
X15555D1*
X16581D2*
X16657D1*
X17835D2*
X17911D1*
X19127D2*
X19203D1*
X24257D2*
X24371D1*
X27601D2*
X27715D1*
X11907Y31470D2*
X13199D1*
X13742D2*
X14491D1*
X15494D2*
X15579D1*
X16581D2*
X16657D1*
X17835D2*
X17911D1*
X19127D2*
X19203D1*
X24257D2*
X24371D1*
X27601D2*
X27715D1*
X11907Y31432D2*
X13199D1*
X13660D2*
X14491D1*
X15474D2*
X15599D1*
X16581D2*
X16657D1*
X17835D2*
X17911D1*
X19127D2*
X19203D1*
X24257D2*
X24371D1*
X27601D2*
X27715D1*
X12515Y31394D2*
X12591D1*
X13598D2*
X13854D1*
X14377D2*
X14491D1*
X15457D2*
X15616D1*
X16581D2*
X16657D1*
X17835D2*
X17911D1*
X19127D2*
X19203D1*
X24257D2*
X24371D1*
X27601D2*
X27715D1*
X12515Y31356D2*
X12591D1*
X13551D2*
X13763D1*
X14377D2*
X14491D1*
X15443D2*
X15630D1*
X16581D2*
X16657D1*
X17835D2*
X17911D1*
X19127D2*
X19203D1*
X22319D2*
X22357D1*
X24257D2*
X24371D1*
X27601D2*
X27715D1*
X12515Y31318D2*
X12591D1*
X13514D2*
X13691D1*
X14377D2*
X14491D1*
X15428D2*
X15645D1*
X16581D2*
X16657D1*
X17835D2*
X17911D1*
X19127D2*
X19203D1*
X22319D2*
X22363D1*
X24257D2*
X24371D1*
X27601D2*
X27715D1*
X12515Y31280D2*
X12591D1*
X13488D2*
X13639D1*
X14377D2*
X14491D1*
X15411D2*
X15662D1*
X16581D2*
X16657D1*
X17835D2*
X17911D1*
X19127D2*
X19203D1*
X22319D2*
X22373D1*
X24257D2*
X24371D1*
X27601D2*
X27715D1*
X12515Y31242D2*
X12591D1*
X13470D2*
X13603D1*
X14377D2*
X14491D1*
X15395D2*
X15478D1*
X15595D2*
X15678D1*
X16581D2*
X16657D1*
X17835D2*
X17911D1*
X19127D2*
X19203D1*
X22319D2*
X22383D1*
X24257D2*
X24371D1*
X27601D2*
X27715D1*
X12515Y31204D2*
X12591D1*
X13454D2*
X13577D1*
X14377D2*
X14491D1*
X15380D2*
X15473D1*
X15600D2*
X15693D1*
X16581D2*
X16657D1*
X17835D2*
X17911D1*
X19127D2*
X19203D1*
X22319D2*
X22389D1*
X24257D2*
X24371D1*
X27601D2*
X27715D1*
X12515Y31166D2*
X12591D1*
X13442D2*
X13559D1*
X14377D2*
X14491D1*
X15366D2*
X15464D1*
X15609D2*
X15707D1*
X16581D2*
X16657D1*
X17835D2*
X17911D1*
X19127D2*
X19203D1*
X22319D2*
X22395D1*
X24257D2*
X24371D1*
X27601D2*
X27715D1*
X12515Y31128D2*
X12591D1*
X13434D2*
X13550D1*
X14377D2*
X14491D1*
X15353D2*
X15453D1*
X15620D2*
X15721D1*
X16581D2*
X16657D1*
X17835D2*
X17911D1*
X19127D2*
X19203D1*
X22319D2*
X22401D1*
X24257D2*
X24371D1*
X27601D2*
X27715D1*
X12515Y31090D2*
X12591D1*
X13430D2*
X13545D1*
X14377D2*
X14491D1*
X15340D2*
X15441D1*
X15632D2*
X15738D1*
X16581D2*
X16657D1*
X17835D2*
X17911D1*
X19127D2*
X19203D1*
X22319D2*
X22425D1*
X24257D2*
X24371D1*
X27601D2*
X27715D1*
X12515Y31052D2*
X12591D1*
X13429D2*
X13543D1*
X14377D2*
X14491D1*
X15328D2*
X15429D1*
X15646D2*
X15754D1*
X16581D2*
X16657D1*
X17835D2*
X17911D1*
X19127D2*
X19203D1*
X19507D2*
X19811D1*
X20913D2*
X21179D1*
X22319D2*
X22478D1*
X23193D2*
X23497D1*
X24257D2*
X24371D1*
X25207D2*
X25511D1*
X26499D2*
X26879D1*
X27601D2*
X27715D1*
X12515Y31014D2*
X12591D1*
X13428D2*
X13542D1*
X14377D2*
X14491D1*
X15313D2*
X15416D1*
X15662D2*
X15769D1*
X16581D2*
X16657D1*
X17835D2*
X17911D1*
X19127D2*
X19204D1*
X19439D2*
X19890D1*
X20845D2*
X21266D1*
X21901D2*
X22533D1*
X23120D2*
X23602D1*
X24257D2*
X24371D1*
X25128D2*
X25598D1*
X26414D2*
X26965D1*
X27601D2*
X27715D1*
X12515Y30976D2*
X12591D1*
X13428D2*
X13542D1*
X14377D2*
X14491D1*
X15297D2*
X15404D1*
X15678D2*
X15783D1*
X16581D2*
X16657D1*
X17835D2*
X17911D1*
X19127D2*
X19205D1*
X19377D2*
X19958D1*
X20785D2*
X21337D1*
X21901D2*
X22583D1*
X23062D2*
X23688D1*
X24257D2*
X24371D1*
X25059D2*
X25669D1*
X26342D2*
X27035D1*
X27601D2*
X27715D1*
X12515Y30938D2*
X12591D1*
X13429D2*
X13542D1*
X14377D2*
X14491D1*
X15280D2*
X15389D1*
X15693D2*
X15797D1*
X16581D2*
X16657D1*
X17835D2*
X17911D1*
X19127D2*
X19211D1*
X19320D2*
X19522D1*
X19810D2*
X20012D1*
X20735D2*
X20921D1*
X21210D2*
X21393D1*
X21901D2*
X22606D1*
X23018D2*
X23201D1*
X23497D2*
X23763D1*
X24257D2*
X24371D1*
X25002D2*
X25209D1*
X25496D2*
X25725D1*
X26342D2*
X26499D1*
X26864D2*
X27086D1*
X27601D2*
X27715D1*
X12515Y30900D2*
X12591D1*
X13434D2*
X13543D1*
X14377D2*
X14491D1*
X15266D2*
X15373D1*
X15707D2*
X15814D1*
X16581D2*
X16657D1*
X17835D2*
X17911D1*
X19127D2*
X19224D1*
X19263D2*
X19440D1*
X19878D2*
X20052D1*
X20696D2*
X20861D1*
X21270D2*
X21438D1*
X22319D2*
X22433D1*
X22986D2*
X23141D1*
X23649D2*
X23725D1*
X24257D2*
X24371D1*
X24957D2*
X25140D1*
X25579D2*
X25770D1*
X26347D2*
X26385D1*
X26945D2*
X27122D1*
X27601D2*
X27715D1*
X12515Y30862D2*
X12591D1*
X13443D2*
X13548D1*
X14377D2*
X14491D1*
X15252D2*
X15356D1*
X15721D2*
X15830D1*
X16581D2*
X16657D1*
X17835D2*
X17911D1*
X19127D2*
X19378D1*
X19934D2*
X20085D1*
X20666D2*
X20811D1*
X21321D2*
X21475D1*
X22319D2*
X22433D1*
X22962D2*
X23092D1*
X24257D2*
X24371D1*
X24924D2*
X25080D1*
X25642D2*
X25807D1*
X27004D2*
X27148D1*
X27601D2*
X27715D1*
X12515Y30824D2*
X12591D1*
X13454D2*
X13558D1*
X14377D2*
X14491D1*
X15238D2*
X15342D1*
X15738D2*
X15845D1*
X16581D2*
X16657D1*
X17835D2*
X17911D1*
X19127D2*
X19333D1*
X19975D2*
X20112D1*
X20642D2*
X20772D1*
X21364D2*
X21504D1*
X22319D2*
X22433D1*
X22944D2*
X23054D1*
X24257D2*
X24371D1*
X24899D2*
X25034D1*
X25691D2*
X25836D1*
X27044D2*
X27165D1*
X27601D2*
X27715D1*
X12515Y30786D2*
X12591D1*
X13467D2*
X13575D1*
X14377D2*
X14491D1*
X15221D2*
X15328D1*
X15754D2*
X15859D1*
X16581D2*
X16657D1*
X17835D2*
X17911D1*
X19127D2*
X19300D1*
X20008D2*
X20134D1*
X20621D2*
X20742D1*
X21399D2*
X21526D1*
X22319D2*
X22433D1*
X22929D2*
X23024D1*
X24257D2*
X24371D1*
X24877D2*
X25001D1*
X25730D2*
X25860D1*
X27069D2*
X27175D1*
X27601D2*
X27715D1*
X12515Y30748D2*
X12591D1*
X13486D2*
X13598D1*
X14377D2*
X14491D1*
X15205D2*
X15315D1*
X15769D2*
X15873D1*
X16581D2*
X16657D1*
X17835D2*
X17911D1*
X19127D2*
X19276D1*
X20036D2*
X20150D1*
X20602D2*
X20719D1*
X21428D2*
X21544D1*
X22319D2*
X22433D1*
X22915D2*
X23013D1*
X24257D2*
X24371D1*
X24857D2*
X24975D1*
X25759D2*
X25880D1*
X27087D2*
X27180D1*
X27601D2*
X27715D1*
X12515Y30710D2*
X12591D1*
X13513D2*
X13635D1*
X14377D2*
X14491D1*
X15190D2*
X15302D1*
X15782D2*
X15890D1*
X16581D2*
X16657D1*
X17835D2*
X17911D1*
X19127D2*
X19258D1*
X20058D2*
X20165D1*
X20588D2*
X20701D1*
X21450D2*
X21558D1*
X22319D2*
X22433D1*
X22904D2*
X23006D1*
X24257D2*
X24371D1*
X24837D2*
X24953D1*
X25782D2*
X25899D1*
X27083D2*
X27181D1*
X27601D2*
X27715D1*
X12515Y30672D2*
X12591D1*
X13546D2*
X13690D1*
X14377D2*
X14491D1*
X15176D2*
X15290D1*
X15796D2*
X15906D1*
X16581D2*
X16657D1*
X17835D2*
X17911D1*
X19127D2*
X19243D1*
X20074D2*
X20177D1*
X20579D2*
X20687D1*
X21468D2*
X21572D1*
X22319D2*
X22433D1*
X22896D2*
X22999D1*
X24257D2*
X24371D1*
X24820D2*
X24934D1*
X25800D2*
X25913D1*
X27071D2*
X27176D1*
X27601D2*
X27715D1*
X12515Y30634D2*
X12591D1*
X13583D2*
X13766D1*
X14377D2*
X14491D1*
X15162D2*
X15275D1*
X15809D2*
X15921D1*
X16581D2*
X16657D1*
X17835D2*
X17911D1*
X19127D2*
X19229D1*
X20089D2*
X20186D1*
X20574D2*
X20673D1*
X21482D2*
X21583D1*
X22319D2*
X22433D1*
X22892D2*
X22989D1*
X24257D2*
X24371D1*
X24805D2*
X24918D1*
X25814D2*
X25922D1*
X27051D2*
X27166D1*
X27601D2*
X27715D1*
X12515Y30596D2*
X12591D1*
X13626D2*
X13859D1*
X14377D2*
X14491D1*
X15145D2*
X15259D1*
X15821D2*
X15935D1*
X16581D2*
X16657D1*
X17835D2*
X17911D1*
X19127D2*
X19218D1*
X20101D2*
X20195D1*
X20571D2*
X20662D1*
X21496D2*
X21592D1*
X22319D2*
X22433D1*
X22891D2*
X22978D1*
X24257D2*
X24371D1*
X24797D2*
X24905D1*
X25828D2*
X25928D1*
X27020D2*
X27150D1*
X27601D2*
X27715D1*
X12515Y30558D2*
X12591D1*
X13679D2*
X14491D1*
X15129D2*
X15243D1*
X15836D2*
X15949D1*
X16581D2*
X16657D1*
X17835D2*
X17911D1*
X19127D2*
X19210D1*
X20109D2*
X20206D1*
X20566D2*
X20654D1*
X21507D2*
X21601D1*
X22319D2*
X22433D1*
X22890D2*
X22972D1*
X24257D2*
X24371D1*
X24793D2*
X24891D1*
X25839D2*
X25935D1*
X26976D2*
X27128D1*
X27601D2*
X27715D1*
X12515Y30520D2*
X12591D1*
X13741D2*
X14491D1*
X15114D2*
X15229D1*
X15853D2*
X15966D1*
X16581D2*
X16657D1*
X17835D2*
X17911D1*
X19127D2*
X19206D1*
X20113D2*
X20216D1*
X20556D2*
X20650D1*
X21515D2*
X21612D1*
X22319D2*
X22433D1*
X22890D2*
X22968D1*
X24257D2*
X24371D1*
X24791D2*
X24879D1*
X25847D2*
X25944D1*
X26914D2*
X27098D1*
X27601D2*
X27715D1*
X12515Y30482D2*
X12591D1*
X13807D2*
X14491D1*
X15100D2*
X15221D1*
X15876D2*
X15982D1*
X16581D2*
X16657D1*
X17835D2*
X17911D1*
X19127D2*
X19205D1*
X20114D2*
X20223D1*
X20546D2*
X20648D1*
X21519D2*
X21622D1*
X22319D2*
X22433D1*
X22889D2*
X22965D1*
X24257D2*
X24371D1*
X24790D2*
X24872D1*
X25851D2*
X25954D1*
X26837D2*
X27058D1*
X27601D2*
X27715D1*
X12515Y30444D2*
X12591D1*
X13783D2*
X13877D1*
X14377D2*
X14491D1*
X15086D2*
X15216D1*
X15904D2*
X15997D1*
X16581D2*
X16657D1*
X17835D2*
X17911D1*
X19127D2*
X19204D1*
X20115D2*
X20227D1*
X20540D2*
X21629D1*
X22319D2*
X22433D1*
X22889D2*
X23243D1*
X24257D2*
X24371D1*
X24790D2*
X24868D1*
X25852D2*
X25961D1*
X26752D2*
X27005D1*
X27601D2*
X27715D1*
X12515Y30406D2*
X12591D1*
X13757D2*
X13867D1*
X14377D2*
X14491D1*
X15069D2*
X16011D1*
X16581D2*
X16657D1*
X17835D2*
X17911D1*
X19127D2*
X19204D1*
X20115D2*
X20228D1*
X20536D2*
X21633D1*
X22319D2*
X22433D1*
X22889D2*
X23455D1*
X24257D2*
X24371D1*
X24789D2*
X24867D1*
X25853D2*
X25965D1*
X26665D2*
X26937D1*
X27601D2*
X27715D1*
X12515Y30368D2*
X12591D1*
X13731D2*
X13850D1*
X14377D2*
X14491D1*
X15053D2*
X16025D1*
X16581D2*
X16658D1*
X17835D2*
X17911D1*
X19127D2*
X19203D1*
X20115D2*
X20229D1*
X20533D2*
X21634D1*
X22319D2*
X22433D1*
X22889D2*
X23600D1*
X24257D2*
X24371D1*
X24789D2*
X24866D1*
X25853D2*
X25966D1*
X26584D2*
X26853D1*
X27601D2*
X27715D1*
X12515Y30330D2*
X12591D1*
X13708D2*
X13830D1*
X14377D2*
X14491D1*
X15038D2*
X16042D1*
X16581D2*
X16659D1*
X17835D2*
X17911D1*
X19127D2*
X19203D1*
X20115D2*
X20229D1*
X21521D2*
X21635D1*
X22319D2*
X22433D1*
X22889D2*
X23003D1*
X23361D2*
X23695D1*
X24257D2*
X24371D1*
X24789D2*
X24866D1*
X25853D2*
X25967D1*
X26510D2*
X26761D1*
X27601D2*
X27715D1*
X12515Y30292D2*
X12591D1*
X13686D2*
X13806D1*
X14377D2*
X14491D1*
X15024D2*
X15132D1*
X15928D2*
X16058D1*
X16581D2*
X16664D1*
X17835D2*
X17911D1*
X19127D2*
X19203D1*
X20115D2*
X20229D1*
X21521D2*
X21635D1*
X22319D2*
X22433D1*
X22889D2*
X23003D1*
X23502D2*
X23757D1*
X24257D2*
X24371D1*
X24789D2*
X24866D1*
X25853D2*
X25966D1*
X26448D2*
X26671D1*
X27601D2*
X27715D1*
X12515Y30254D2*
X12591D1*
X13664D2*
X13783D1*
X14377D2*
X14491D1*
X15010D2*
X15122D1*
X15952D2*
X16073D1*
X16582D2*
X16673D1*
X17834D2*
X17911D1*
X19127D2*
X19203D1*
X20115D2*
X20228D1*
X21521D2*
X21634D1*
X22319D2*
X22433D1*
X22889D2*
X23003D1*
X23608D2*
X23801D1*
X24257D2*
X24371D1*
X24789D2*
X24867D1*
X25853D2*
X25961D1*
X26397D2*
X26592D1*
X27601D2*
X27715D1*
X12515Y30216D2*
X12591D1*
X13641D2*
X13762D1*
X14377D2*
X14491D1*
X14993D2*
X15111D1*
X15969D2*
X16087D1*
X16583D2*
X16683D1*
X17829D2*
X17911D1*
X19127D2*
X19204D1*
X20115D2*
X20223D1*
X21520D2*
X21629D1*
X22319D2*
X22433D1*
X22889D2*
X23003D1*
X23683D2*
X23833D1*
X24257D2*
X24371D1*
X24789D2*
X24872D1*
X25852D2*
X25952D1*
X26354D2*
X26527D1*
X27601D2*
X27715D1*
X12515Y30178D2*
X12591D1*
X13617D2*
X13740D1*
X14377D2*
X14491D1*
X14977D2*
X15099D1*
X15986D2*
X16101D1*
X16588D2*
X16689D1*
X17820D2*
X17911D1*
X19127D2*
X19205D1*
X20114D2*
X20214D1*
X21515D2*
X21620D1*
X22319D2*
X22433D1*
X22889D2*
X23003D1*
X23731D2*
X23855D1*
X24257D2*
X24371D1*
X24790D2*
X24881D1*
X25847D2*
X25942D1*
X26319D2*
X26475D1*
X27601D2*
X27715D1*
X12515Y30140D2*
X12591D1*
X13593D2*
X13717D1*
X14377D2*
X14491D1*
X14962D2*
X15085D1*
X16003D2*
X16118D1*
X16597D2*
X16694D1*
X17809D2*
X17910D1*
X19127D2*
X19210D1*
X20109D2*
X20204D1*
X21506D2*
X21610D1*
X22319D2*
X22433D1*
X22889D2*
X23004D1*
X23762D2*
X23867D1*
X24257D2*
X24371D1*
X24791D2*
X24892D1*
X25838D2*
X25934D1*
X26292D2*
X26435D1*
X27601D2*
X27715D1*
X12515Y30102D2*
X12591D1*
X13572D2*
X13693D1*
X14377D2*
X14491D1*
X14948D2*
X15069D1*
X16020D2*
X16134D1*
X16608D2*
X16701D1*
X17797D2*
X17905D1*
X19127D2*
X19219D1*
X20100D2*
X20197D1*
X21495D2*
X21602D1*
X22319D2*
X22432D1*
X22889D2*
X23005D1*
X23782D2*
X23873D1*
X24257D2*
X24371D1*
X24796D2*
X24904D1*
X25827D2*
X25926D1*
X26281D2*
X26404D1*
X27601D2*
X27715D1*
X12515Y30064D2*
X12591D1*
X13552D2*
X13669D1*
X14377D2*
X14491D1*
X14935D2*
X15052D1*
X16035D2*
X16149D1*
X16620D2*
X16712D1*
X17783D2*
X17895D1*
X19127D2*
X19230D1*
X20089D2*
X20193D1*
X21483D2*
X21594D1*
X22319D2*
X22427D1*
X22889D2*
X23010D1*
X23793D2*
X23876D1*
X24257D2*
X24371D1*
X24806D2*
X24918D1*
X25815D2*
X25915D1*
X26276D2*
X26381D1*
X27601D2*
X27715D1*
X12515Y30026D2*
X12591D1*
X13532D2*
X13648D1*
X14377D2*
X14491D1*
X14922D2*
X15038D1*
X16049D2*
X16163D1*
X16634D2*
X16728D1*
X17765D2*
X17880D1*
X19127D2*
X19242D1*
X20077D2*
X20186D1*
X21469D2*
X21582D1*
X22319D2*
X22418D1*
X22889D2*
X23020D1*
X23796D2*
X23877D1*
X24257D2*
X24371D1*
X24821D2*
X24934D1*
X25801D2*
X25903D1*
X26273D2*
X26363D1*
X27601D2*
X27715D1*
X12515Y29988D2*
X12591D1*
X13512D2*
X13628D1*
X14377D2*
X14491D1*
X14910D2*
X15024D1*
X16063D2*
X16177D1*
X16650D2*
X16751D1*
X17743D2*
X17863D1*
X19127D2*
X19256D1*
X20063D2*
X20175D1*
X21451D2*
X21566D1*
X22318D2*
X22408D1*
X22889D2*
X23037D1*
X23794D2*
X23877D1*
X24257D2*
X24371D1*
X24838D2*
X24952D1*
X25783D2*
X25890D1*
X26274D2*
X26361D1*
X27601D2*
X27715D1*
X12515Y29950D2*
X12591D1*
X13489D2*
X13608D1*
X14377D2*
X14491D1*
X14895D2*
X15010D1*
X16080D2*
X16194D1*
X16668D2*
X16779D1*
X17714D2*
X17843D1*
X19127D2*
X19273D1*
X20045D2*
X20160D1*
X21429D2*
X21549D1*
X22313D2*
X22401D1*
X22889D2*
X23059D1*
X23784D2*
X23877D1*
X24257D2*
X24371D1*
X24856D2*
X24972D1*
X25761D2*
X25872D1*
X26278D2*
X26368D1*
X27601D2*
X27715D1*
X12515Y29912D2*
X12591D1*
X13464D2*
X13588D1*
X14377D2*
X14491D1*
X14879D2*
X14993D1*
X16096D2*
X16210D1*
X16688D2*
X16814D1*
X17679D2*
X17819D1*
X19127D2*
X19297D1*
X20022D2*
X20143D1*
X21399D2*
X21529D1*
X22302D2*
X22397D1*
X22889D2*
X23088D1*
X23768D2*
X23876D1*
X24257D2*
X24371D1*
X24875D2*
X24997D1*
X25731D2*
X25850D1*
X26289D2*
X26383D1*
X27601D2*
X27715D1*
X12515Y29874D2*
X12591D1*
X13441D2*
X13565D1*
X14377D2*
X14491D1*
X14862D2*
X14977D1*
X16111D2*
X16225D1*
X16712D2*
X16858D1*
X17635D2*
X17790D1*
X19127D2*
X19329D1*
X19989D2*
X20123D1*
X21362D2*
X21505D1*
X22285D2*
X22390D1*
X22889D2*
X23125D1*
X23744D2*
X23869D1*
X24257D2*
X24371D1*
X24896D2*
X25034D1*
X25694D2*
X25827D1*
X26305D2*
X26406D1*
X27601D2*
X27715D1*
X12515Y29836D2*
X12591D1*
X13420D2*
X13540D1*
X14377D2*
X14491D1*
X14848D2*
X14962D1*
X16125D2*
X16239D1*
X16743D2*
X16925D1*
X17568D2*
X17756D1*
X19127D2*
X19372D1*
X19947D2*
X20099D1*
X21315D2*
X21476D1*
X22262D2*
X22379D1*
X22889D2*
X22965D1*
X23079D2*
X23171D1*
X23710D2*
X23854D1*
X24257D2*
X24371D1*
X24921D2*
X25093D1*
X25648D2*
X25801D1*
X26327D2*
X26469D1*
X27601D2*
X27715D1*
X12515Y29798D2*
X12591D1*
X13398D2*
X13517D1*
X14377D2*
X14491D1*
X14834D2*
X14948D1*
X16139D2*
X16253D1*
X16783D2*
X17047D1*
X17446D2*
X17718D1*
X19127D2*
X19165D1*
X19281D2*
X19490D1*
X19829D2*
X20068D1*
X20609D2*
X20647D1*
X21183D2*
X21441D1*
X22178D2*
X22362D1*
X22889D2*
X22965D1*
X23118D2*
X23289D1*
X23612D2*
X23829D1*
X24257D2*
X24371D1*
X24955D2*
X25195D1*
X25529D2*
X25769D1*
X26357D2*
X26588D1*
X27145D2*
X27221D1*
X27601D2*
X27715D1*
X12515Y29760D2*
X12591D1*
X13374D2*
X13497D1*
X14377D2*
X14491D1*
X14821D2*
X14935D1*
X16157D2*
X16271D1*
X16836D2*
X17246D1*
X17247D2*
X17673D1*
X19127D2*
X19165D1*
X19325D2*
X19669D1*
X19650D2*
X20027D1*
X20620D2*
X20960D1*
X20977D2*
X21397D1*
X22039D2*
X22339D1*
X22889D2*
X22965D1*
X23159D2*
X23469D1*
X23458D2*
X23794D1*
X24257D2*
X24371D1*
X25001D2*
X25355D1*
X25350D2*
X25727D1*
X26398D2*
X26785D1*
X26833D2*
X27211D1*
X27601D2*
X27715D1*
X12515Y29722D2*
X12591D1*
X13345D2*
X13480D1*
X14377D2*
X14491D1*
X14807D2*
X14921D1*
X16178D2*
X16292D1*
X16904D2*
X17615D1*
X19127D2*
X19165D1*
X19379D2*
X19969D1*
X20662D2*
X21338D1*
X21863D2*
X22304D1*
X22889D2*
X22965D1*
X23208D2*
X23747D1*
X24257D2*
X24371D1*
X25059D2*
X25670D1*
X26455D2*
X27169D1*
X27601D2*
X27715D1*
X12515Y29684D2*
X12591D1*
X13313D2*
X13465D1*
X14377D2*
X14491D1*
X14795D2*
X14909D1*
X16201D2*
X16315D1*
X16986D2*
X17539D1*
X19127D2*
X19165D1*
X19441D2*
X19895D1*
X20725D2*
X21263D1*
X21881D2*
X22258D1*
X22889D2*
X22965D1*
X23272D2*
X23684D1*
X24257D2*
X24371D1*
X25129D2*
X25595D1*
X26530D2*
X27106D1*
X27601D2*
X27715D1*
X17075Y29646D2*
X17455D1*
X19507D2*
X19811D1*
X20799D2*
X21179D1*
X21901D2*
X22205D1*
X23345D2*
X23611D1*
X25207D2*
X25511D1*
X26613D2*
X27031D1*
X16312Y34880D2*
Y34842D1*
Y34804D1*
Y34766D1*
Y34728D1*
Y34690D1*
Y34652D1*
Y34614D1*
Y34576D1*
Y34538D1*
Y34500D1*
Y34462D1*
Y34424D1*
Y34386D1*
Y34348D1*
Y34310D1*
Y34272D1*
Y34234D1*
Y34196D1*
Y34158D1*
Y34120D1*
Y34082D1*
Y34044D1*
Y34006D1*
Y33968D1*
Y33930D1*
Y33892D1*
Y33854D1*
Y33816D1*
Y33778D1*
Y33740D1*
Y33702D1*
Y33664D1*
Y33626D1*
Y33588D1*
Y33550D1*
Y33512D1*
Y33474D1*
Y33436D1*
Y33398D1*
Y33360D1*
Y33322D1*
Y33284D1*
Y33246D1*
Y33208D1*
Y33170D1*
Y33132D1*
Y33094D1*
Y33056D1*
Y33018D1*
Y32980D1*
Y32942D1*
Y32904D1*
Y32866D1*
Y32828D1*
Y32790D1*
Y32752D1*
Y32714D1*
Y32676D1*
X16502Y34880D2*
Y34842D1*
Y34804D1*
Y34766D1*
Y34728D1*
Y34690D1*
Y34652D1*
Y34614D1*
Y34576D1*
Y34538D1*
Y34500D1*
Y34462D1*
Y34424D1*
Y34386D1*
Y34348D1*
Y34310D1*
Y34272D1*
Y34234D1*
Y34196D1*
Y34158D1*
Y34120D1*
Y34082D1*
Y34044D1*
Y34006D1*
Y33968D1*
Y33930D1*
Y33892D1*
Y33854D1*
Y33816D1*
Y33778D1*
Y33740D1*
Y33702D1*
Y33664D1*
Y33626D1*
Y33588D1*
Y33550D1*
Y33512D1*
Y33474D1*
Y33436D1*
Y33398D1*
Y33360D1*
Y33322D1*
Y33284D1*
Y33246D1*
Y33208D1*
Y33170D1*
Y33132D1*
Y33094D1*
Y33056D1*
Y33018D1*
Y32980D1*
Y32942D1*
Y32904D1*
Y32866D1*
Y32828D1*
Y32790D1*
Y32752D1*
Y32714D1*
Y32676D1*
X12892Y34766D2*
X12763Y34728D1*
X12652Y34690D1*
X12550Y34652D1*
X12569Y34614D1*
X12585Y34576D1*
X12600Y34538D1*
X12614Y34500D1*
X12626Y34462D1*
X13310Y34766D2*
X13433Y34728D1*
X13537Y34690D1*
X13621Y34652D1*
X13689Y34614D1*
X13747Y34576D1*
X13794Y34538D1*
X13832Y34500D1*
X13863Y34462D1*
X13891Y34424D1*
X13918Y34386D1*
X13942Y34348D1*
X13964Y34310D1*
X13984Y34272D1*
X14002Y34234D1*
X14018Y34196D1*
X14031Y34158D1*
X14045Y34120D1*
X14056Y34082D1*
X14065Y34044D1*
X14074Y34006D1*
X14085Y33968D1*
X14095Y33930D1*
X14102Y33892D1*
X14106Y33854D1*
X14107Y33816D1*
X14108Y33778D1*
Y33740D1*
Y33702D1*
Y33664D1*
Y33626D1*
Y33588D1*
Y33550D1*
X14107Y33512D1*
X14102Y33474D1*
X14093Y33436D1*
X14083Y33398D1*
X14075Y33360D1*
X14067Y33322D1*
X14056Y33284D1*
X14044Y33246D1*
X14032Y33208D1*
X14018Y33170D1*
X14002Y33132D1*
X13984Y33094D1*
X13964Y33056D1*
X13940Y33018D1*
X13911Y32980D1*
X13877Y32942D1*
X13841Y32904D1*
X13804Y32866D1*
X13764Y32828D1*
X13719Y32790D1*
X13659Y32752D1*
X13581Y32714D1*
X13487Y32676D1*
X13386Y32638D1*
X14602Y34766D2*
X14572Y34728D1*
X14550Y34690D1*
X14535Y34652D1*
X14534Y34614D1*
X14550Y34576D1*
X14574Y34538D1*
X14602Y34500D1*
X14716Y34766D2*
X14747Y34728D1*
X14769Y34690D1*
X14784Y34652D1*
Y34614D1*
X14768Y34576D1*
X14745Y34538D1*
X14716Y34500D1*
X24406Y34766D2*
X24291Y34728D1*
X24204Y34690D1*
X24141Y34652D1*
X24122Y34614D1*
X24124Y34576D1*
X24130Y34538D1*
X24136Y34500D1*
X24140Y34462D1*
X24824Y34766D2*
X24916Y34728D1*
X24997Y34690D1*
X25063Y34652D1*
X25116Y34614D1*
X25160Y34576D1*
X25195Y34538D1*
X25220Y34500D1*
X25238Y34462D1*
X25253Y34424D1*
X25266Y34386D1*
X25274Y34348D1*
X25277Y34310D1*
X25279Y34272D1*
X25280Y34234D1*
Y34196D1*
X25279Y34158D1*
X25274Y34120D1*
X25263Y34082D1*
X25249Y34044D1*
X25232Y34006D1*
X25212Y33968D1*
X25188Y33930D1*
X25159Y33892D1*
X25124Y33854D1*
X25083Y33816D1*
X25033Y33778D1*
X24975Y33740D1*
X24904Y33702D1*
X24823Y33664D1*
X24736Y33626D1*
X24649Y33588D1*
X24567Y33550D1*
X24493Y33512D1*
X24431Y33474D1*
X24380Y33436D1*
X24337Y33398D1*
X24302Y33360D1*
X24275Y33322D1*
X24264Y33284D1*
X24259Y33246D1*
X24256Y33208D1*
Y33170D1*
X24261Y33132D1*
X24272Y33094D1*
X24288Y33056D1*
X24311Y33018D1*
X24348Y32980D1*
X24397Y32942D1*
X24534Y32904D1*
X24749Y32866D1*
X25014Y32828D1*
X18858Y34728D2*
Y34690D1*
Y34652D1*
Y34614D1*
Y34576D1*
Y34538D1*
Y34500D1*
Y34462D1*
Y34424D1*
Y34386D1*
Y34348D1*
Y34310D1*
Y34272D1*
Y34234D1*
Y34196D1*
Y34158D1*
Y34120D1*
Y34082D1*
Y34044D1*
Y34006D1*
Y33968D1*
Y33930D1*
Y33892D1*
Y33854D1*
Y33816D1*
Y33778D1*
Y33740D1*
Y33702D1*
Y33664D1*
Y33626D1*
Y33588D1*
Y33550D1*
Y33512D1*
Y33474D1*
Y33436D1*
Y33398D1*
Y33360D1*
Y33322D1*
Y33284D1*
Y33246D1*
Y33208D1*
Y33170D1*
Y33132D1*
Y33094D1*
Y33056D1*
Y33018D1*
Y32980D1*
Y32942D1*
Y32904D1*
Y32866D1*
Y32828D1*
Y32790D1*
Y32752D1*
Y32714D1*
Y32676D1*
X19200Y34728D2*
X19215Y34690D1*
X19231Y34652D1*
X19247Y34614D1*
X19262Y34576D1*
X19276Y34538D1*
X19290Y34500D1*
X19307Y34462D1*
X19323Y34424D1*
X19338Y34386D1*
X19352Y34348D1*
X19366Y34310D1*
X19383Y34272D1*
X19399Y34234D1*
X19414Y34196D1*
X19428Y34158D1*
X19442Y34120D1*
X19459Y34082D1*
X19475Y34044D1*
X19490Y34006D1*
X19503Y33968D1*
X19517Y33930D1*
X19530Y33892D1*
X19542Y33854D1*
X19556Y33816D1*
X19573Y33778D1*
X19589Y33740D1*
X19604Y33702D1*
X19618Y33664D1*
X19632Y33626D1*
X19649Y33588D1*
X19665Y33550D1*
X19680Y33512D1*
X19694Y33474D1*
X19708Y33436D1*
X19725Y33398D1*
X19741Y33360D1*
X19756Y33322D1*
X19770Y33284D1*
X19784Y33246D1*
X19801Y33208D1*
X19817Y33170D1*
X19832Y33132D1*
X19847Y33094D1*
X19864Y33056D1*
X19884Y33018D1*
X20568Y34728D2*
X20555Y34690D1*
X20543Y34652D1*
X20530Y34614D1*
X20516Y34576D1*
X20500Y34538D1*
X20483Y34500D1*
X20469Y34462D1*
X20455Y34424D1*
X20442Y34386D1*
X20429Y34348D1*
X20417Y34310D1*
X20402Y34272D1*
X20386Y34234D1*
X20369Y34196D1*
X20355Y34158D1*
X20341Y34120D1*
X20327Y34082D1*
X20310Y34044D1*
X20293Y34006D1*
X20279Y33968D1*
X20265Y33930D1*
X20251Y33892D1*
X20234Y33854D1*
X20217Y33816D1*
X20203Y33778D1*
X20189Y33740D1*
X20176Y33702D1*
X20163Y33664D1*
X20151Y33626D1*
X20136Y33588D1*
X20120Y33550D1*
X20103Y33512D1*
X20089Y33474D1*
X20075Y33436D1*
X20061Y33398D1*
X20044Y33360D1*
X20027Y33322D1*
X20013Y33284D1*
X19999Y33246D1*
X19985Y33208D1*
X19968Y33170D1*
X19950Y33132D1*
X19930Y33094D1*
X19908Y33056D1*
X19884Y33018D1*
X20910Y34728D2*
Y34690D1*
Y34652D1*
Y34614D1*
Y34576D1*
Y34538D1*
Y34500D1*
Y34462D1*
Y34424D1*
Y34386D1*
Y34348D1*
Y34310D1*
Y34272D1*
Y34234D1*
Y34196D1*
Y34158D1*
Y34120D1*
Y34082D1*
Y34044D1*
Y34006D1*
Y33968D1*
Y33930D1*
Y33892D1*
Y33854D1*
Y33816D1*
Y33778D1*
Y33740D1*
Y33702D1*
Y33664D1*
Y33626D1*
Y33588D1*
Y33550D1*
Y33512D1*
Y33474D1*
Y33436D1*
Y33398D1*
Y33360D1*
Y33322D1*
Y33284D1*
Y33246D1*
Y33208D1*
Y33170D1*
Y33132D1*
Y33094D1*
Y33056D1*
Y33018D1*
Y32980D1*
Y32942D1*
Y32904D1*
Y32866D1*
Y32828D1*
Y32790D1*
Y32752D1*
Y32714D1*
Y32676D1*
X22734Y34728D2*
X22607Y34690D1*
X22505Y34652D1*
X22429Y34614D1*
X22376Y34576D1*
X22339Y34538D1*
X22312Y34500D1*
X22290Y34462D1*
X22271Y34424D1*
X22257Y34386D1*
X22248Y34348D1*
X22244Y34310D1*
X22242Y34272D1*
X22241Y34234D1*
Y34196D1*
Y34158D1*
X22242Y34120D1*
X22247Y34082D1*
X22257Y34044D1*
X22273Y34006D1*
X22296Y33968D1*
X22326Y33930D1*
X22366Y33892D1*
X22417Y33854D1*
X22479Y33816D1*
X22549Y33778D1*
X22620Y33740D1*
X22511Y33702D1*
X22420Y33664D1*
X22349Y33626D1*
X22299Y33588D1*
X22263Y33550D1*
X22236Y33512D1*
X22214Y33474D1*
X22195Y33436D1*
X22181Y33398D1*
X22172Y33360D1*
X22168Y33322D1*
X22166Y33284D1*
X22165Y33246D1*
Y33208D1*
X22166Y33170D1*
X22171Y33132D1*
X22180Y33094D1*
X22191Y33056D1*
X22204Y33018D1*
X22222Y32980D1*
X22244Y32942D1*
X22268Y32904D1*
X22299Y32866D1*
X22340Y32828D1*
X22394Y32790D1*
X22464Y32752D1*
X22555Y32714D1*
X22658Y32676D1*
X23570Y34728D2*
Y34690D1*
Y34652D1*
Y34614D1*
Y34576D1*
Y34538D1*
Y34500D1*
Y34462D1*
Y34424D1*
Y34386D1*
Y34348D1*
Y34310D1*
Y34272D1*
Y34234D1*
Y34196D1*
Y34158D1*
Y34120D1*
Y34082D1*
Y34044D1*
Y34006D1*
Y33968D1*
Y33930D1*
Y33892D1*
Y33854D1*
Y33816D1*
Y33778D1*
Y33740D1*
Y33702D1*
Y33664D1*
Y33626D1*
Y33588D1*
Y33550D1*
Y33512D1*
Y33474D1*
Y33436D1*
Y33398D1*
Y33360D1*
Y33322D1*
Y33284D1*
Y33246D1*
Y33208D1*
Y33170D1*
Y33132D1*
Y33094D1*
Y33056D1*
Y33018D1*
Y32980D1*
Y32942D1*
Y32904D1*
Y32866D1*
Y32828D1*
Y32790D1*
Y32752D1*
Y32714D1*
Y32676D1*
X25774Y34728D2*
Y34690D1*
Y34652D1*
Y34614D1*
Y34576D1*
Y34538D1*
Y34500D1*
Y34462D1*
Y34424D1*
Y34386D1*
Y34348D1*
Y34310D1*
Y34272D1*
Y34234D1*
Y34196D1*
Y34158D1*
Y34120D1*
Y34082D1*
Y34044D1*
Y34006D1*
Y33968D1*
Y33930D1*
Y33892D1*
Y33854D1*
Y33816D1*
Y33778D1*
Y33740D1*
Y33702D1*
Y33664D1*
Y33626D1*
Y33588D1*
Y33550D1*
Y33512D1*
Y33474D1*
Y33436D1*
Y33398D1*
Y33360D1*
Y33322D1*
Y33284D1*
X25775Y33246D1*
X25776Y33208D1*
X25781Y33170D1*
X25791Y33132D1*
X25806Y33094D1*
X25823Y33056D1*
X25841Y33018D1*
X25860Y32980D1*
X25880Y32942D1*
X25904Y32904D1*
X25935Y32866D1*
X25974Y32828D1*
X26022Y32790D1*
X26082Y32752D1*
X26157Y32714D1*
X26247Y32676D1*
X26344Y32638D1*
X25964Y34728D2*
Y34690D1*
Y34652D1*
Y34614D1*
Y34576D1*
Y34538D1*
Y34500D1*
Y34462D1*
Y34424D1*
Y34386D1*
Y34348D1*
Y34310D1*
Y34272D1*
Y34234D1*
Y34196D1*
Y34158D1*
Y34120D1*
Y34082D1*
Y34044D1*
Y34006D1*
Y33968D1*
Y33930D1*
Y33892D1*
Y33854D1*
Y33816D1*
Y33778D1*
Y33740D1*
Y33702D1*
Y33664D1*
Y33626D1*
Y33588D1*
Y33550D1*
Y33512D1*
Y33474D1*
Y33436D1*
Y33398D1*
X25965Y33360D1*
X25966Y33322D1*
X25971Y33284D1*
X25980Y33246D1*
X25991Y33208D1*
X26003Y33170D1*
X26017Y33132D1*
X26034Y33094D1*
X26057Y33056D1*
X26088Y33018D1*
X26131Y32980D1*
X26201Y32942D1*
X26332Y32904D1*
X26542Y32866D1*
X26800Y32828D1*
X27104Y34728D2*
Y34690D1*
Y34652D1*
Y34614D1*
Y34576D1*
Y34538D1*
Y34500D1*
Y34462D1*
Y34424D1*
Y34386D1*
Y34348D1*
Y34310D1*
Y34272D1*
Y34234D1*
Y34196D1*
Y34158D1*
Y34120D1*
Y34082D1*
Y34044D1*
Y34006D1*
Y33968D1*
Y33930D1*
Y33892D1*
Y33854D1*
Y33816D1*
Y33778D1*
Y33740D1*
Y33702D1*
Y33664D1*
Y33626D1*
Y33588D1*
Y33550D1*
Y33512D1*
Y33474D1*
Y33436D1*
Y33398D1*
Y33360D1*
Y33322D1*
X27103Y33284D1*
X27098Y33246D1*
X27089Y33208D1*
X27078Y33170D1*
X27065Y33132D1*
X27046Y33094D1*
X27019Y33056D1*
X26985Y33018D1*
X26940Y32980D1*
X26868Y32942D1*
X26737Y32904D1*
X26527Y32866D1*
X26268Y32828D1*
X27332Y34728D2*
Y34690D1*
Y34652D1*
Y34614D1*
Y34576D1*
Y34538D1*
Y34500D1*
Y34462D1*
Y34424D1*
Y34386D1*
Y34348D1*
Y34310D1*
Y34272D1*
Y34234D1*
Y34196D1*
Y34158D1*
Y34120D1*
Y34082D1*
Y34044D1*
Y34006D1*
Y33968D1*
Y33930D1*
Y33892D1*
Y33854D1*
Y33816D1*
Y33778D1*
Y33740D1*
Y33702D1*
Y33664D1*
Y33626D1*
Y33588D1*
Y33550D1*
Y33512D1*
Y33474D1*
Y33436D1*
Y33398D1*
X27331Y33360D1*
X27326Y33322D1*
X27317Y33284D1*
X27307Y33246D1*
X27300Y33208D1*
X27296Y33170D1*
X27289Y33132D1*
X27278Y33094D1*
X27263Y33056D1*
X27246Y33018D1*
X27226Y32980D1*
X27202Y32942D1*
X27173Y32904D1*
X27139Y32866D1*
X27102Y32828D1*
X27058Y32790D1*
X27003Y32752D1*
X26934Y32714D1*
X26852Y32676D1*
X26762Y32638D1*
X15552Y34576D2*
Y34538D1*
Y34500D1*
Y34462D1*
Y34424D1*
Y34386D1*
Y34348D1*
Y34310D1*
Y34272D1*
Y34234D1*
Y34196D1*
X15666Y34576D2*
X15684Y34538D1*
X15696Y34500D1*
X15707Y34462D1*
X15718Y34424D1*
X15730Y34386D1*
X15743Y34348D1*
X15760Y34310D1*
X15783Y34272D1*
X15833Y34234D1*
X15890Y34196D1*
X15940Y34158D1*
X15980Y34120D1*
X15995Y34082D1*
X16003Y34044D1*
X16008Y34006D1*
X15780D1*
Y33968D1*
Y33930D1*
Y33892D1*
Y33854D1*
Y33816D1*
Y33778D1*
Y33740D1*
Y33702D1*
Y33664D1*
Y33626D1*
Y33588D1*
Y33550D1*
Y33512D1*
Y33474D1*
Y33436D1*
Y33398D1*
Y33360D1*
Y33322D1*
Y33284D1*
Y33246D1*
Y33208D1*
Y33170D1*
Y33132D1*
Y33094D1*
X15779Y33056D1*
X15774Y33018D1*
X15765Y32980D1*
X15754Y32942D1*
X15742Y32904D1*
X15728Y32866D1*
X15710Y32828D1*
X15687Y32790D1*
X15655Y32752D1*
X15610Y32714D1*
X15548Y32676D1*
X15476Y32638D1*
X13044Y34576D2*
X12906Y34538D1*
X12781Y34500D1*
X12664Y34462D1*
X13196Y34576D2*
X13303Y34538D1*
X13399Y34500D1*
X13482Y34462D1*
X13549Y34424D1*
X13602Y34386D1*
X13647Y34348D1*
X13687Y34310D1*
X13721Y34272D1*
X13749Y34234D1*
X13771Y34196D1*
X13789Y34158D1*
X13803Y34120D1*
X13817Y34082D1*
X13830Y34044D1*
X13842Y34006D1*
X13855Y33968D1*
X13866Y33930D1*
X13874Y33892D1*
X13878Y33854D1*
X13879Y33816D1*
X13880Y33778D1*
Y33740D1*
Y33702D1*
Y33664D1*
Y33626D1*
Y33588D1*
X13879Y33550D1*
X13874Y33512D1*
X13865Y33474D1*
X13855Y33436D1*
X13847Y33398D1*
X13839Y33360D1*
X13827Y33322D1*
X13811Y33284D1*
X13794Y33246D1*
X13774Y33208D1*
X13752Y33170D1*
X13727Y33132D1*
X13701Y33094D1*
X13670Y33056D1*
X13629Y33018D1*
X13577Y32980D1*
X13512Y32942D1*
X13431Y32904D1*
X13336Y32866D1*
X13234Y32828D1*
X22848Y34576D2*
X22744Y34538D1*
X22653Y34500D1*
X22585Y34462D1*
X22538Y34424D1*
X22508Y34386D1*
X22488Y34348D1*
X22475Y34310D1*
X22464Y34272D1*
X22449Y34234D1*
X22430Y34196D1*
X22448Y34158D1*
X22460Y34120D1*
X22471Y34082D1*
X22484Y34044D1*
X22503Y34006D1*
X22527Y33968D1*
X22582Y33930D1*
X22657Y33892D1*
X22749Y33854D1*
X22848Y33816D1*
X23380Y34576D2*
Y34538D1*
Y34500D1*
Y34462D1*
Y34424D1*
Y34386D1*
Y34348D1*
Y34310D1*
Y34272D1*
Y34234D1*
Y34196D1*
Y34158D1*
Y34120D1*
Y34082D1*
Y34044D1*
Y34006D1*
Y33968D1*
Y33930D1*
Y33892D1*
Y33854D1*
Y33816D1*
X24634Y34576D2*
X24465Y34538D1*
X24315Y34500D1*
X24178Y34462D1*
X24710Y34576D2*
X24809Y34538D1*
X24892Y34500D1*
X24954Y34462D1*
X24998Y34424D1*
X25031Y34386D1*
X25042Y34348D1*
X25048Y34310D1*
X25051Y34272D1*
X25052Y34234D1*
Y34196D1*
X25051Y34158D1*
X25044Y34120D1*
X25029Y34082D1*
X25002Y34044D1*
X24964Y34006D1*
X24913Y33968D1*
X24850Y33930D1*
X24775Y33892D1*
X24693Y33854D1*
X24609Y33816D1*
X24526Y33778D1*
X24447Y33740D1*
X24371Y33702D1*
X24301Y33664D1*
X24240Y33626D1*
X24190Y33588D1*
X24151Y33550D1*
X24121Y33512D1*
X24098Y33474D1*
X24080Y33436D1*
X24066Y33398D1*
X24052Y33360D1*
X24040Y33322D1*
X24033Y33284D1*
X24029Y33246D1*
Y33208D1*
X24033Y33170D1*
X24042Y33132D1*
X24052Y33094D1*
X24060Y33056D1*
X24068Y33018D1*
X24080Y32980D1*
X24097Y32942D1*
X24119Y32904D1*
X24148Y32866D1*
X24183Y32828D1*
X24226Y32790D1*
X24281Y32752D1*
X24356Y32714D1*
X24451Y32676D1*
X24558Y32638D1*
X19048Y34500D2*
X19049Y34462D1*
X19050Y34424D1*
X19055Y34386D1*
X19064Y34348D1*
X19074Y34310D1*
X19080Y34272D1*
X19084Y34234D1*
X19085Y34196D1*
X19086Y34158D1*
Y34120D1*
Y34082D1*
Y34044D1*
Y34006D1*
Y33968D1*
Y33930D1*
Y33892D1*
Y33854D1*
Y33816D1*
Y33778D1*
Y33740D1*
Y33702D1*
Y33664D1*
Y33626D1*
Y33588D1*
Y33550D1*
Y33512D1*
Y33474D1*
Y33436D1*
Y33398D1*
Y33360D1*
Y33322D1*
Y33284D1*
Y33246D1*
Y33208D1*
Y33170D1*
Y33132D1*
Y33094D1*
Y33056D1*
Y33018D1*
Y32980D1*
Y32942D1*
Y32904D1*
Y32866D1*
Y32828D1*
Y32790D1*
Y32752D1*
Y32714D1*
Y32676D1*
X19124Y34500D2*
X19130Y34462D1*
X19140Y34424D1*
X19151Y34386D1*
X19163Y34348D1*
X19177Y34310D1*
X19193Y34272D1*
X19209Y34234D1*
X19224Y34196D1*
X19237Y34158D1*
X19251Y34120D1*
X19264Y34082D1*
X19276Y34044D1*
X19290Y34006D1*
X19307Y33968D1*
X19323Y33930D1*
X19338Y33892D1*
X19352Y33854D1*
X19366Y33816D1*
X19383Y33778D1*
X19399Y33740D1*
X19414Y33702D1*
X19428Y33664D1*
X19442Y33626D1*
X19459Y33588D1*
X19475Y33550D1*
X19490Y33512D1*
X19503Y33474D1*
X19517Y33436D1*
X19530Y33398D1*
X19542Y33360D1*
X19556Y33322D1*
X19573Y33284D1*
X19589Y33246D1*
X19604Y33208D1*
X19618Y33170D1*
X19632Y33132D1*
X19649Y33094D1*
X19665Y33056D1*
X19680Y33018D1*
X19694Y32980D1*
X19708Y32942D1*
X19725Y32904D1*
X19741Y32866D1*
X19756Y32828D1*
X19769Y32790D1*
X19783Y32752D1*
X19796Y32714D1*
X19808Y32676D1*
X20644Y34424D2*
X20638Y34386D1*
X20629Y34348D1*
X20618Y34310D1*
X20606Y34272D1*
X20593Y34234D1*
X20581Y34196D1*
X20568Y34158D1*
X20554Y34120D1*
X20538Y34082D1*
X20521Y34044D1*
X20507Y34006D1*
X20493Y33968D1*
X20479Y33930D1*
X20462Y33892D1*
X20445Y33854D1*
X20431Y33816D1*
X20417Y33778D1*
X20404Y33740D1*
X20391Y33702D1*
X20379Y33664D1*
X20364Y33626D1*
X20348Y33588D1*
X20331Y33550D1*
X20317Y33512D1*
X20303Y33474D1*
X20289Y33436D1*
X20272Y33398D1*
X20255Y33360D1*
X20241Y33322D1*
X20227Y33284D1*
X20213Y33246D1*
X20196Y33208D1*
X20179Y33170D1*
X20165Y33132D1*
X20151Y33094D1*
X20138Y33056D1*
X20125Y33018D1*
X20113Y32980D1*
X20098Y32942D1*
X20082Y32904D1*
X20065Y32866D1*
X20051Y32828D1*
X20037Y32790D1*
X20024Y32752D1*
X20010Y32714D1*
X19998Y32676D1*
X20720Y34424D2*
Y34386D1*
Y34348D1*
Y34310D1*
Y34272D1*
Y34234D1*
Y34196D1*
Y34158D1*
Y34120D1*
Y34082D1*
Y34044D1*
Y34006D1*
Y33968D1*
Y33930D1*
Y33892D1*
Y33854D1*
Y33816D1*
Y33778D1*
Y33740D1*
Y33702D1*
Y33664D1*
Y33626D1*
Y33588D1*
Y33550D1*
Y33512D1*
Y33474D1*
Y33436D1*
Y33398D1*
Y33360D1*
Y33322D1*
Y33284D1*
Y33246D1*
Y33208D1*
Y33170D1*
Y33132D1*
Y33094D1*
Y33056D1*
Y33018D1*
Y32980D1*
Y32942D1*
Y32904D1*
Y32866D1*
Y32828D1*
Y32790D1*
Y32752D1*
Y32714D1*
Y32676D1*
X4228Y34234D2*
X4118Y34196D1*
X4032Y34158D1*
X3962Y34120D1*
X3987Y34082D1*
X4012Y34044D1*
X4038Y34006D1*
X4646Y34234D2*
X4732Y34196D1*
X4804Y34158D1*
X4860Y34120D1*
X4905Y34082D1*
X4940Y34044D1*
X4966Y34006D1*
X4984Y33968D1*
X4999Y33930D1*
X5012Y33892D1*
X5018Y33854D1*
X5017Y33816D1*
X5010Y33778D1*
X4999Y33740D1*
X4986Y33702D1*
X4968Y33664D1*
X4941Y33626D1*
X4907Y33588D1*
X4865Y33550D1*
X4812Y33512D1*
X4748Y33474D1*
X4673Y33436D1*
X4590Y33398D1*
X4502Y33360D1*
X4415Y33322D1*
X4337Y33284D1*
X4270Y33246D1*
X4217Y33208D1*
X4179Y33170D1*
X4151Y33132D1*
X4131Y33094D1*
X4128Y33056D1*
X4135Y33018D1*
X4149Y32980D1*
X4169Y32942D1*
X4212Y32904D1*
X4341Y32866D1*
X4546Y32828D1*
X4798Y32790D1*
X5786Y34234D2*
X5709Y34196D1*
X5644Y34158D1*
X5595Y34120D1*
X5557Y34082D1*
X5526Y34044D1*
X5503Y34006D1*
X5486Y33968D1*
X5471Y33930D1*
X5459Y33892D1*
X5451Y33854D1*
X5447Y33816D1*
X5446Y33778D1*
X5445Y33740D1*
Y33702D1*
X5444Y33664D1*
Y33626D1*
Y33588D1*
Y33550D1*
Y33512D1*
Y33474D1*
Y33436D1*
Y33398D1*
Y33360D1*
Y33322D1*
Y33284D1*
Y33246D1*
Y33208D1*
Y33170D1*
Y33132D1*
Y33094D1*
Y33056D1*
Y33018D1*
Y32980D1*
Y32942D1*
Y32904D1*
Y32866D1*
Y32828D1*
Y32790D1*
Y32752D1*
Y32714D1*
Y32676D1*
X6128Y34234D2*
X6203Y34196D1*
X6273Y34158D1*
X6335Y34120D1*
X6391Y34082D1*
X6449Y34044D1*
X6508Y34006D1*
X6774Y34234D2*
X6706Y34196D1*
X6645Y34158D1*
X6593Y34120D1*
X6543Y34082D1*
X6489Y34044D1*
X6432Y34006D1*
X7116Y34234D2*
X7195Y34196D1*
X7263Y34158D1*
X7317Y34120D1*
X7357Y34082D1*
X7390Y34044D1*
X7420Y34006D1*
X8522Y34234D2*
X8445Y34196D1*
X8380Y34158D1*
X8331Y34120D1*
X8293Y34082D1*
X8262Y34044D1*
X8239Y34006D1*
X8222Y33968D1*
X8207Y33930D1*
X8195Y33892D1*
X8187Y33854D1*
X8183Y33816D1*
X8182Y33778D1*
X8181Y33740D1*
Y33702D1*
X8180Y33664D1*
Y33626D1*
Y33588D1*
Y33550D1*
Y33512D1*
Y33474D1*
Y33436D1*
Y33398D1*
Y33360D1*
Y33322D1*
Y33284D1*
Y33246D1*
Y33208D1*
Y33170D1*
Y33132D1*
Y33094D1*
Y33056D1*
Y33018D1*
Y32980D1*
Y32942D1*
Y32904D1*
Y32866D1*
Y32828D1*
Y32790D1*
Y32752D1*
Y32714D1*
Y32676D1*
X8864Y34234D2*
X8939Y34196D1*
X9009Y34158D1*
X9071Y34120D1*
X9127Y34082D1*
X9185Y34044D1*
X9244Y34006D1*
X9510Y34234D2*
X9442Y34196D1*
X9381Y34158D1*
X9329Y34120D1*
X9279Y34082D1*
X9225Y34044D1*
X9168Y34006D1*
X9852Y34234D2*
X9931Y34196D1*
X9999Y34158D1*
X10053Y34120D1*
X10093Y34082D1*
X10126Y34044D1*
X10156Y34006D1*
X11372Y34234D2*
X11285Y34196D1*
X11209Y34158D1*
X11144Y34120D1*
X11089Y34082D1*
X11045Y34044D1*
X11013Y34006D1*
X10987Y33968D1*
X10966Y33930D1*
X10946Y33892D1*
X10926Y33854D1*
X10908Y33816D1*
X10894Y33778D1*
X10884Y33740D1*
X10875Y33702D1*
X10864Y33664D1*
X10854Y33626D1*
X10847Y33588D1*
X10843Y33550D1*
X10841Y33512D1*
Y33474D1*
Y33436D1*
X10840Y33398D1*
X10841Y33360D1*
X10842Y33322D1*
X10847Y33284D1*
X10856Y33246D1*
X10866Y33208D1*
X10874Y33170D1*
X10882Y33132D1*
X10894Y33094D1*
X10910Y33056D1*
X10927Y33018D1*
X10945Y32980D1*
X10964Y32942D1*
X10985Y32904D1*
X11010Y32866D1*
X11044Y32828D1*
X11089Y32790D1*
X11142Y32752D1*
X11207Y32714D1*
X11286Y32676D1*
X11372Y32638D1*
X11714Y34234D2*
X11806Y34196D1*
X11887Y34158D1*
X11953Y34120D1*
X12006Y34082D1*
X12050Y34044D1*
X12086Y34006D1*
X12115Y33968D1*
X12138Y33930D1*
X12159Y33892D1*
X12178Y33854D1*
X12194Y33816D1*
X12207Y33778D1*
X12221Y33740D1*
X12232Y33702D1*
X12240Y33664D1*
X12244Y33626D1*
X12245Y33588D1*
X12246Y33550D1*
Y33512D1*
Y33474D1*
Y33436D1*
Y33398D1*
Y33360D1*
Y33322D1*
Y33284D1*
X12245Y33246D1*
X12240Y33208D1*
X12231Y33170D1*
X12220Y33132D1*
X12208Y33094D1*
X12194Y33056D1*
X12178Y33018D1*
X12160Y32980D1*
X12140Y32942D1*
X12116Y32904D1*
X12087Y32866D1*
X12052Y32828D1*
X12009Y32790D1*
X11955Y32752D1*
X11886Y32714D1*
X11804Y32676D1*
X11714Y32638D1*
X7496Y34196D2*
X7483Y34158D1*
X7470Y34120D1*
X7457Y34082D1*
X7440Y34044D1*
X7420Y34006D1*
X7648Y34196D2*
Y34158D1*
Y34120D1*
Y34082D1*
Y34044D1*
Y34006D1*
Y33968D1*
Y33930D1*
Y33892D1*
Y33854D1*
Y33816D1*
Y33778D1*
Y33740D1*
Y33702D1*
Y33664D1*
Y33626D1*
Y33588D1*
Y33550D1*
Y33512D1*
Y33474D1*
Y33436D1*
Y33398D1*
Y33360D1*
Y33322D1*
Y33284D1*
Y33246D1*
Y33208D1*
Y33170D1*
Y33132D1*
Y33094D1*
Y33056D1*
Y33018D1*
Y32980D1*
Y32942D1*
Y32904D1*
Y32866D1*
Y32828D1*
Y32790D1*
Y32752D1*
Y32714D1*
Y32676D1*
X10232Y34196D2*
X10219Y34158D1*
X10206Y34120D1*
X10193Y34082D1*
X10176Y34044D1*
X10156Y34006D1*
X10384Y34196D2*
Y34158D1*
Y34120D1*
Y34082D1*
Y34044D1*
Y34006D1*
Y33968D1*
Y33930D1*
Y33892D1*
Y33854D1*
Y33816D1*
Y33778D1*
Y33740D1*
Y33702D1*
Y33664D1*
Y33626D1*
Y33588D1*
Y33550D1*
Y33512D1*
Y33474D1*
Y33436D1*
Y33398D1*
Y33360D1*
Y33322D1*
Y33284D1*
Y33246D1*
Y33208D1*
Y33170D1*
Y33132D1*
Y33094D1*
Y33056D1*
Y33018D1*
Y32980D1*
Y32942D1*
Y32904D1*
Y32866D1*
Y32828D1*
Y32790D1*
Y32752D1*
Y32714D1*
Y32676D1*
X14564Y34196D2*
Y34158D1*
Y34120D1*
Y34082D1*
Y34044D1*
Y34006D1*
Y33968D1*
Y33930D1*
Y33892D1*
Y33854D1*
Y33816D1*
Y33778D1*
Y33740D1*
Y33702D1*
Y33664D1*
Y33626D1*
Y33588D1*
Y33550D1*
Y33512D1*
Y33474D1*
Y33436D1*
Y33398D1*
Y33360D1*
Y33322D1*
Y33284D1*
Y33246D1*
Y33208D1*
Y33170D1*
Y33132D1*
Y33094D1*
Y33056D1*
Y33018D1*
Y32980D1*
Y32942D1*
Y32904D1*
Y32866D1*
Y32828D1*
Y32790D1*
Y32752D1*
Y32714D1*
Y32676D1*
X14754Y34196D2*
Y34158D1*
Y34120D1*
Y34082D1*
Y34044D1*
Y34006D1*
Y33968D1*
Y33930D1*
Y33892D1*
Y33854D1*
Y33816D1*
Y33778D1*
Y33740D1*
Y33702D1*
Y33664D1*
Y33626D1*
Y33588D1*
Y33550D1*
Y33512D1*
Y33474D1*
Y33436D1*
Y33398D1*
Y33360D1*
Y33322D1*
Y33284D1*
Y33246D1*
Y33208D1*
Y33170D1*
Y33132D1*
Y33094D1*
Y33056D1*
Y33018D1*
Y32980D1*
Y32942D1*
Y32904D1*
Y32866D1*
Y32828D1*
Y32790D1*
Y32752D1*
Y32714D1*
Y32676D1*
X15096Y34196D2*
Y34158D1*
Y34120D1*
Y34082D1*
Y34044D1*
X17034Y34196D2*
Y34158D1*
Y34120D1*
Y34082D1*
Y34044D1*
Y34006D1*
Y33968D1*
Y33930D1*
Y33892D1*
Y33854D1*
Y33816D1*
Y33778D1*
Y33740D1*
Y33702D1*
Y33664D1*
Y33626D1*
Y33588D1*
Y33550D1*
Y33512D1*
Y33474D1*
Y33436D1*
Y33398D1*
Y33360D1*
Y33322D1*
Y33284D1*
Y33246D1*
Y33208D1*
Y33170D1*
Y33132D1*
Y33094D1*
Y33056D1*
Y33018D1*
Y32980D1*
Y32942D1*
Y32904D1*
Y32866D1*
Y32828D1*
Y32790D1*
Y32752D1*
Y32714D1*
Y32676D1*
X17262Y34196D2*
Y34158D1*
Y34120D1*
Y34082D1*
Y34044D1*
Y34006D1*
Y33968D1*
Y33930D1*
Y33892D1*
Y33854D1*
Y33816D1*
Y33778D1*
Y33740D1*
Y33702D1*
Y33664D1*
Y33626D1*
Y33588D1*
Y33550D1*
Y33512D1*
Y33474D1*
Y33436D1*
Y33398D1*
Y33360D1*
Y33322D1*
Y33284D1*
X17263Y33246D1*
X17264Y33208D1*
X17269Y33170D1*
X17278Y33132D1*
X17289Y33094D1*
X17302Y33056D1*
X17321Y33018D1*
X17348Y32980D1*
X17385Y32942D1*
X17430Y32904D1*
X17556Y32866D1*
X17748Y32828D1*
X17984Y32790D1*
X18098Y34196D2*
Y34158D1*
Y34120D1*
Y34082D1*
Y34044D1*
Y34006D1*
Y33968D1*
Y33930D1*
Y33892D1*
Y33854D1*
Y33816D1*
Y33778D1*
Y33740D1*
Y33702D1*
Y33664D1*
Y33626D1*
Y33588D1*
Y33550D1*
Y33512D1*
Y33474D1*
Y33436D1*
Y33398D1*
Y33360D1*
Y33322D1*
Y33284D1*
Y33246D1*
Y33208D1*
Y33170D1*
Y33132D1*
X18097Y33094D1*
X18092Y33056D1*
X18081Y33018D1*
X18065Y32980D1*
X18040Y32942D1*
X18006Y32904D1*
X17901Y32866D1*
X17735Y32828D1*
X17528Y32790D1*
X18326Y34196D2*
Y34158D1*
Y34120D1*
Y34082D1*
Y34044D1*
Y34006D1*
Y33968D1*
Y33930D1*
Y33892D1*
Y33854D1*
Y33816D1*
Y33778D1*
Y33740D1*
Y33702D1*
Y33664D1*
Y33626D1*
Y33588D1*
Y33550D1*
Y33512D1*
Y33474D1*
Y33436D1*
Y33398D1*
Y33360D1*
Y33322D1*
Y33284D1*
Y33246D1*
Y33208D1*
X18325Y33170D1*
X18320Y33132D1*
X18311Y33094D1*
X18301Y33056D1*
X18293Y33018D1*
X18285Y32980D1*
X18273Y32942D1*
X18257Y32904D1*
X18240Y32866D1*
X18220Y32828D1*
X18194Y32790D1*
X18157Y32752D1*
X18103Y32714D1*
X18029Y32676D1*
X17946Y32638D1*
X4418Y34082D2*
X4266Y34044D1*
X4114Y34006D1*
X4570Y34082D2*
X4643Y34044D1*
X4708Y34006D1*
X4758Y33968D1*
X4793Y33930D1*
X4818Y33892D1*
X4825Y33854D1*
X4816Y33816D1*
X4800Y33778D1*
X4778Y33740D1*
X4730Y33702D1*
X4669Y33664D1*
X4596Y33626D1*
X4513Y33588D1*
X4424Y33550D1*
X4334Y33512D1*
X4250Y33474D1*
X4177Y33436D1*
X4114Y33398D1*
X4063Y33360D1*
X4026Y33322D1*
X3997Y33284D1*
X3975Y33246D1*
X3955Y33208D1*
X3941Y33170D1*
X3932Y33132D1*
X3928Y33094D1*
X3927Y33056D1*
X3931Y33018D1*
X3940Y32980D1*
X3951Y32942D1*
X3964Y32904D1*
X3983Y32866D1*
X4010Y32828D1*
X4044Y32790D1*
X4089Y32752D1*
X4153Y32714D1*
X4241Y32676D1*
X4342Y32638D1*
X5900Y34082D2*
X5833Y34044D1*
X5778Y34006D1*
X5738Y33968D1*
X5710Y33930D1*
X5690Y33892D1*
X5675Y33854D1*
X5660Y33816D1*
X5649Y33778D1*
X5641Y33740D1*
X5637Y33702D1*
X5635Y33664D1*
Y33626D1*
Y33588D1*
X5634Y33550D1*
Y33512D1*
Y33474D1*
Y33436D1*
Y33398D1*
Y33360D1*
Y33322D1*
Y33284D1*
Y33246D1*
Y33208D1*
Y33170D1*
Y33132D1*
Y33094D1*
Y33056D1*
Y33018D1*
Y32980D1*
Y32942D1*
Y32904D1*
Y32866D1*
Y32828D1*
Y32790D1*
Y32752D1*
Y32714D1*
Y32676D1*
X6090Y34082D2*
X6165Y34044D1*
X6233Y34006D1*
X6289Y33968D1*
X6329Y33930D1*
X6358Y33892D1*
X6382Y33854D1*
X6401Y33816D1*
X6416Y33778D1*
X6425Y33740D1*
X6429Y33702D1*
X6431Y33664D1*
X6432Y33626D1*
Y33588D1*
Y33550D1*
Y33512D1*
Y33474D1*
Y33436D1*
Y33398D1*
Y33360D1*
Y33322D1*
Y33284D1*
Y33246D1*
Y33208D1*
Y33170D1*
Y33132D1*
Y33094D1*
Y33056D1*
Y33018D1*
Y32980D1*
Y32942D1*
Y32904D1*
Y32866D1*
Y32828D1*
Y32790D1*
Y32752D1*
Y32714D1*
Y32676D1*
X6926Y34082D2*
X6858Y34044D1*
X6799Y34006D1*
X6753Y33968D1*
X6720Y33930D1*
X6695Y33892D1*
X6678Y33854D1*
X6668Y33816D1*
X6664Y33778D1*
X6662Y33740D1*
X6661Y33702D1*
Y33664D1*
X6660Y33626D1*
Y33588D1*
Y33550D1*
Y33512D1*
Y33474D1*
Y33436D1*
Y33398D1*
Y33360D1*
Y33322D1*
Y33284D1*
Y33246D1*
Y33208D1*
Y33170D1*
Y33132D1*
Y33094D1*
Y33056D1*
Y33018D1*
Y32980D1*
Y32942D1*
Y32904D1*
Y32866D1*
Y32828D1*
Y32790D1*
Y32752D1*
Y32714D1*
Y32676D1*
X7040Y34082D2*
X7139Y34044D1*
X7222Y34006D1*
X7284Y33968D1*
X7329Y33930D1*
X7362Y33892D1*
X7386Y33854D1*
X7403Y33816D1*
X7412Y33778D1*
X7419Y33740D1*
X7425Y33702D1*
X7435Y33664D1*
X7445Y33626D1*
X7452Y33588D1*
X7456Y33550D1*
X7457Y33512D1*
X7458Y33474D1*
Y33436D1*
Y33398D1*
Y33360D1*
Y33322D1*
Y33284D1*
Y33246D1*
Y33208D1*
Y33170D1*
Y33132D1*
Y33094D1*
Y33056D1*
Y33018D1*
Y32980D1*
Y32942D1*
Y32904D1*
Y32866D1*
Y32828D1*
Y32790D1*
Y32752D1*
Y32714D1*
Y32676D1*
X8636Y34082D2*
X8569Y34044D1*
X8514Y34006D1*
X8474Y33968D1*
X8446Y33930D1*
X8426Y33892D1*
X8411Y33854D1*
X8396Y33816D1*
X8385Y33778D1*
X8377Y33740D1*
X8373Y33702D1*
X8371Y33664D1*
Y33626D1*
Y33588D1*
X8370Y33550D1*
Y33512D1*
Y33474D1*
Y33436D1*
Y33398D1*
Y33360D1*
Y33322D1*
Y33284D1*
Y33246D1*
Y33208D1*
Y33170D1*
Y33132D1*
Y33094D1*
Y33056D1*
Y33018D1*
Y32980D1*
Y32942D1*
Y32904D1*
Y32866D1*
Y32828D1*
Y32790D1*
Y32752D1*
Y32714D1*
Y32676D1*
X8826Y34082D2*
X8901Y34044D1*
X8969Y34006D1*
X9025Y33968D1*
X9065Y33930D1*
X9094Y33892D1*
X9118Y33854D1*
X9137Y33816D1*
X9152Y33778D1*
X9161Y33740D1*
X9165Y33702D1*
X9167Y33664D1*
X9168Y33626D1*
Y33588D1*
Y33550D1*
Y33512D1*
Y33474D1*
Y33436D1*
Y33398D1*
Y33360D1*
Y33322D1*
Y33284D1*
Y33246D1*
Y33208D1*
Y33170D1*
Y33132D1*
Y33094D1*
Y33056D1*
Y33018D1*
Y32980D1*
Y32942D1*
Y32904D1*
Y32866D1*
Y32828D1*
Y32790D1*
Y32752D1*
Y32714D1*
Y32676D1*
X9662Y34082D2*
X9594Y34044D1*
X9535Y34006D1*
X9489Y33968D1*
X9456Y33930D1*
X9431Y33892D1*
X9414Y33854D1*
X9404Y33816D1*
X9400Y33778D1*
X9398Y33740D1*
X9397Y33702D1*
Y33664D1*
X9396Y33626D1*
Y33588D1*
Y33550D1*
Y33512D1*
Y33474D1*
Y33436D1*
Y33398D1*
Y33360D1*
Y33322D1*
Y33284D1*
Y33246D1*
Y33208D1*
Y33170D1*
Y33132D1*
Y33094D1*
Y33056D1*
Y33018D1*
Y32980D1*
Y32942D1*
Y32904D1*
Y32866D1*
Y32828D1*
Y32790D1*
Y32752D1*
Y32714D1*
Y32676D1*
X9776Y34082D2*
X9875Y34044D1*
X9958Y34006D1*
X10020Y33968D1*
X10065Y33930D1*
X10098Y33892D1*
X10122Y33854D1*
X10139Y33816D1*
X10148Y33778D1*
X10155Y33740D1*
X10161Y33702D1*
X10171Y33664D1*
X10181Y33626D1*
X10188Y33588D1*
X10192Y33550D1*
X10193Y33512D1*
X10194Y33474D1*
Y33436D1*
Y33398D1*
Y33360D1*
Y33322D1*
Y33284D1*
Y33246D1*
Y33208D1*
Y33170D1*
Y33132D1*
Y33094D1*
Y33056D1*
Y33018D1*
Y32980D1*
Y32942D1*
Y32904D1*
Y32866D1*
Y32828D1*
Y32790D1*
Y32752D1*
Y32714D1*
Y32676D1*
X11448Y34082D2*
X11374Y34044D1*
X11306Y34006D1*
X11250Y33968D1*
X11209Y33930D1*
X11176Y33892D1*
X11148Y33854D1*
X11126Y33816D1*
X11110Y33778D1*
X11095Y33740D1*
X11083Y33702D1*
X11075Y33664D1*
X11071Y33626D1*
X11070Y33588D1*
X11069Y33550D1*
Y33512D1*
X11068Y33474D1*
Y33436D1*
Y33398D1*
Y33360D1*
Y33322D1*
X11069Y33284D1*
X11070Y33246D1*
X11075Y33208D1*
X11084Y33170D1*
X11095Y33132D1*
X11108Y33094D1*
X11126Y33056D1*
X11148Y33018D1*
X11173Y32980D1*
X11206Y32942D1*
X11250Y32904D1*
X11366Y32866D1*
X11540Y32828D1*
X11752Y32790D1*
X11600Y34082D2*
X11699Y34044D1*
X11782Y34006D1*
X11844Y33968D1*
X11889Y33930D1*
X11922Y33892D1*
X11947Y33854D1*
X11969Y33816D1*
X11988Y33778D1*
X12002Y33740D1*
X12012Y33702D1*
X12022Y33664D1*
X12033Y33626D1*
X12043Y33588D1*
X12050Y33550D1*
X12054Y33512D1*
X12055Y33474D1*
X12056Y33436D1*
Y33398D1*
X12055Y33360D1*
X12050Y33322D1*
X12041Y33284D1*
X12031Y33246D1*
X12023Y33208D1*
X12015Y33170D1*
X12003Y33132D1*
X11987Y33094D1*
X11970Y33056D1*
X11950Y33018D1*
X11925Y32980D1*
X11888Y32942D1*
X11827Y32904D1*
X11719Y32866D1*
X11546Y32828D1*
X11334Y32790D1*
X15552Y34044D2*
Y34006D1*
Y33968D1*
Y33930D1*
Y33892D1*
Y33854D1*
Y33816D1*
Y33778D1*
Y33740D1*
Y33702D1*
Y33664D1*
Y33626D1*
Y33588D1*
Y33550D1*
Y33512D1*
Y33474D1*
Y33436D1*
Y33398D1*
Y33360D1*
Y33322D1*
Y33284D1*
Y33246D1*
Y33208D1*
Y33170D1*
Y33132D1*
Y33094D1*
Y33056D1*
X15551Y33018D1*
X15544Y32980D1*
X15532Y32942D1*
X15498Y32904D1*
X15407Y32866D1*
X15267Y32828D1*
X15096Y32790D1*
X15099Y32752D1*
X15106Y32714D1*
X15136Y32676D1*
X15172Y32638D1*
X22810Y33664D2*
X22705Y33626D1*
X22614Y33588D1*
X22542Y33550D1*
X22490Y33512D1*
X22453Y33474D1*
X22428Y33436D1*
X22410Y33398D1*
X22401Y33360D1*
X22396Y33322D1*
X22394Y33284D1*
X22393Y33246D1*
X22394Y33208D1*
X22399Y33170D1*
X22409Y33132D1*
X22424Y33094D1*
X22441Y33056D1*
X22463Y33018D1*
X22494Y32980D1*
X22545Y32942D1*
X22619Y32904D1*
X22711Y32866D1*
X22810Y32828D1*
X23380Y33664D2*
Y33626D1*
Y33588D1*
Y33550D1*
Y33512D1*
Y33474D1*
Y33436D1*
Y33398D1*
Y33360D1*
Y33322D1*
Y33284D1*
Y33246D1*
Y33208D1*
Y33170D1*
Y33132D1*
Y33094D1*
Y33056D1*
Y33018D1*
Y32980D1*
Y32942D1*
Y32904D1*
Y32866D1*
Y32828D1*
X25280Y32942D2*
X25049Y32904D1*
X24736Y32866D1*
X24368Y32828D1*
X25318Y32942D2*
Y32904D1*
Y32866D1*
X25317Y32828D1*
X25313Y32790D1*
X25292Y32752D1*
X25227Y32714D1*
X25130Y32676D1*
X25014Y32638D1*
X4950Y32904D2*
X4773Y32866D1*
X4539Y32828D1*
X4266Y32790D1*
X5026Y32904D2*
Y32866D1*
X5025Y32828D1*
X5021Y32790D1*
X5000Y32752D1*
X4942Y32714D1*
X4858Y32676D1*
X4760Y32638D1*
X12626Y32904D2*
Y32866D1*
X12627Y32828D1*
X12630Y32790D1*
X12639Y32752D1*
X12681Y32714D1*
X12779Y32676D1*
X12892Y32638D1*
X12664Y32904D2*
X12854Y32866D1*
X13044Y32828D1*
X17224Y32866D2*
Y32828D1*
Y32790D1*
Y32752D1*
Y32714D1*
Y32676D1*
X17262Y32866D2*
X17301Y32828D1*
X17340Y32790D1*
X17386Y32752D1*
X17445Y32714D1*
X17520Y32676D1*
X17604Y32638D1*
X19127Y31622D2*
Y31584D1*
Y31546D1*
Y31508D1*
Y31470D1*
Y31432D1*
Y31394D1*
Y31356D1*
Y31318D1*
Y31280D1*
Y31242D1*
Y31204D1*
Y31166D1*
Y31128D1*
Y31090D1*
Y31052D1*
Y31014D1*
Y30976D1*
Y30938D1*
Y30900D1*
Y30862D1*
Y30824D1*
Y30786D1*
Y30748D1*
Y30710D1*
Y30672D1*
Y30634D1*
Y30596D1*
Y30558D1*
Y30520D1*
Y30482D1*
Y30444D1*
Y30406D1*
Y30368D1*
Y30330D1*
Y30292D1*
Y30254D1*
Y30216D1*
Y30178D1*
Y30140D1*
Y30102D1*
Y30064D1*
Y30026D1*
Y29988D1*
Y29950D1*
Y29912D1*
Y29874D1*
Y29836D1*
Y29798D1*
Y29760D1*
Y29722D1*
Y29684D1*
X19203Y31622D2*
Y31584D1*
Y31546D1*
Y31508D1*
Y31470D1*
Y31432D1*
Y31394D1*
Y31356D1*
Y31318D1*
Y31280D1*
Y31242D1*
Y31204D1*
Y31166D1*
Y31128D1*
Y31090D1*
Y31052D1*
X19204Y31014D1*
X19205Y30976D1*
X19211Y30938D1*
X19224Y30900D1*
X19241Y30862D1*
X24257Y31622D2*
Y31584D1*
Y31546D1*
Y31508D1*
Y31470D1*
Y31432D1*
Y31394D1*
Y31356D1*
Y31318D1*
Y31280D1*
Y31242D1*
Y31204D1*
Y31166D1*
Y31128D1*
Y31090D1*
Y31052D1*
Y31014D1*
Y30976D1*
Y30938D1*
Y30900D1*
Y30862D1*
Y30824D1*
Y30786D1*
Y30748D1*
Y30710D1*
Y30672D1*
Y30634D1*
Y30596D1*
Y30558D1*
Y30520D1*
Y30482D1*
Y30444D1*
Y30406D1*
Y30368D1*
Y30330D1*
Y30292D1*
Y30254D1*
Y30216D1*
Y30178D1*
Y30140D1*
Y30102D1*
Y30064D1*
Y30026D1*
Y29988D1*
Y29950D1*
Y29912D1*
Y29874D1*
Y29836D1*
Y29798D1*
Y29760D1*
Y29722D1*
Y29684D1*
X24371Y31622D2*
Y31584D1*
Y31546D1*
Y31508D1*
Y31470D1*
Y31432D1*
Y31394D1*
Y31356D1*
Y31318D1*
Y31280D1*
Y31242D1*
Y31204D1*
Y31166D1*
Y31128D1*
Y31090D1*
Y31052D1*
Y31014D1*
Y30976D1*
Y30938D1*
Y30900D1*
Y30862D1*
Y30824D1*
Y30786D1*
Y30748D1*
Y30710D1*
Y30672D1*
Y30634D1*
Y30596D1*
Y30558D1*
Y30520D1*
Y30482D1*
Y30444D1*
Y30406D1*
Y30368D1*
Y30330D1*
Y30292D1*
Y30254D1*
Y30216D1*
Y30178D1*
Y30140D1*
Y30102D1*
Y30064D1*
Y30026D1*
Y29988D1*
Y29950D1*
Y29912D1*
Y29874D1*
Y29836D1*
Y29798D1*
Y29760D1*
Y29722D1*
Y29684D1*
X11907Y31508D2*
Y31470D1*
Y31432D1*
X13199Y31508D2*
Y31470D1*
Y31432D1*
X13845Y31508D2*
X13742Y31470D1*
X13660Y31432D1*
X13598Y31394D1*
X13551Y31356D1*
X13514Y31318D1*
X13488Y31280D1*
X13470Y31242D1*
X13454Y31204D1*
X13442Y31166D1*
X13434Y31128D1*
X13430Y31090D1*
X13429Y31052D1*
X13428Y31014D1*
Y30976D1*
X13429Y30938D1*
X13434Y30900D1*
X13443Y30862D1*
X13454Y30824D1*
X13467Y30786D1*
X13486Y30748D1*
X13513Y30710D1*
X13546Y30672D1*
X13583Y30634D1*
X13626Y30596D1*
X13679Y30558D1*
X13741Y30520D1*
X13807Y30482D1*
X13783Y30444D1*
X13757Y30406D1*
X13731Y30368D1*
X13708Y30330D1*
X13686Y30292D1*
X13664Y30254D1*
X13641Y30216D1*
X13617Y30178D1*
X13593Y30140D1*
X13572Y30102D1*
X13552Y30064D1*
X13532Y30026D1*
X13512Y29988D1*
X13489Y29950D1*
X13464Y29912D1*
X13441Y29874D1*
X13420Y29836D1*
X13398Y29798D1*
X13374Y29760D1*
X13345Y29722D1*
X13313Y29684D1*
X14491Y31508D2*
Y31470D1*
Y31432D1*
Y31394D1*
Y31356D1*
Y31318D1*
Y31280D1*
Y31242D1*
Y31204D1*
Y31166D1*
Y31128D1*
Y31090D1*
Y31052D1*
Y31014D1*
Y30976D1*
Y30938D1*
Y30900D1*
Y30862D1*
Y30824D1*
Y30786D1*
Y30748D1*
Y30710D1*
Y30672D1*
Y30634D1*
Y30596D1*
Y30558D1*
Y30520D1*
Y30482D1*
Y30444D1*
Y30406D1*
Y30368D1*
Y30330D1*
Y30292D1*
Y30254D1*
Y30216D1*
Y30178D1*
Y30140D1*
Y30102D1*
Y30064D1*
Y30026D1*
Y29988D1*
Y29950D1*
Y29912D1*
Y29874D1*
Y29836D1*
Y29798D1*
Y29760D1*
Y29722D1*
Y29684D1*
X15517Y31508D2*
X15494Y31470D1*
X15474Y31432D1*
X15457Y31394D1*
X15443Y31356D1*
X15428Y31318D1*
X15411Y31280D1*
X15395Y31242D1*
X15380Y31204D1*
X15366Y31166D1*
X15353Y31128D1*
X15340Y31090D1*
X15328Y31052D1*
X15313Y31014D1*
X15297Y30976D1*
X15280Y30938D1*
X15266Y30900D1*
X15252Y30862D1*
X15238Y30824D1*
X15221Y30786D1*
X15205Y30748D1*
X15190Y30710D1*
X15176Y30672D1*
X15162Y30634D1*
X15145Y30596D1*
X15129Y30558D1*
X15114Y30520D1*
X15100Y30482D1*
X15086Y30444D1*
X15069Y30406D1*
X15053Y30368D1*
X15038Y30330D1*
X15024Y30292D1*
X15010Y30254D1*
X14993Y30216D1*
X14977Y30178D1*
X14962Y30140D1*
X14948Y30102D1*
X14935Y30064D1*
X14922Y30026D1*
X14910Y29988D1*
X14895Y29950D1*
X14879Y29912D1*
X14862Y29874D1*
X14848Y29836D1*
X14834Y29798D1*
X14821Y29760D1*
X14807Y29722D1*
X14795Y29684D1*
X15555Y31508D2*
X15579Y31470D1*
X15599Y31432D1*
X15616Y31394D1*
X15630Y31356D1*
X15645Y31318D1*
X15662Y31280D1*
X15678Y31242D1*
X15693Y31204D1*
X15707Y31166D1*
X15721Y31128D1*
X15738Y31090D1*
X15754Y31052D1*
X15769Y31014D1*
X15783Y30976D1*
X15797Y30938D1*
X15814Y30900D1*
X15830Y30862D1*
X15845Y30824D1*
X15859Y30786D1*
X15873Y30748D1*
X15890Y30710D1*
X15906Y30672D1*
X15921Y30634D1*
X15935Y30596D1*
X15949Y30558D1*
X15966Y30520D1*
X15982Y30482D1*
X15997Y30444D1*
X16011Y30406D1*
X16025Y30368D1*
X16042Y30330D1*
X16058Y30292D1*
X16073Y30254D1*
X16087Y30216D1*
X16101Y30178D1*
X16118Y30140D1*
X16134Y30102D1*
X16149Y30064D1*
X16163Y30026D1*
X16177Y29988D1*
X16194Y29950D1*
X16210Y29912D1*
X16225Y29874D1*
X16239Y29836D1*
X16253Y29798D1*
X16271Y29760D1*
X16292Y29722D1*
X16315Y29684D1*
X16581Y31508D2*
Y31470D1*
Y31432D1*
Y31394D1*
Y31356D1*
Y31318D1*
Y31280D1*
Y31242D1*
Y31204D1*
Y31166D1*
Y31128D1*
Y31090D1*
Y31052D1*
Y31014D1*
Y30976D1*
Y30938D1*
Y30900D1*
Y30862D1*
Y30824D1*
Y30786D1*
Y30748D1*
Y30710D1*
Y30672D1*
Y30634D1*
Y30596D1*
Y30558D1*
Y30520D1*
Y30482D1*
Y30444D1*
Y30406D1*
Y30368D1*
Y30330D1*
Y30292D1*
X16582Y30254D1*
X16583Y30216D1*
X16588Y30178D1*
X16597Y30140D1*
X16608Y30102D1*
X16620Y30064D1*
X16634Y30026D1*
X16650Y29988D1*
X16668Y29950D1*
X16688Y29912D1*
X16712Y29874D1*
X16743Y29836D1*
X16783Y29798D1*
X16836Y29760D1*
X16904Y29722D1*
X16986Y29684D1*
X17075Y29646D1*
X16657Y31508D2*
Y31470D1*
Y31432D1*
Y31394D1*
Y31356D1*
Y31318D1*
Y31280D1*
Y31242D1*
Y31204D1*
Y31166D1*
Y31128D1*
Y31090D1*
Y31052D1*
Y31014D1*
Y30976D1*
Y30938D1*
Y30900D1*
Y30862D1*
Y30824D1*
Y30786D1*
Y30748D1*
Y30710D1*
Y30672D1*
Y30634D1*
Y30596D1*
Y30558D1*
Y30520D1*
Y30482D1*
Y30444D1*
Y30406D1*
X16658Y30368D1*
X16659Y30330D1*
X16664Y30292D1*
X16673Y30254D1*
X16683Y30216D1*
X16689Y30178D1*
X16694Y30140D1*
X16701Y30102D1*
X16712Y30064D1*
X16728Y30026D1*
X16751Y29988D1*
X16779Y29950D1*
X16814Y29912D1*
X16858Y29874D1*
X16925Y29836D1*
X17047Y29798D1*
X17246Y29760D1*
X17493Y29722D1*
X17835Y31508D2*
Y31470D1*
Y31432D1*
Y31394D1*
Y31356D1*
Y31318D1*
Y31280D1*
Y31242D1*
Y31204D1*
Y31166D1*
Y31128D1*
Y31090D1*
Y31052D1*
Y31014D1*
Y30976D1*
Y30938D1*
Y30900D1*
Y30862D1*
Y30824D1*
Y30786D1*
Y30748D1*
Y30710D1*
Y30672D1*
Y30634D1*
Y30596D1*
Y30558D1*
Y30520D1*
Y30482D1*
Y30444D1*
Y30406D1*
Y30368D1*
Y30330D1*
Y30292D1*
X17834Y30254D1*
X17829Y30216D1*
X17820Y30178D1*
X17809Y30140D1*
X17797Y30102D1*
X17783Y30064D1*
X17765Y30026D1*
X17743Y29988D1*
X17714Y29950D1*
X17679Y29912D1*
X17635Y29874D1*
X17568Y29836D1*
X17446Y29798D1*
X17247Y29760D1*
X16999Y29722D1*
X17911Y31508D2*
Y31470D1*
Y31432D1*
Y31394D1*
Y31356D1*
Y31318D1*
Y31280D1*
Y31242D1*
Y31204D1*
Y31166D1*
Y31128D1*
Y31090D1*
Y31052D1*
Y31014D1*
Y30976D1*
Y30938D1*
Y30900D1*
Y30862D1*
Y30824D1*
Y30786D1*
Y30748D1*
Y30710D1*
Y30672D1*
Y30634D1*
Y30596D1*
Y30558D1*
Y30520D1*
Y30482D1*
Y30444D1*
Y30406D1*
Y30368D1*
Y30330D1*
Y30292D1*
Y30254D1*
Y30216D1*
Y30178D1*
X17910Y30140D1*
X17905Y30102D1*
X17895Y30064D1*
X17880Y30026D1*
X17863Y29988D1*
X17843Y29950D1*
X17819Y29912D1*
X17790Y29874D1*
X17756Y29836D1*
X17718Y29798D1*
X17673Y29760D1*
X17615Y29722D1*
X17539Y29684D1*
X17455Y29646D1*
X27601Y31508D2*
Y31470D1*
Y31432D1*
Y31394D1*
Y31356D1*
Y31318D1*
Y31280D1*
Y31242D1*
Y31204D1*
Y31166D1*
Y31128D1*
Y31090D1*
Y31052D1*
Y31014D1*
Y30976D1*
Y30938D1*
Y30900D1*
Y30862D1*
Y30824D1*
Y30786D1*
Y30748D1*
Y30710D1*
Y30672D1*
Y30634D1*
Y30596D1*
Y30558D1*
Y30520D1*
Y30482D1*
Y30444D1*
Y30406D1*
Y30368D1*
Y30330D1*
Y30292D1*
Y30254D1*
Y30216D1*
Y30178D1*
Y30140D1*
Y30102D1*
Y30064D1*
Y30026D1*
Y29988D1*
Y29950D1*
Y29912D1*
Y29874D1*
Y29836D1*
Y29798D1*
Y29760D1*
Y29722D1*
Y29684D1*
X27715Y31508D2*
Y31470D1*
Y31432D1*
Y31394D1*
Y31356D1*
Y31318D1*
Y31280D1*
Y31242D1*
Y31204D1*
Y31166D1*
Y31128D1*
Y31090D1*
Y31052D1*
Y31014D1*
Y30976D1*
Y30938D1*
Y30900D1*
Y30862D1*
Y30824D1*
Y30786D1*
Y30748D1*
Y30710D1*
Y30672D1*
Y30634D1*
Y30596D1*
Y30558D1*
Y30520D1*
Y30482D1*
Y30444D1*
Y30406D1*
Y30368D1*
Y30330D1*
Y30292D1*
Y30254D1*
Y30216D1*
Y30178D1*
Y30140D1*
Y30102D1*
Y30064D1*
Y30026D1*
Y29988D1*
Y29950D1*
Y29912D1*
Y29874D1*
Y29836D1*
Y29798D1*
Y29760D1*
Y29722D1*
Y29684D1*
X12515Y31432D2*
Y31394D1*
Y31356D1*
Y31318D1*
Y31280D1*
Y31242D1*
Y31204D1*
Y31166D1*
Y31128D1*
Y31090D1*
Y31052D1*
Y31014D1*
Y30976D1*
Y30938D1*
Y30900D1*
Y30862D1*
Y30824D1*
Y30786D1*
Y30748D1*
Y30710D1*
Y30672D1*
Y30634D1*
Y30596D1*
Y30558D1*
Y30520D1*
Y30482D1*
Y30444D1*
Y30406D1*
Y30368D1*
Y30330D1*
Y30292D1*
Y30254D1*
Y30216D1*
Y30178D1*
Y30140D1*
Y30102D1*
Y30064D1*
Y30026D1*
Y29988D1*
Y29950D1*
Y29912D1*
Y29874D1*
Y29836D1*
Y29798D1*
Y29760D1*
Y29722D1*
Y29684D1*
X12591Y31432D2*
Y31394D1*
Y31356D1*
Y31318D1*
Y31280D1*
Y31242D1*
Y31204D1*
Y31166D1*
Y31128D1*
Y31090D1*
Y31052D1*
Y31014D1*
Y30976D1*
Y30938D1*
Y30900D1*
Y30862D1*
Y30824D1*
Y30786D1*
Y30748D1*
Y30710D1*
Y30672D1*
Y30634D1*
Y30596D1*
Y30558D1*
Y30520D1*
Y30482D1*
Y30444D1*
Y30406D1*
Y30368D1*
Y30330D1*
Y30292D1*
Y30254D1*
Y30216D1*
Y30178D1*
Y30140D1*
Y30102D1*
Y30064D1*
Y30026D1*
Y29988D1*
Y29950D1*
Y29912D1*
Y29874D1*
Y29836D1*
Y29798D1*
Y29760D1*
Y29722D1*
Y29684D1*
X13959Y31432D2*
X13854Y31394D1*
X13763Y31356D1*
X13691Y31318D1*
X13639Y31280D1*
X13603Y31242D1*
X13577Y31204D1*
X13559Y31166D1*
X13550Y31128D1*
X13545Y31090D1*
X13543Y31052D1*
X13542Y31014D1*
Y30976D1*
Y30938D1*
X13543Y30900D1*
X13548Y30862D1*
X13558Y30824D1*
X13575Y30786D1*
X13598Y30748D1*
X13635Y30710D1*
X13690Y30672D1*
X13766Y30634D1*
X13859Y30596D1*
X13959Y30558D1*
X14377Y31432D2*
Y31394D1*
Y31356D1*
Y31318D1*
Y31280D1*
Y31242D1*
Y31204D1*
Y31166D1*
Y31128D1*
Y31090D1*
Y31052D1*
Y31014D1*
Y30976D1*
Y30938D1*
Y30900D1*
Y30862D1*
Y30824D1*
Y30786D1*
Y30748D1*
Y30710D1*
Y30672D1*
Y30634D1*
Y30596D1*
Y30558D1*
X22319Y31356D2*
Y31318D1*
Y31280D1*
Y31242D1*
Y31204D1*
Y31166D1*
Y31128D1*
Y31090D1*
Y31052D1*
Y31014D1*
X21901D1*
Y30976D1*
Y30938D1*
Y30900D1*
X22319D1*
Y30862D1*
Y30824D1*
Y30786D1*
Y30748D1*
Y30710D1*
Y30672D1*
Y30634D1*
Y30596D1*
Y30558D1*
Y30520D1*
Y30482D1*
Y30444D1*
Y30406D1*
Y30368D1*
Y30330D1*
Y30292D1*
Y30254D1*
Y30216D1*
Y30178D1*
Y30140D1*
Y30102D1*
Y30064D1*
Y30026D1*
X22318Y29988D1*
X22313Y29950D1*
X22302Y29912D1*
X22285Y29874D1*
X22262Y29836D1*
X22178Y29798D1*
X22039Y29760D1*
X21863Y29722D1*
X21881Y29684D1*
X21901Y29646D1*
X22357Y31356D2*
X22363Y31318D1*
X22373Y31280D1*
X22383Y31242D1*
X22389Y31204D1*
X22395Y31166D1*
X22401Y31128D1*
X22425Y31090D1*
X22478Y31052D1*
X22533Y31014D1*
X22583Y30976D1*
X22606Y30938D1*
X22623Y30900D1*
X22433D1*
Y30862D1*
Y30824D1*
Y30786D1*
Y30748D1*
Y30710D1*
Y30672D1*
Y30634D1*
Y30596D1*
Y30558D1*
Y30520D1*
Y30482D1*
Y30444D1*
Y30406D1*
Y30368D1*
Y30330D1*
Y30292D1*
Y30254D1*
Y30216D1*
Y30178D1*
Y30140D1*
X22432Y30102D1*
X22427Y30064D1*
X22418Y30026D1*
X22408Y29988D1*
X22401Y29950D1*
X22397Y29912D1*
X22390Y29874D1*
X22379Y29836D1*
X22362Y29798D1*
X22339Y29760D1*
X22304Y29722D1*
X22258Y29684D1*
X22205Y29646D1*
X15479Y31280D2*
X15478Y31242D1*
X15473Y31204D1*
X15464Y31166D1*
X15453Y31128D1*
X15441Y31090D1*
X15429Y31052D1*
X15416Y31014D1*
X15404Y30976D1*
X15389Y30938D1*
X15373Y30900D1*
X15356Y30862D1*
X15342Y30824D1*
X15328Y30786D1*
X15315Y30748D1*
X15302Y30710D1*
X15290Y30672D1*
X15275Y30634D1*
X15259Y30596D1*
X15243Y30558D1*
X15229Y30520D1*
X15221Y30482D1*
X15216Y30444D1*
X15213Y30406D1*
X15593Y31280D2*
X15595Y31242D1*
X15600Y31204D1*
X15609Y31166D1*
X15620Y31128D1*
X15632Y31090D1*
X15646Y31052D1*
X15662Y31014D1*
X15678Y30976D1*
X15693Y30938D1*
X15707Y30900D1*
X15721Y30862D1*
X15738Y30824D1*
X15754Y30786D1*
X15769Y30748D1*
X15782Y30710D1*
X15796Y30672D1*
X15809Y30634D1*
X15821Y30596D1*
X15836Y30558D1*
X15853Y30520D1*
X15876Y30482D1*
X15904Y30444D1*
X15935Y30406D1*
X19507Y31052D2*
X19439Y31014D1*
X19377Y30976D1*
X19320Y30938D1*
X19263Y30900D1*
X19203Y30862D1*
X19811Y31052D2*
X19890Y31014D1*
X19958Y30976D1*
X20012Y30938D1*
X20052Y30900D1*
X20085Y30862D1*
X20112Y30824D1*
X20134Y30786D1*
X20150Y30748D1*
X20165Y30710D1*
X20177Y30672D1*
X20186Y30634D1*
X20195Y30596D1*
X20206Y30558D1*
X20216Y30520D1*
X20223Y30482D1*
X20227Y30444D1*
X20228Y30406D1*
X20229Y30368D1*
Y30330D1*
Y30292D1*
X20228Y30254D1*
X20223Y30216D1*
X20214Y30178D1*
X20204Y30140D1*
X20197Y30102D1*
X20193Y30064D1*
X20186Y30026D1*
X20175Y29988D1*
X20160Y29950D1*
X20143Y29912D1*
X20123Y29874D1*
X20099Y29836D1*
X20068Y29798D1*
X20027Y29760D1*
X19969Y29722D1*
X19895Y29684D1*
X19811Y29646D1*
X20913Y31052D2*
X20845Y31014D1*
X20785Y30976D1*
X20735Y30938D1*
X20696Y30900D1*
X20666Y30862D1*
X20642Y30824D1*
X20621Y30786D1*
X20602Y30748D1*
X20588Y30710D1*
X20579Y30672D1*
X20574Y30634D1*
X20571Y30596D1*
X20566Y30558D1*
X20556Y30520D1*
X20546Y30482D1*
X20540Y30444D1*
X20536Y30406D1*
X20533Y30368D1*
X21179Y31052D2*
X21266Y31014D1*
X21337Y30976D1*
X21393Y30938D1*
X21438Y30900D1*
X21475Y30862D1*
X21504Y30824D1*
X21526Y30786D1*
X21544Y30748D1*
X21558Y30710D1*
X21572Y30672D1*
X21583Y30634D1*
X21592Y30596D1*
X21601Y30558D1*
X21612Y30520D1*
X21622Y30482D1*
X21629Y30444D1*
X21633Y30406D1*
X21634Y30368D1*
X21635Y30330D1*
Y30292D1*
X21634Y30254D1*
X21629Y30216D1*
X21620Y30178D1*
X21610Y30140D1*
X21602Y30102D1*
X21594Y30064D1*
X21582Y30026D1*
X21566Y29988D1*
X21549Y29950D1*
X21529Y29912D1*
X21505Y29874D1*
X21476Y29836D1*
X21441Y29798D1*
X21397Y29760D1*
X21338Y29722D1*
X21263Y29684D1*
X21179Y29646D1*
X23193Y31052D2*
X23120Y31014D1*
X23062Y30976D1*
X23018Y30938D1*
X22986Y30900D1*
X22962Y30862D1*
X22944Y30824D1*
X22929Y30786D1*
X22915Y30748D1*
X22904Y30710D1*
X22896Y30672D1*
X22892Y30634D1*
X22891Y30596D1*
X22890Y30558D1*
Y30520D1*
X22889Y30482D1*
Y30444D1*
Y30406D1*
Y30368D1*
Y30330D1*
Y30292D1*
Y30254D1*
Y30216D1*
Y30178D1*
Y30140D1*
Y30102D1*
Y30064D1*
Y30026D1*
Y29988D1*
Y29950D1*
Y29912D1*
Y29874D1*
Y29836D1*
Y29798D1*
Y29760D1*
Y29722D1*
Y29684D1*
X23497Y31052D2*
X23602Y31014D1*
X23688Y30976D1*
X23763Y30938D1*
X23725Y30900D1*
X25207Y31052D2*
X25128Y31014D1*
X25059Y30976D1*
X25002Y30938D1*
X24957Y30900D1*
X24924Y30862D1*
X24899Y30824D1*
X24877Y30786D1*
X24857Y30748D1*
X24837Y30710D1*
X24820Y30672D1*
X24805Y30634D1*
X24797Y30596D1*
X24793Y30558D1*
X24791Y30520D1*
X24790Y30482D1*
Y30444D1*
X24789Y30406D1*
Y30368D1*
Y30330D1*
Y30292D1*
Y30254D1*
Y30216D1*
X24790Y30178D1*
X24791Y30140D1*
X24796Y30102D1*
X24806Y30064D1*
X24821Y30026D1*
X24838Y29988D1*
X24856Y29950D1*
X24875Y29912D1*
X24896Y29874D1*
X24921Y29836D1*
X24955Y29798D1*
X25001Y29760D1*
X25059Y29722D1*
X25129Y29684D1*
X25207Y29646D1*
X25511Y31052D2*
X25598Y31014D1*
X25669Y30976D1*
X25725Y30938D1*
X25770Y30900D1*
X25807Y30862D1*
X25836Y30824D1*
X25860Y30786D1*
X25880Y30748D1*
X25899Y30710D1*
X25913Y30672D1*
X25922Y30634D1*
X25928Y30596D1*
X25935Y30558D1*
X25944Y30520D1*
X25954Y30482D1*
X25961Y30444D1*
X25965Y30406D1*
X25966Y30368D1*
X25967Y30330D1*
X25966Y30292D1*
X25961Y30254D1*
X25952Y30216D1*
X25942Y30178D1*
X25934Y30140D1*
X25926Y30102D1*
X25915Y30064D1*
X25903Y30026D1*
X25890Y29988D1*
X25872Y29950D1*
X25850Y29912D1*
X25827Y29874D1*
X25801Y29836D1*
X25769Y29798D1*
X25727Y29760D1*
X25670Y29722D1*
X25595Y29684D1*
X25511Y29646D1*
X26499Y31052D2*
X26414Y31014D1*
X26342Y30976D1*
Y30938D1*
X26347Y30900D1*
X26879Y31052D2*
X26965Y31014D1*
X27035Y30976D1*
X27086Y30938D1*
X27122Y30900D1*
X27148Y30862D1*
X27165Y30824D1*
X27175Y30786D1*
X27180Y30748D1*
X27181Y30710D1*
X27176Y30672D1*
X27166Y30634D1*
X27150Y30596D1*
X27128Y30558D1*
X27098Y30520D1*
X27058Y30482D1*
X27005Y30444D1*
X26937Y30406D1*
X26853Y30368D1*
X26761Y30330D1*
X26671Y30292D1*
X26592Y30254D1*
X26527Y30216D1*
X26475Y30178D1*
X26435Y30140D1*
X26404Y30102D1*
X26381Y30064D1*
X26363Y30026D1*
X26361Y29988D1*
X26368Y29950D1*
X26383Y29912D1*
X26406Y29874D1*
X26469Y29836D1*
X26588Y29798D1*
X26785Y29760D1*
X27031Y29722D1*
X19621Y30976D2*
X19522Y30938D1*
X19440Y30900D1*
X19378Y30862D1*
X19333Y30824D1*
X19300Y30786D1*
X19276Y30748D1*
X19258Y30710D1*
X19243Y30672D1*
X19229Y30634D1*
X19218Y30596D1*
X19210Y30558D1*
X19206Y30520D1*
X19205Y30482D1*
X19204Y30444D1*
Y30406D1*
X19203Y30368D1*
Y30330D1*
Y30292D1*
Y30254D1*
X19204Y30216D1*
X19205Y30178D1*
X19210Y30140D1*
X19219Y30102D1*
X19230Y30064D1*
X19242Y30026D1*
X19256Y29988D1*
X19273Y29950D1*
X19297Y29912D1*
X19329Y29874D1*
X19372Y29836D1*
X19490Y29798D1*
X19669Y29760D1*
X19887Y29722D1*
X19735Y30976D2*
X19810Y30938D1*
X19878Y30900D1*
X19934Y30862D1*
X19975Y30824D1*
X20008Y30786D1*
X20036Y30748D1*
X20058Y30710D1*
X20074Y30672D1*
X20089Y30634D1*
X20101Y30596D1*
X20109Y30558D1*
X20113Y30520D1*
X20114Y30482D1*
X20115Y30444D1*
Y30406D1*
Y30368D1*
Y30330D1*
Y30292D1*
Y30254D1*
Y30216D1*
X20114Y30178D1*
X20109Y30140D1*
X20100Y30102D1*
X20089Y30064D1*
X20077Y30026D1*
X20063Y29988D1*
X20045Y29950D1*
X20022Y29912D1*
X19989Y29874D1*
X19947Y29836D1*
X19829Y29798D1*
X19650Y29760D1*
X19431Y29722D1*
X20989Y30976D2*
X20921Y30938D1*
X20861Y30900D1*
X20811Y30862D1*
X20772Y30824D1*
X20742Y30786D1*
X20719Y30748D1*
X20701Y30710D1*
X20687Y30672D1*
X20673Y30634D1*
X20662Y30596D1*
X20654Y30558D1*
X20650Y30520D1*
X20648Y30482D1*
X20647Y30444D1*
X21141Y30976D2*
X21210Y30938D1*
X21270Y30900D1*
X21321Y30862D1*
X21364Y30824D1*
X21399Y30786D1*
X21428Y30748D1*
X21450Y30710D1*
X21468Y30672D1*
X21482Y30634D1*
X21496Y30596D1*
X21507Y30558D1*
X21515Y30520D1*
X21519Y30482D1*
X21521Y30444D1*
X23269Y30976D2*
X23201Y30938D1*
X23141Y30900D1*
X23092Y30862D1*
X23054Y30824D1*
X23024Y30786D1*
X23013Y30748D1*
X23006Y30710D1*
X22999Y30672D1*
X22989Y30634D1*
X22978Y30596D1*
X22972Y30558D1*
X22968Y30520D1*
X22965Y30482D1*
X23243Y30444D1*
X23455Y30406D1*
X23600Y30368D1*
X23695Y30330D1*
X23757Y30292D1*
X23801Y30254D1*
X23833Y30216D1*
X23855Y30178D1*
X23867Y30140D1*
X23873Y30102D1*
X23876Y30064D1*
X23877Y30026D1*
Y29988D1*
Y29950D1*
X23876Y29912D1*
X23869Y29874D1*
X23854Y29836D1*
X23829Y29798D1*
X23794Y29760D1*
X23747Y29722D1*
X23684Y29684D1*
X23611Y29646D1*
X23345Y30976D2*
X23497Y30938D1*
X23649Y30900D1*
X25283Y30976D2*
X25209Y30938D1*
X25140Y30900D1*
X25080Y30862D1*
X25034Y30824D1*
X25001Y30786D1*
X24975Y30748D1*
X24953Y30710D1*
X24934Y30672D1*
X24918Y30634D1*
X24905Y30596D1*
X24891Y30558D1*
X24879Y30520D1*
X24872Y30482D1*
X24868Y30444D1*
X24867Y30406D1*
X24866Y30368D1*
Y30330D1*
Y30292D1*
X24867Y30254D1*
X24872Y30216D1*
X24881Y30178D1*
X24892Y30140D1*
X24904Y30102D1*
X24918Y30064D1*
X24934Y30026D1*
X24952Y29988D1*
X24972Y29950D1*
X24997Y29912D1*
X25034Y29874D1*
X25093Y29836D1*
X25195Y29798D1*
X25355Y29760D1*
X25549Y29722D1*
X25397Y30976D2*
X25496Y30938D1*
X25579Y30900D1*
X25642Y30862D1*
X25691Y30824D1*
X25730Y30786D1*
X25759Y30748D1*
X25782Y30710D1*
X25800Y30672D1*
X25814Y30634D1*
X25828Y30596D1*
X25839Y30558D1*
X25847Y30520D1*
X25851Y30482D1*
X25852Y30444D1*
X25853Y30406D1*
Y30368D1*
Y30330D1*
Y30292D1*
Y30254D1*
X25852Y30216D1*
X25847Y30178D1*
X25838Y30140D1*
X25827Y30102D1*
X25815Y30064D1*
X25801Y30026D1*
X25783Y29988D1*
X25761Y29950D1*
X25731Y29912D1*
X25694Y29874D1*
X25648Y29836D1*
X25529Y29798D1*
X25350Y29760D1*
X25131Y29722D1*
X26613Y30976D2*
X26499Y30938D1*
X26385Y30900D1*
X26765Y30976D2*
X26864Y30938D1*
X26945Y30900D1*
X27004Y30862D1*
X27044Y30824D1*
X27069Y30786D1*
X27087Y30748D1*
X27083Y30710D1*
X27071Y30672D1*
X27051Y30634D1*
X27020Y30596D1*
X26976Y30558D1*
X26914Y30520D1*
X26837Y30482D1*
X26752Y30444D1*
X26665Y30406D1*
X26584Y30368D1*
X26510Y30330D1*
X26448Y30292D1*
X26397Y30254D1*
X26354Y30216D1*
X26319Y30178D1*
X26292Y30140D1*
X26281Y30102D1*
X26276Y30064D1*
X26273Y30026D1*
X26274Y29988D1*
X26278Y29950D1*
X26289Y29912D1*
X26305Y29874D1*
X26327Y29836D1*
X26357Y29798D1*
X26398Y29760D1*
X26455Y29722D1*
X26530Y29684D1*
X26613Y29646D1*
X13883Y30482D2*
X13877Y30444D1*
X13867Y30406D1*
X13850Y30368D1*
X13830Y30330D1*
X13806Y30292D1*
X13783Y30254D1*
X13762Y30216D1*
X13740Y30178D1*
X13717Y30140D1*
X13693Y30102D1*
X13669Y30064D1*
X13648Y30026D1*
X13628Y29988D1*
X13608Y29950D1*
X13588Y29912D1*
X13565Y29874D1*
X13540Y29836D1*
X13517Y29798D1*
X13497Y29760D1*
X13480Y29722D1*
X13465Y29684D1*
X14377Y30482D2*
Y30444D1*
Y30406D1*
Y30368D1*
Y30330D1*
Y30292D1*
Y30254D1*
Y30216D1*
Y30178D1*
Y30140D1*
Y30102D1*
Y30064D1*
Y30026D1*
Y29988D1*
Y29950D1*
Y29912D1*
Y29874D1*
Y29836D1*
Y29798D1*
Y29760D1*
Y29722D1*
Y29684D1*
X21521Y30368D2*
Y30330D1*
Y30292D1*
Y30254D1*
X21520Y30216D1*
X21515Y30178D1*
X21506Y30140D1*
X21495Y30102D1*
X21483Y30064D1*
X21469Y30026D1*
X21451Y29988D1*
X21429Y29950D1*
X21399Y29912D1*
X21362Y29874D1*
X21315Y29836D1*
X21183Y29798D1*
X20977Y29760D1*
X20723Y29722D1*
X23003Y30368D2*
Y30330D1*
Y30292D1*
Y30254D1*
Y30216D1*
Y30178D1*
X23004Y30140D1*
X23005Y30102D1*
X23010Y30064D1*
X23020Y30026D1*
X23037Y29988D1*
X23059Y29950D1*
X23088Y29912D1*
X23125Y29874D1*
X23171Y29836D1*
X23289Y29798D1*
X23469Y29760D1*
X23687Y29722D1*
X23193Y30368D2*
X23361Y30330D1*
X23502Y30292D1*
X23608Y30254D1*
X23683Y30216D1*
X23731Y30178D1*
X23762Y30140D1*
X23782Y30102D1*
X23793Y30064D1*
X23796Y30026D1*
X23794Y29988D1*
X23784Y29950D1*
X23768Y29912D1*
X23744Y29874D1*
X23710Y29836D1*
X23612Y29798D1*
X23458Y29760D1*
X23269Y29722D1*
X15137Y30330D2*
X15132Y30292D1*
X15122Y30254D1*
X15111Y30216D1*
X15099Y30178D1*
X15085Y30140D1*
X15069Y30102D1*
X15052Y30064D1*
X15038Y30026D1*
X15024Y29988D1*
X15010Y29950D1*
X14993Y29912D1*
X14977Y29874D1*
X14962Y29836D1*
X14948Y29798D1*
X14935Y29760D1*
X14921Y29722D1*
X14909Y29684D1*
X15897Y30330D2*
X15928Y30292D1*
X15952Y30254D1*
X15969Y30216D1*
X15986Y30178D1*
X16003Y30140D1*
X16020Y30102D1*
X16035Y30064D1*
X16049Y30026D1*
X16063Y29988D1*
X16080Y29950D1*
X16096Y29912D1*
X16111Y29874D1*
X16125Y29836D1*
X16139Y29798D1*
X16157Y29760D1*
X16178Y29722D1*
X16201Y29684D1*
X22965Y29874D2*
Y29836D1*
Y29798D1*
Y29760D1*
Y29722D1*
Y29684D1*
X23041Y29874D2*
X23079Y29836D1*
X23118Y29798D1*
X23159Y29760D1*
X23208Y29722D1*
X23272Y29684D1*
X23345Y29646D1*
X19165Y29836D2*
Y29798D1*
Y29760D1*
Y29722D1*
Y29684D1*
X19241Y29836D2*
X19281Y29798D1*
X19325Y29760D1*
X19379Y29722D1*
X19441Y29684D1*
X19507Y29646D1*
X20609Y29798D2*
X20620Y29760D1*
X20662Y29722D1*
X20725Y29684D1*
X20799Y29646D1*
X20647Y29798D2*
X20960Y29760D1*
X21293Y29722D1*
X27145Y29798D2*
X26833Y29760D1*
X26499Y29722D1*
X27221Y29798D2*
X27211Y29760D1*
X27169Y29722D1*
X27106Y29684D1*
X27031Y29646D1*
X28005Y28252D2*
D47*
X27422Y26721D1*
X26839Y28252D1*
X26368Y27959D2*
X26222Y28033D1*
X26003Y28250D1*
Y26721D1*
X25460Y26867D2*
X25532Y26793D1*
X25460Y26721D1*
X25386Y26793D1*
X25460Y26867D1*
X24477Y28250D2*
X24696Y28178D1*
X24843Y27959D1*
X24915Y27595D1*
Y27376D1*
X24843Y27012D1*
X24696Y26793D1*
X24477Y26721D1*
X24332D1*
X24113Y26793D1*
X23968Y27012D1*
X23894Y27376D1*
Y27595D1*
X23968Y27959D1*
X24113Y28178D1*
X24332Y28250D1*
X24477D1*
X23968Y27959D2*
X24843Y27012D1*
M02*
