G04 DipTrace 2.4.0.2*
%INDaughter-IsolatedUART.GTS*%
%MOMM*%
%ADD15C,1.5*%
%ADD21R,2.7X1.6*%
%ADD22R,1.4X2.85*%
%ADD23R,1.3X1.5*%
%ADD24R,1.0X1.1*%
%ADD25R,1.4X2.25*%
%ADD26R,1.1X1.0*%
%ADD27R,1.5X1.3*%
%ADD28R,1.6X1.6*%
%ADD29C,1.6*%
%ADD30C,1.8*%
%ADD31R,1.35X1.0*%
%ADD32R,2.2X2.2*%
%ADD34R,0.95X2.15*%
%ADD35R,3.25X2.15*%
%ADD36R,2.0X0.6*%
%ADD37R,1.1X0.6*%
%ADD38R,0.7X0.3*%
%ADD39R,1.0X1.6*%
%ADD42C,3.0*%
%ADD43C,2.5*%
%FSLAX53Y53*%
G04*
G71*
G90*
G75*
G01*
%LNTopMask*%
%LPD*%
D21*
X40164Y37783D3*
Y34983D3*
X66358Y39211D3*
Y42011D3*
D22*
X82074Y37306D3*
Y42110D3*
D23*
X12382Y30163D3*
X10482D3*
D24*
X44613Y28578D3*
Y26878D3*
D22*
X22701Y40205D3*
Y35401D3*
D24*
X72239Y26832D3*
Y25132D3*
D25*
X76526Y32707D3*
Y29307D3*
D24*
X76367Y20482D3*
Y22181D3*
D26*
X81447Y19370D3*
X79747D3*
D24*
X59855Y28578D3*
Y26878D3*
D27*
X66516Y26511D3*
Y28411D3*
D42*
X39000Y3600D3*
D43*
X95000Y43000D3*
D28*
X90338Y32547D3*
D29*
X87798D3*
X90338Y35087D3*
X87798D3*
X90338Y37627D3*
X87798D3*
X6900Y19390D3*
D28*
Y21930D3*
D29*
X9440Y19390D3*
Y21930D3*
X11980Y19390D3*
Y21930D3*
X14520Y19390D3*
Y21930D3*
X17060Y19390D3*
Y21930D3*
X19600Y19390D3*
Y21930D3*
X22140Y19390D3*
Y21930D3*
X24680Y19390D3*
Y21930D3*
D30*
X89862Y15559D3*
X92402D3*
X89862Y18099D3*
X92402D3*
X89862Y20639D3*
X92402D3*
D31*
X3651Y31750D3*
Y33250D3*
D32*
X29527Y37782D3*
X35328D3*
X70326Y39370D3*
X76126D3*
D27*
X66516Y23495D3*
Y21595D3*
D26*
X76367Y24451D3*
X78067D3*
X80177D3*
X81877D3*
D34*
X7902Y33059D3*
X10202D3*
X12502D3*
D35*
X10202Y38859D3*
D30*
X93270Y1730D3*
X90730D3*
Y4270D3*
X93270D3*
D36*
X46995Y27943D3*
Y26673D3*
Y25403D3*
Y24133D3*
Y22863D3*
Y21593D3*
Y20323D3*
Y19053D3*
X56395D3*
Y20323D3*
Y21593D3*
Y22863D3*
Y24133D3*
Y25403D3*
Y26673D3*
Y27943D3*
D37*
X69540Y31119D3*
Y30169D3*
Y29219D3*
X72240D3*
Y31119D3*
D38*
X80653Y21593D3*
Y22243D3*
Y22893D3*
X78603D3*
Y22243D3*
Y21593D3*
D39*
X79628Y22243D3*
D15*
X46677Y36834D3*
X49217D3*
X54297D3*
X59377D3*
M02*
