G04 DipTrace 2.4.0.2*
%INDaughter-IsolatedUART.GBL*%
%MOMM*%
%ADD14C,0.4*%
%ADD15C,1.5*%
%ADD16C,0.6*%
%ADD19C,0.635*%
%ADD28R,1.6X1.6*%
%ADD29C,1.6*%
%ADD30C,1.8*%
%ADD40C,0.914*%
%FSLAX53Y53*%
G04*
G71*
G90*
G75*
G01*
%LNBottom*%
%LPD*%
X43498Y20323D2*
D14*
Y24765D1*
X41725Y26537D1*
Y28737D1*
X93270Y1730D2*
D16*
X90730D1*
X44943D1*
X42863Y3810D1*
Y5397D1*
X40640Y7620D1*
X38417D1*
X36512Y9525D1*
Y17145D1*
X35877Y17780D1*
X19526D1*
Y17917D1*
Y19390D1*
X19600D1*
Y21930D1*
X44931Y19053D2*
D14*
Y26988D1*
Y32548D1*
X49217Y36834D1*
X43180Y26988D2*
X44931D1*
X19526Y17917D2*
X3514D1*
X3334Y18098D1*
Y32386D1*
X7623Y36675D1*
X61601Y28578D2*
X61919D1*
X66364Y24133D1*
X87322D1*
X38580D2*
X37628Y25085D1*
X12385D1*
X9230Y21930D1*
X9440D1*
X22140Y19390D2*
D15*
Y21930D1*
X58743Y19053D2*
D14*
X57314D1*
X56521Y19846D1*
Y26578D1*
Y30166D1*
Y36675D1*
X56362Y36834D1*
X54297D1*
X61595Y26988D2*
X56930D1*
X56521Y26578D1*
X68273Y30166D2*
X56521D1*
X58738Y24133D2*
X59220D1*
X63191Y20161D1*
X87471D1*
X88263Y19370D1*
X91132D1*
X92402Y18099D1*
X58902Y22863D2*
X62715Y19050D1*
X86995D1*
X87471Y18574D1*
X89862D1*
Y18099D1*
X58743Y25403D2*
X59537D1*
X63668Y21273D1*
X88265D1*
X89696Y22704D1*
X92878D1*
X94307Y21275D1*
Y17465D1*
X92402Y15559D1*
D40*
X43498Y20323D3*
X41725Y28737D3*
X44931Y19053D3*
X43180Y26988D3*
X61601Y28578D3*
X87322Y24133D3*
X38580D3*
X58743Y19053D3*
X61595Y26988D3*
X68273Y30166D3*
X58738Y24133D3*
X58902Y22863D3*
X58743Y25403D3*
X45720Y5080D3*
Y7620D3*
X7623Y36675D3*
Y38898D3*
Y41121D3*
X9366Y41116D3*
X10795D3*
X13335D3*
X15875D3*
Y38576D3*
Y36036D3*
X45720Y10160D3*
Y12700D3*
Y15240D3*
Y43180D3*
X43180D3*
X40640D3*
X38100D3*
X35560D3*
X33020D3*
X30480D3*
X27940D3*
X25400D3*
X45720Y40640D3*
X55880Y38100D3*
X58420Y40640D3*
X60960Y43180D3*
X63500D3*
X68580D3*
X71120D3*
X73660D3*
X76200D3*
X78740D3*
X83820D3*
X86360D3*
X88900Y40640D3*
X55880Y35560D3*
Y33020D3*
Y30480D3*
X58420Y15240D3*
X60960Y12700D3*
X63500D3*
X66040D3*
X68580D3*
X71120D3*
X73660D3*
X76200D3*
X78740D3*
X81280D3*
X83820D3*
X86360D3*
X66040Y17145D3*
X68580D3*
X71120D3*
X73660D3*
X76200D3*
X78740D3*
X81280D3*
X83820D3*
X1334Y44136D2*
D19*
X48519D1*
X1334Y43504D2*
X48519D1*
X1334Y42872D2*
X48519D1*
X1334Y42241D2*
X48519D1*
X1334Y41609D2*
X48519D1*
X1334Y40977D2*
X48519D1*
X1334Y40346D2*
X48519D1*
X1334Y39714D2*
X48519D1*
X1334Y39082D2*
X48519D1*
X1334Y38451D2*
X48519D1*
X1334Y37819D2*
X45592D1*
X47763D2*
X48519D1*
X1334Y37187D2*
X45235D1*
X48120D2*
X48519D1*
X1334Y36556D2*
X45215D1*
X48140D2*
X48519D1*
X1334Y35924D2*
X45523D1*
X47832D2*
X48519D1*
X1334Y35292D2*
X48519D1*
X1334Y34661D2*
X48519D1*
X1334Y34029D2*
X48519D1*
X1334Y33397D2*
X48519D1*
X1334Y32766D2*
X48519D1*
X1334Y32134D2*
X48519D1*
X1334Y31502D2*
X48519D1*
X1334Y30871D2*
X48519D1*
X1334Y30239D2*
X48519D1*
X1334Y29607D2*
X40939D1*
X42504D2*
X48519D1*
X1334Y28976D2*
X40562D1*
X42891D2*
X48519D1*
X1334Y28344D2*
X40601D1*
X42852D2*
X48519D1*
X1334Y27712D2*
X40790D1*
X42663D2*
X48519D1*
X1334Y27081D2*
X40790D1*
X42663D2*
X48519D1*
X1334Y26449D2*
X40790D1*
X43110D2*
X48519D1*
X1334Y25817D2*
X11848D1*
X38168D2*
X41147D1*
X43745D2*
X48519D1*
X1334Y25186D2*
X11193D1*
X39052D2*
X41782D1*
X44330D2*
X48519D1*
X1334Y24554D2*
X10558D1*
X39687D2*
X42407D1*
X44429D2*
X48519D1*
X1334Y23922D2*
X9923D1*
X12520D2*
X37406D1*
X39756D2*
X42566D1*
X44429D2*
X48519D1*
X1334Y23291D2*
X5369D1*
X8433D2*
X8818D1*
X12610D2*
X13892D1*
X15150D2*
X16432D1*
X17690D2*
X21512D1*
X22770D2*
X24052D1*
X25310D2*
X37764D1*
X39399D2*
X42566D1*
X44429D2*
X48519D1*
X1334Y22659D2*
X5369D1*
X18404D2*
X20797D1*
X26024D2*
X42566D1*
X44429D2*
X48519D1*
X1334Y22027D2*
X5369D1*
X18593D2*
X20609D1*
X26213D2*
X42566D1*
X44429D2*
X48519D1*
X1334Y21396D2*
X5369D1*
X18493D2*
X20658D1*
X26113D2*
X42566D1*
X44429D2*
X48519D1*
X1334Y20764D2*
X5369D1*
X18027D2*
X20658D1*
X25647D2*
X42397D1*
X44598D2*
X48519D1*
X1334Y20132D2*
X5567D1*
X18394D2*
X20658D1*
X26014D2*
X42318D1*
X44677D2*
X48519D1*
X1334Y19501D2*
X5369D1*
X18593D2*
X20609D1*
X26213D2*
X42655D1*
X44340D2*
X48519D1*
X1334Y18869D2*
X5458D1*
X18503D2*
X20698D1*
X26123D2*
X48519D1*
X1334Y18237D2*
X5924D1*
X7877D2*
X8464D1*
X10417D2*
X11004D1*
X12957D2*
X13544D1*
X15497D2*
X16084D1*
X18037D2*
X21164D1*
X23117D2*
X23704D1*
X25657D2*
X48519D1*
X1334Y17606D2*
X48519D1*
X36571Y16974D2*
X48519D1*
X36571Y16342D2*
X48519D1*
X36571Y15711D2*
X48519D1*
X36571Y15079D2*
X48519D1*
X36571Y14447D2*
X48519D1*
X36571Y13816D2*
X48519D1*
X36571Y13184D2*
X48519D1*
X36571Y12552D2*
X48519D1*
X36571Y11921D2*
X48519D1*
X36571Y11289D2*
X48519D1*
X36571Y10657D2*
X48519D1*
X36571Y10026D2*
X48519D1*
X36571Y9394D2*
X48519D1*
X36571Y8762D2*
X48519D1*
X36571Y8131D2*
X48519D1*
X36571Y7499D2*
X48519D1*
X36571Y6867D2*
X38349D1*
X39657D2*
X48519D1*
X36571Y6236D2*
X36920D1*
X41085D2*
X48519D1*
X41711Y5604D2*
X48519D1*
X42088Y4972D2*
X48519D1*
X42296Y4341D2*
X48519D1*
X42385Y3709D2*
X48519D1*
X42346Y3077D2*
X48519D1*
X42177Y2446D2*
X48519D1*
X41859Y1814D2*
X48519D1*
X42306Y3283D2*
X42185Y2661D1*
X41949Y2072D1*
X41633Y1580D1*
X45085Y1588D1*
X48578D1*
X48577Y44767D1*
X1270Y44768D1*
Y17463D1*
X36195D1*
X36463Y17307D1*
X36513Y17145D1*
Y5804D1*
X36869Y6147D1*
X37392Y6505D1*
X37973Y6758D1*
X38592Y6896D1*
X39226Y6913D1*
X39851Y6810D1*
X40446Y6590D1*
X40988Y6260D1*
X41457Y5834D1*
X41837Y5326D1*
X42113Y4756D1*
X42276Y4143D1*
X42321Y3600D1*
X42306Y3283D1*
X8162Y18647D2*
X8076Y18503D1*
X7858Y18272D1*
X7597Y18092D1*
X7303Y17973D1*
X6991Y17920D1*
X6675Y17934D1*
X6368Y18016D1*
X6087Y18162D1*
X5843Y18364D1*
X5648Y18614D1*
X5511Y18900D1*
X5438Y19208D1*
X5433Y19525D1*
X5496Y19836D1*
X5624Y20126D1*
X5811Y20382D1*
X5892Y20454D1*
X5427Y20457D1*
Y23403D1*
X8373D1*
Y22937D1*
X8588Y23132D1*
X8865Y23286D1*
X9168Y23378D1*
X9474Y23401D1*
X11768Y25702D1*
X12028Y25882D1*
X12385Y25958D1*
X37628D1*
X37938Y25901D1*
X38245Y25702D1*
X38687Y25260D1*
X38963Y25196D1*
X39242Y25048D1*
X39470Y24829D1*
X39628Y24554D1*
X39704Y24247D1*
X39710Y24133D1*
X39665Y23820D1*
X39536Y23531D1*
X39331Y23289D1*
X39068Y23114D1*
X38766Y23019D1*
X38450Y23011D1*
X38144Y23091D1*
X37872Y23252D1*
X37655Y23483D1*
X37511Y23765D1*
X37465Y24008D1*
X37268Y24210D1*
X12754Y24212D1*
X11943Y23409D1*
X12338Y23359D1*
X12635Y23249D1*
X12902Y23078D1*
X13127Y22855D1*
X13250Y22663D1*
X13431Y22922D1*
X13668Y23132D1*
X13945Y23286D1*
X14248Y23378D1*
X14564Y23402D1*
X14878Y23359D1*
X15175Y23249D1*
X15442Y23078D1*
X15667Y22855D1*
X15790Y22663D1*
X15971Y22922D1*
X16208Y23132D1*
X16485Y23286D1*
X16788Y23378D1*
X17104Y23402D1*
X17418Y23359D1*
X17715Y23249D1*
X17982Y23078D1*
X18207Y22855D1*
X18378Y22588D1*
X18488Y22291D1*
X18533Y21930D1*
X18499Y21615D1*
X18398Y21314D1*
X18236Y21043D1*
X18018Y20812D1*
X17798Y20660D1*
X17982Y20538D1*
X18207Y20315D1*
X18378Y20048D1*
X18488Y19751D1*
X18533Y19390D1*
X18499Y19075D1*
X18398Y18774D1*
X18236Y18503D1*
X18018Y18272D1*
X17757Y18092D1*
X17463Y17973D1*
X17151Y17920D1*
X16835Y17934D1*
X16528Y18016D1*
X16247Y18162D1*
X16003Y18364D1*
X15795Y18641D1*
X15478Y18272D1*
X15217Y18092D1*
X14923Y17973D1*
X14611Y17920D1*
X14295Y17934D1*
X13988Y18016D1*
X13707Y18162D1*
X13463Y18364D1*
X13255Y18641D1*
X12938Y18272D1*
X12677Y18092D1*
X12383Y17973D1*
X12071Y17920D1*
X11755Y17934D1*
X11448Y18016D1*
X11167Y18162D1*
X10923Y18364D1*
X10715Y18641D1*
X10398Y18272D1*
X10137Y18092D1*
X9843Y17973D1*
X9531Y17920D1*
X9215Y17934D1*
X8908Y18016D1*
X8627Y18162D1*
X8383Y18364D1*
X8175Y18641D1*
X23402Y18647D2*
X23316Y18503D1*
X23098Y18272D1*
X22837Y18092D1*
X22543Y17973D1*
X22231Y17920D1*
X21915Y17934D1*
X21608Y18016D1*
X21327Y18162D1*
X21083Y18364D1*
X20888Y18614D1*
X20751Y18900D1*
X20678Y19208D1*
X20673Y19525D1*
X20718Y19748D1*
X20717Y21543D1*
X20678Y21748D1*
X20673Y22065D1*
X20736Y22376D1*
X20864Y22666D1*
X21051Y22922D1*
X21288Y23132D1*
X21565Y23286D1*
X21868Y23378D1*
X22184Y23402D1*
X22498Y23359D1*
X22795Y23249D1*
X23062Y23078D1*
X23287Y22855D1*
X23410Y22663D1*
X23591Y22922D1*
X23828Y23132D1*
X24105Y23286D1*
X24408Y23378D1*
X24724Y23402D1*
X25038Y23359D1*
X25335Y23249D1*
X25602Y23078D1*
X25827Y22855D1*
X25998Y22588D1*
X26108Y22291D1*
X26153Y21930D1*
X26119Y21615D1*
X26018Y21314D1*
X25856Y21043D1*
X25638Y20812D1*
X25418Y20660D1*
X25602Y20538D1*
X25827Y20315D1*
X25998Y20048D1*
X26108Y19751D1*
X26153Y19390D1*
X26119Y19075D1*
X26018Y18774D1*
X25856Y18503D1*
X25638Y18272D1*
X25377Y18092D1*
X25083Y17973D1*
X24771Y17920D1*
X24455Y17934D1*
X24148Y18016D1*
X23867Y18162D1*
X23623Y18364D1*
X23415Y18641D1*
X48065Y36519D2*
X47961Y36220D1*
X47793Y35951D1*
X47570Y35726D1*
X47302Y35556D1*
X47004Y35449D1*
X46690Y35411D1*
X46374Y35444D1*
X46074Y35545D1*
X45804Y35710D1*
X45577Y35931D1*
X45405Y36197D1*
X45295Y36495D1*
X45254Y36809D1*
X45284Y37124D1*
X45383Y37425D1*
X45546Y37697D1*
X45765Y37926D1*
X46029Y38101D1*
X46325Y38213D1*
X46639Y38256D1*
X46955Y38229D1*
X47257Y38133D1*
X47530Y37973D1*
X47761Y37756D1*
X47938Y37493D1*
X48053Y37198D1*
X48100Y36834D1*
X48065Y36519D1*
X42625Y21047D2*
Y24401D1*
X41108Y25920D1*
X40929Y26180D1*
X40852Y26537D1*
Y28015D1*
X40657Y28369D1*
X40597Y28680D1*
X40625Y28995D1*
X40740Y29290D1*
X40932Y29541D1*
X41186Y29730D1*
X41483Y29840D1*
X41798Y29864D1*
X42108Y29800D1*
X42388Y29652D1*
X42616Y29432D1*
X42774Y29158D1*
X42849Y28851D1*
X42855Y28737D1*
X42811Y28423D1*
X42681Y28135D1*
X42598Y28037D1*
Y26901D1*
X44115Y25382D1*
X44294Y25122D1*
X44370Y24765D1*
Y21044D1*
X44546Y20744D1*
X44622Y20437D1*
X44627Y20323D1*
X44583Y20010D1*
X44454Y19721D1*
X44249Y19479D1*
X43986Y19304D1*
X43684Y19209D1*
X43368Y19201D1*
X43061Y19281D1*
X42789Y19442D1*
X42573Y19673D1*
X42429Y19955D1*
X42369Y20266D1*
X42397Y20581D1*
X42512Y20876D1*
X42626Y21025D1*
X59095Y43664D2*
X87742D1*
X58460Y43033D2*
X88377D1*
X57835Y42401D2*
X89012D1*
X57200Y41769D2*
X89637D1*
X56565Y41138D2*
X90272D1*
X55930Y40506D2*
X90907D1*
X55295Y39874D2*
X91532D1*
X54730Y39243D2*
X92167D1*
X54730Y38611D2*
X86640D1*
X91500D2*
X92802D1*
X54730Y37979D2*
X58472D1*
X60286D2*
X86303D1*
X91828D2*
X93427D1*
X54730Y37348D2*
X57986D1*
X60762D2*
X86293D1*
X91847D2*
X94062D1*
X54740Y36716D2*
X57897D1*
X60861D2*
X86581D1*
X91560D2*
X94697D1*
X54740Y36084D2*
X58105D1*
X60653D2*
X86650D1*
X91490D2*
X95332D1*
X54740Y35453D2*
X58978D1*
X59780D2*
X86313D1*
X91828D2*
X95967D1*
X54750Y34821D2*
X86283D1*
X91847D2*
X96602D1*
X54750Y34189D2*
X86571D1*
X91570D2*
X97227D1*
X54750Y33558D2*
X86660D1*
X91877D2*
X97862D1*
X54759Y32926D2*
X86313D1*
X91877D2*
X97892D1*
X54759Y32294D2*
X86283D1*
X91877D2*
X97892D1*
X54759Y31663D2*
X86561D1*
X91877D2*
X97892D1*
X54769Y31031D2*
X97892D1*
X54769Y30399D2*
X97892D1*
X54769Y29768D2*
X97892D1*
X54779Y29136D2*
X60556D1*
X62657D2*
X97892D1*
X54779Y28504D2*
X60407D1*
X63292D2*
X97892D1*
X54779Y27873D2*
X60655D1*
X63917D2*
X97892D1*
X54779Y27241D2*
X61955D1*
X64552D2*
X97892D1*
X54789Y26609D2*
X62590D1*
X65187D2*
X97892D1*
X54789Y25978D2*
X57708D1*
X60256D2*
X63225D1*
X65812D2*
X97892D1*
X54789Y25346D2*
X57549D1*
X60891D2*
X63850D1*
X66447D2*
X97892D1*
X54799Y24714D2*
X57708D1*
X61526D2*
X64485D1*
X88355D2*
X97892D1*
X54799Y24083D2*
X57549D1*
X62151D2*
X65120D1*
X88514D2*
X97892D1*
X54799Y23451D2*
X57778D1*
X62786D2*
X65755D1*
X88285D2*
X89180D1*
X93395D2*
X97892D1*
X54809Y22819D2*
X57708D1*
X63421D2*
X88516D1*
X94060D2*
X97892D1*
X54809Y22188D2*
X57936D1*
X64046D2*
X87881D1*
X94695D2*
X97892D1*
X54809Y21556D2*
X58909D1*
X95201D2*
X97892D1*
X54819Y20924D2*
X59544D1*
X95241D2*
X97892D1*
X54819Y20293D2*
X60179D1*
X95241D2*
X97892D1*
X54819Y19661D2*
X60804D1*
X95241D2*
X97892D1*
X54829Y19029D2*
X61439D1*
X95241D2*
X97892D1*
X54829Y18398D2*
X62074D1*
X95241D2*
X97892D1*
X54829Y17766D2*
X87077D1*
X95241D2*
X97892D1*
X54829Y17134D2*
X88555D1*
X95181D2*
X97892D1*
X54839Y16503D2*
X88536D1*
X94645D2*
X97892D1*
X55454Y15871D2*
X88258D1*
X94010D2*
X97892D1*
X56079Y15239D2*
X88258D1*
X94000D2*
X97892D1*
X56714Y14608D2*
X88545D1*
X93713D2*
X97892D1*
X57349Y13976D2*
X97892D1*
X57974Y13344D2*
X97892D1*
X58609Y12713D2*
X97892D1*
X59244Y12081D2*
X97892D1*
X59869Y11449D2*
X97892D1*
X60504Y10818D2*
X97892D1*
X91356Y34020D2*
X91811D1*
Y31074D1*
X88865D1*
Y31541D1*
X88757Y31429D1*
X88495Y31250D1*
X88202Y31131D1*
X87889Y31077D1*
X87573Y31092D1*
X87267Y31174D1*
X86985Y31319D1*
X86741Y31521D1*
X86546Y31771D1*
X86409Y32057D1*
X86337Y32365D1*
X86332Y32682D1*
X86394Y32993D1*
X86522Y33283D1*
X86709Y33539D1*
X86946Y33749D1*
X87059Y33811D1*
X86741Y34061D1*
X86546Y34311D1*
X86409Y34597D1*
X86337Y34905D1*
X86332Y35222D1*
X86394Y35533D1*
X86522Y35823D1*
X86709Y36079D1*
X86946Y36289D1*
X87059Y36351D1*
X86741Y36601D1*
X86546Y36851D1*
X86409Y37137D1*
X86337Y37445D1*
X86332Y37762D1*
X86394Y38073D1*
X86522Y38363D1*
X86709Y38619D1*
X86946Y38829D1*
X87223Y38983D1*
X87526Y39075D1*
X87842Y39099D1*
X88156Y39056D1*
X88454Y38946D1*
X88721Y38776D1*
X88945Y38552D1*
X89068Y38360D1*
X89249Y38619D1*
X89486Y38829D1*
X89763Y38983D1*
X90066Y39075D1*
X90382Y39099D1*
X90696Y39056D1*
X90994Y38946D1*
X91261Y38776D1*
X91485Y38552D1*
X91656Y38285D1*
X91766Y37988D1*
X91811Y37627D1*
X91777Y37312D1*
X91676Y37012D1*
X91514Y36740D1*
X91297Y36509D1*
X91076Y36358D1*
X91261Y36236D1*
X91485Y36012D1*
X91656Y35745D1*
X91766Y35448D1*
X91811Y35087D1*
X91777Y34772D1*
X91676Y34472D1*
X91514Y34200D1*
X91344Y34019D1*
X91136Y14641D2*
X90949Y14423D1*
X90699Y14228D1*
X90416Y14087D1*
X90109Y14006D1*
X89793Y13988D1*
X89479Y14034D1*
X89181Y14141D1*
X88911Y14307D1*
X88679Y14523D1*
X88495Y14781D1*
X88367Y15071D1*
X88299Y15381D1*
X88295Y15698D1*
X88355Y16009D1*
X88475Y16302D1*
X88653Y16565D1*
X88937Y16825D1*
X88679Y17063D1*
X88495Y17321D1*
X88348Y17698D1*
X87471Y17701D1*
X87161Y17758D1*
X86854Y17957D1*
X86636Y18174D1*
X62715Y18177D1*
X62404Y18234D1*
X62098Y18433D1*
X58772Y21741D1*
X58466Y21821D1*
X58194Y21982D1*
X57977Y22213D1*
X57833Y22495D1*
X57773Y22806D1*
X57802Y23121D1*
X57899Y23370D1*
X57813Y23483D1*
X57669Y23765D1*
X57609Y24076D1*
X57637Y24391D1*
X57752Y24686D1*
X57806Y24757D1*
X57675Y25035D1*
X57615Y25346D1*
X57643Y25661D1*
X57758Y25956D1*
X57950Y26208D1*
X58204Y26396D1*
X58501Y26507D1*
X58816Y26531D1*
X59126Y26466D1*
X59456Y26270D1*
X59537Y26276D1*
X59848Y26219D1*
X60154Y26020D1*
X64034Y22140D1*
X74780Y22145D1*
X87907D1*
X89079Y23321D1*
X89339Y23500D1*
X89696Y23577D1*
X92878D1*
X93189Y23519D1*
X93496Y23321D1*
X94925Y21892D1*
X95104Y21632D1*
X95180Y21275D1*
Y17465D1*
X95123Y17154D1*
X94925Y16847D1*
X93949Y15872D1*
X93975Y15559D1*
X93943Y15244D1*
X93848Y14941D1*
X93695Y14664D1*
X93489Y14423D1*
X93239Y14228D1*
X92956Y14087D1*
X92649Y14006D1*
X92333Y13988D1*
X92019Y14034D1*
X91721Y14141D1*
X91451Y14307D1*
X91219Y14523D1*
X91133Y14644D1*
X60765Y36519D2*
X60661Y36220D1*
X60493Y35951D1*
X60270Y35726D1*
X60002Y35556D1*
X59704Y35449D1*
X59390Y35411D1*
X59074Y35444D1*
X58774Y35545D1*
X58504Y35710D1*
X58277Y35931D1*
X58105Y36197D1*
X57995Y36495D1*
X57954Y36809D1*
X57984Y37124D1*
X58083Y37425D1*
X58246Y37697D1*
X58465Y37926D1*
X58729Y38101D1*
X59025Y38213D1*
X59339Y38256D1*
X59655Y38229D1*
X59957Y38133D1*
X60230Y37973D1*
X60461Y37756D1*
X60638Y37493D1*
X60753Y37198D1*
X60800Y36834D1*
X60765Y36519D1*
X62571Y29160D2*
X66725Y25007D1*
X86595Y25005D1*
X86783Y25126D1*
X87079Y25236D1*
X87395Y25260D1*
X87704Y25196D1*
X87984Y25048D1*
X88212Y24828D1*
X88370Y24554D1*
X88446Y24247D1*
X88452Y24133D1*
X88407Y23819D1*
X88278Y23530D1*
X88073Y23289D1*
X87810Y23114D1*
X87508Y23018D1*
X87192Y23010D1*
X86886Y23090D1*
X86607Y23259D1*
X66364Y23260D1*
X66054Y23317D1*
X65747Y23515D1*
X61788Y27464D1*
X61472Y27456D1*
X61165Y27536D1*
X60893Y27697D1*
X60677Y27928D1*
X60533Y28210D1*
X60473Y28521D1*
X60501Y28836D1*
X60616Y29131D1*
X60808Y29383D1*
X61062Y29571D1*
X61359Y29682D1*
X61674Y29706D1*
X61984Y29641D1*
X62264Y29493D1*
X62492Y29274D1*
X62536Y29197D1*
X59670Y44298D2*
X54655Y39295D1*
X54675Y36577D1*
X54774Y16485D1*
X60933Y10326D1*
X64618Y10320D1*
X97959D1*
Y33522D1*
X93436Y38043D1*
X89621Y41851D1*
X87187Y44285D1*
X82232Y44292D1*
X59666Y44296D1*
D28*
X90338Y32547D3*
D29*
X87798D3*
X90338Y35087D3*
X87798D3*
X90338Y37627D3*
X87798D3*
X6900Y19390D3*
D28*
Y21930D3*
D29*
X9440Y19390D3*
Y21930D3*
X11980Y19390D3*
Y21930D3*
X14520Y19390D3*
Y21930D3*
X17060Y19390D3*
Y21930D3*
X19600Y19390D3*
Y21930D3*
X22140Y19390D3*
Y21930D3*
X24680Y19390D3*
Y21930D3*
D30*
X89862Y15559D3*
X92402D3*
X89862Y18099D3*
X92402D3*
X89862Y20639D3*
X92402D3*
X93270Y1730D3*
X90730D3*
Y4270D3*
X93270D3*
D15*
X46677Y36834D3*
X49217D3*
X54297D3*
X59377D3*
M02*
