M48
METRIC,0000.00
T01C0.406
T02C0.8
T03C1.0
T04C2.5
T05C3.0
%
T01
X+004572Y+000508
X+004572Y+000762
X+004572Y+001016
X+004572Y+001270
X+004572Y+001524
X+004493Y+001905
X+004350Y+002032
X+003858Y+002413
X+004318Y+002699
X+004173Y+002874
X+004572Y+004064
X+004572Y+004318
X+004318Y+004318
X+004064Y+004318
X+003810Y+004318
X+003556Y+004318
X+003302Y+004318
X+003048Y+004318
X+002794Y+004318
X+002540Y+004318
X+001588Y+004112
X+001588Y+003858
X+001588Y+003604
X+001334Y+004112
X+001079Y+004112
X+000937Y+004112
X+000762Y+004112
X+000762Y+003890
X+000762Y+003668
X+005588Y+003556
X+005588Y+003810
X+005842Y+004064
X+006096Y+004318
X+006350Y+004318
X+006858Y+004318
X+007112Y+004318
X+007366Y+004318
X+007620Y+004318
X+007874Y+004318
X+008382Y+004318
X+008636Y+004318
X+008890Y+004064
X+008732Y+002413
X+008382Y+001714
X+008128Y+001714
X+007874Y+001714
X+007620Y+001714
X+007366Y+001714
X+007112Y+001714
X+006858Y+001714
X+006604Y+001714
X+006604Y+001270
X+006858Y+001270
X+007112Y+001270
X+007366Y+001270
X+007620Y+001270
X+007874Y+001270
X+008128Y+001270
X+008382Y+001270
X+008636Y+001270
X+006350Y+001270
X+006096Y+001270
X+005842Y+001524
X+005874Y+001905
X+005890Y+002286
X+005874Y+002413
X+005874Y+002540
X+006159Y+002699
X+006160Y+002858
X+005588Y+003048
X+005588Y+003302
X+006827Y+003017
T02
X+004668Y+003683
X+004922Y+003683
X+005430Y+003683
X+005938Y+003683
T03
X+009034Y+003255
X+009034Y+003509
X+009034Y+003763
X+008780Y+003763
X+008780Y+003509
X+008780Y+003255
X+008986Y+002064
X+008986Y+001810
X+008986Y+001556
X+009240Y+001556
X+009240Y+001810
X+009240Y+002064
X+009327Y+000427
X+009327Y+000173
X+009073Y+000173
X+009073Y+000427
X+002468Y+001939
X+002214Y+001939
X+001960Y+001939
X+001706Y+001939
X+001706Y+002193
X+001960Y+002193
X+002214Y+002193
X+002468Y+002193
X+001452Y+002193
X+001198Y+002193
X+000944Y+002193
X+000690Y+002193
X+000690Y+001939
X+000944Y+001939
X+001198Y+001939
X+001452Y+001939
T04
X+009500Y+004300
T05
X+003900Y+000360
T00
M30
