M48
METRIC,0000.00
T01C0.406
T02C0.711
T03C0.9
T04C0.92
T05C1.0
T06C1.1
T07C2.3
T08C3.0
%
T01
X+003810Y+002413
X+004001Y+002445
X+004096Y+002350
X+004191Y+002254
X+004286Y+002159
X+004381Y+002064
X+004477Y+001968
X+004413Y+001810
X+004191Y+002000
X+004001Y+002191
X+003524Y+002413
X+003238Y+002683
X+003143Y+003048
X+003143Y+003302
X+003143Y+003620
X+002699Y+003620
X+002699Y+003302
X+002365Y+003191
X+002365Y+003064
X+002873Y+002937
X+002873Y+002810
X+002466Y+001953
X+002314Y+001143
X+001460Y+001666
X+003508Y+001270
X+004604Y+000921
X+004731Y+000921
X+004699Y+001079
X+004794Y+001159
X+005236Y+000995
X+005334Y+001238
X+005248Y+001395
X+005582Y+001048
X+005683Y+000953
X+005699Y+001143
X+005826Y+001429
X+005982Y+001334
X+006080Y+001146
X+006318Y+000857
X+005985Y+000460
X+005682Y+000667
X+005493Y+000572
X+005582Y+001783
X+005832Y+001788
X+006045Y+001695
X+006191Y+002159
X+005882Y+002350
X+006318Y+002572
X+006414Y+002477
X+006604Y+002318
X+006652Y+002207
X+007239Y+002413
X+006636Y+003016
X+006636Y+003366
X+006318Y+002857
X+006255Y+002762
X+005239Y+002667
X+005239Y+002921
X+005080Y+003238
X+005239Y+003366
X+004731Y+003524
X+004477Y+003524
X+004350Y+003492
X+004540Y+002921
X+004477Y+002762
X+003762Y+004875
X+003508Y+004796
X+002254Y+003620
X+005509Y+004874
X+005747Y+004794
X+007143Y+001143
X+006858Y+000778
X+007318Y+000572
T02
X+003556Y+000381
X+003810Y+000381
T03
X+008700Y+001905
X+008954Y+001905
X+003111Y+000572
X+003111Y+000317
T04
X+008711Y+001520
X+008711Y+001320
X+008461Y+001320
X+008461Y+001520
T05
X+001169Y+001387G85X+000869Y+001387
X+001509Y+000962G85X+001509Y+001212
X+001144Y+000787G85X+000894Y+000787
T06
X+007757Y+002681
X+007503Y+002681
X+007503Y+002935
X+007503Y+003189
X+007757Y+003189
X+007757Y+002935
X+007757Y+003443
X+007503Y+003443
X+007503Y+003697
X+007757Y+003697
X+007757Y+003951
X+007757Y+004205
X+007757Y+004459
X+007503Y+004459
X+007503Y+004205
X+007503Y+003951
X+005757Y+003951
X+005757Y+004205
X+005757Y+004459
X+005503Y+004459
X+005503Y+004205
X+005503Y+003951
X+005503Y+003697
X+005503Y+003443
X+005757Y+003443
X+005757Y+003697
X+005757Y+003189
X+005757Y+002935
X+005757Y+002681
X+005503Y+002681
X+005503Y+002935
X+005503Y+003189
X+003757Y+003189
X+003757Y+002935
X+003503Y+002935
X+003503Y+003189
X+003503Y+003443
X+003757Y+003443
X+003757Y+003697
X+003503Y+003697
X+003503Y+003951
X+003503Y+004205
X+003503Y+004459
X+003757Y+004459
X+003757Y+004205
X+003757Y+003951
X+003757Y+002681
X+003503Y+002681
X+001757Y+002681
X+001503Y+002681
X+001503Y+002935
X+001503Y+003189
X+001757Y+003189
X+001757Y+002935
X+001757Y+003443
X+001503Y+003443
X+001503Y+003697
X+001757Y+003697
X+001757Y+003951
X+001757Y+004205
X+001757Y+004459
X+001503Y+004459
X+001503Y+004205
X+001503Y+003951
X+002032Y+000381
X+002286Y+000381
X+002540Y+000381
T07
X+007983Y+001049
X+009188Y+001049
T08
X+000800Y+004600
X+009200Y+004600
T00
M30
