G04 DipTrace 2.4.0.2*
%INMainBoard.GBL*%
%MOMM*%
%ADD14C,0.3*%
%ADD16C,0.8*%
%ADD17C,1.5*%
%ADD18C,1.0*%
%ADD19C,0.6*%
%ADD20C,2.0*%
%ADD21C,1.7*%
%ADD22C,0.635*%
%ADD23C,0.33*%
%ADD27R,0.7X0.9*%
%ADD28R,0.9X0.7*%
%ADD30C,1.27*%
%ADD31R,1.27X1.27*%
%ADD32R,1.7X1.7*%
%ADD33C,1.7*%
%ADD34O,5.0X2.0*%
%ADD35O,4.5X2.0*%
%ADD36O,2.0X4.5*%
%ADD37R,1.5X1.5*%
%ADD38C,1.5*%
%ADD39R,1.6X1.6*%
%ADD40C,1.6*%
%ADD41C,3.3*%
%ADD46R,1.9X1.9*%
%ADD47C,1.9*%
%ADD54C,0.914*%
%FSLAX53Y53*%
G04*
G71*
G90*
G75*
G01*
%LNBottom*%
%LPD*%
X58320Y17880D2*
D14*
X58300Y17860D1*
Y16680D1*
X52360Y9950D2*
Y10001D1*
X53340D1*
X59849Y4604D2*
D16*
X53975D1*
X53340Y5239D1*
Y5556D1*
Y10001D1*
X54134D1*
X54610Y10477D1*
Y10954D1*
X56991Y13335D1*
Y16351D1*
X57309Y16669D1*
X58289D1*
X58300Y16680D1*
X53340Y5556D2*
D17*
X42228D1*
X35084Y12700D1*
X60447Y16950D2*
D14*
X59750Y16253D1*
Y15770D1*
X60801Y11460D2*
X59540D1*
X52480Y13950D2*
Y13920D1*
D18*
X54134D1*
D14*
Y13970D1*
X55820Y17830D2*
X55800Y17810D1*
Y16670D1*
X54134Y13970D2*
D18*
Y18098D1*
X54865Y18829D1*
X55404Y19367D1*
X60643D1*
X62071Y17939D1*
Y16950D1*
Y12383D1*
X61149Y11460D1*
X60801D1*
X60447Y16950D2*
D14*
X62071D1*
X55800Y17810D2*
Y17894D1*
X54865Y18829D1*
X52480Y13920D2*
D17*
X50800D1*
Y8890D1*
X49530Y7620D1*
X43180D1*
X31274Y19526D1*
X24662D1*
X63183Y8572D2*
D19*
X67786D1*
X68580Y7779D1*
X50800Y32385D2*
D16*
Y13920D1*
X15030Y42050D2*
D21*
X17570D1*
X19420D1*
D20*
X33180D1*
D21*
X35030D1*
X37570D1*
X39420D1*
D20*
X53180D1*
D21*
X55030D1*
X57570D1*
X59420D1*
D20*
X73180D1*
D21*
X75030D1*
X77570D1*
X15030D2*
X13180D1*
D20*
X12523D1*
X9843Y39370D1*
Y26988D1*
X17387Y19443D1*
X24268Y12562D1*
X29878Y6952D1*
D17*
X31115Y5715D1*
X23137Y11430D2*
D19*
X24268Y12562D1*
X14605Y16661D2*
X17387Y19443D1*
X15030Y39510D2*
D20*
X17570D1*
D21*
X19420D1*
D20*
X33180D1*
D21*
X35030D1*
X37570D1*
X39420D1*
D20*
X53180D1*
D21*
X55030D1*
X57570D1*
X59420D1*
D20*
X73180D1*
D21*
X75030D1*
X77570D1*
X53340Y11301D2*
D14*
Y12383D1*
X58240Y11460D2*
X57021D1*
X56991Y11430D1*
X59750Y14470D2*
Y13405D1*
X59820Y13335D1*
X58300Y15380D2*
Y14326D1*
X58261Y14287D1*
X55800Y15370D2*
Y14336D1*
X55434Y13970D1*
Y13048D1*
X54769Y12383D1*
X53340D1*
X91875Y10490D2*
X87105D1*
X79835D1*
X87105Y13200D2*
Y10490D1*
X56833Y9525D2*
X68104D1*
X73184Y14605D1*
X79692D1*
X81121Y13176D1*
X81756D1*
X83026Y14446D1*
X83359D1*
X84605Y13200D1*
X55820Y10477D2*
X68104D1*
X72866Y15240D1*
X84645D1*
X84605Y15200D1*
X89535Y19050D2*
D20*
X94933Y13653D1*
Y8096D1*
X89694Y2857D1*
X42069D1*
X40640Y1429D1*
X32861D1*
X31115Y3175D1*
X54928Y5715D2*
D14*
X73184D1*
X56820Y6667D2*
X70485D1*
X71429Y7612D1*
Y11430D1*
X35084Y47955D2*
Y44644D1*
X35030Y44590D1*
X37624Y48755D2*
Y44644D1*
X37570Y44590D1*
X55086Y48736D2*
Y44646D1*
X55030Y44590D1*
X57468Y47936D2*
Y44692D1*
X57570Y44590D1*
X17570Y36970D2*
Y37040D1*
X20003Y34607D1*
X32385D1*
X33337Y35560D1*
Y35719D1*
X37570D1*
X39211D1*
X40958Y37465D1*
X48895D1*
X52070D1*
X53816Y35719D1*
X57570D1*
X76319D1*
X77570Y36970D1*
X57570D2*
Y35719D1*
X37570Y36970D2*
Y35719D1*
X47942Y11589D2*
Y12065D1*
X48895Y13018D1*
Y37465D1*
X47308Y9208D2*
X46038Y10478D1*
Y11906D1*
X47625Y13494D1*
Y32385D1*
X44768Y35242D1*
X46037Y9208D2*
X45403Y9842D1*
Y12065D1*
X46990Y13653D1*
Y31433D1*
X43498Y34925D1*
X46990Y10795D2*
Y12065D1*
X48260Y13335D1*
Y34290D1*
X47308Y35242D1*
X66516Y22066D2*
X66992Y22543D1*
Y23812D1*
X66358Y24448D1*
X65405D1*
X64770Y23812D1*
X63500D1*
X60643Y26670D1*
X57710D1*
X57570Y26810D1*
X66040Y23177D2*
X63183D1*
X60960Y25400D1*
X56440D1*
X55030Y26810D1*
X63183Y28575D2*
X62389Y29369D1*
X57589D1*
X57570Y29350D1*
X62547Y27623D2*
X62071Y28099D1*
X56281D1*
X55030Y29350D1*
X64135Y24765D2*
X64770Y25400D1*
Y29210D1*
X62071Y31909D1*
X57589D1*
X57570Y31890D1*
X63183Y25718D2*
X64135Y26670D1*
Y28892D1*
X62389Y30639D1*
X56281D1*
X55030Y31890D1*
X40005Y24448D2*
Y26915D1*
X37570Y29350D1*
X40958Y23495D2*
Y27940D1*
X38259Y30639D1*
X36319D1*
X35030Y29350D1*
X41910Y22543D2*
Y27940D1*
X37941Y31909D1*
X37589D1*
X37570Y31890D1*
X42863Y21590D2*
Y28575D1*
X38259Y33179D1*
X36319D1*
X35030Y31890D1*
X43815Y20637D2*
Y28575D1*
X38100Y34290D1*
X37710D1*
X37570Y34430D1*
X44768Y19685D2*
Y27623D1*
X32385Y26829D2*
X17589D1*
X17570Y26810D1*
X35242Y24130D2*
X32703D1*
X31433Y25400D1*
X16440D1*
X15030Y26810D1*
X28734Y29369D2*
X17589D1*
X17570Y29350D1*
X28734Y28099D2*
X16281D1*
X15030Y29350D1*
X23654Y31909D2*
X17589D1*
X17570Y31890D1*
X23654Y30639D2*
X16281D1*
X15030Y31890D1*
X58820Y23495D2*
X55562D1*
X53340Y25718D1*
Y32703D1*
X52387Y33655D1*
D54*
X58320Y17880D3*
X52360Y9950D3*
X59849Y4604D3*
X35084Y12700D3*
X60447Y16950D3*
X60801Y11460D3*
X52480Y13950D3*
X55820Y17830D3*
X60801Y11460D3*
X60447Y16950D3*
X24662Y19526D3*
X63183Y8572D3*
X68580Y7779D3*
X50800Y32385D3*
X23137Y11430D3*
X14605Y16661D3*
X53340Y12383D3*
X56991Y11430D3*
X59820Y13335D3*
X58261Y14287D3*
X56833Y9525D3*
X55820Y10477D3*
X54928Y5715D3*
X73184D3*
X56820Y6667D3*
X71429Y11430D3*
X35084Y47955D3*
X37624Y48755D3*
X55086Y48736D3*
X57468Y47936D3*
X47942Y11589D3*
X47308Y9208D3*
X44768Y35242D3*
X46037Y9208D3*
X43498Y34925D3*
X46990Y10795D3*
X47308Y35242D3*
X66516Y22066D3*
X66040Y23177D3*
X63183Y28575D3*
X62547Y27623D3*
X64135Y24765D3*
X63183Y25718D3*
X40005Y24448D3*
X40958Y23495D3*
X41910Y22543D3*
X42863Y21590D3*
X43815Y20637D3*
X44768Y19685D3*
Y27623D3*
X32385Y26829D3*
X35242Y24130D3*
X28734Y29369D3*
Y28099D3*
X23654Y31909D3*
Y30639D3*
X58820Y23495D3*
X52387Y33655D3*
X38100Y24130D3*
X40005Y21907D3*
X41910Y20003D3*
X44133Y18098D3*
X45403Y29210D3*
X52387D3*
Y26670D3*
X66358Y33655D3*
Y30162D3*
X72390Y24130D3*
X61913Y21590D3*
X31433Y30480D3*
Y33020D3*
X26988D3*
X22543Y36195D3*
X26988D3*
X31433D3*
X51498Y19053D2*
D22*
X61715D1*
X51498Y18422D2*
X55821D1*
X59431D2*
X62350D1*
X51498Y17790D2*
X54710D1*
X59510D2*
X62806D1*
X51498Y17158D2*
X54710D1*
X59431D2*
X62806D1*
X51498Y16527D2*
X54710D1*
X60840D2*
X62806D1*
X51498Y15895D2*
X54710D1*
X60840D2*
X62806D1*
X51498Y15263D2*
X54710D1*
X60840D2*
X62806D1*
X51498Y14632D2*
X52944D1*
X60840D2*
X62806D1*
X51498Y14000D2*
X52944D1*
X60840D2*
X62806D1*
X51498Y13368D2*
X52726D1*
X61009D2*
X62806D1*
X51498Y12737D2*
X52200D1*
X60840D2*
X62806D1*
X51498Y12105D2*
X52180D1*
X60731D2*
X62806D1*
X51498Y11473D2*
X52250D1*
X60731D2*
X62806D1*
X52317Y11438D2*
Y11895D1*
X52212Y12325D1*
X52240Y12641D1*
X52355Y12935D1*
X52547Y13187D1*
X52801Y13375D1*
X53014Y13455D1*
X53011Y14993D1*
X54777D1*
X54787Y16493D1*
X54777Y16627D1*
Y17793D1*
X55878D1*
X55880Y18415D1*
X56052Y18697D1*
X56197Y18732D1*
X57577D1*
X57781Y18873D1*
X58077Y18984D1*
X58393Y19008D1*
X58703Y18943D1*
X58983Y18795D1*
X59047Y18733D1*
X59187Y18704D1*
X59369Y18460D1*
X59373Y18286D1*
X59450Y17880D1*
X59406Y17567D1*
X59373Y17463D1*
Y16897D1*
X60773Y16893D1*
Y13936D1*
X60868Y13756D1*
X60944Y13449D1*
X60950Y13335D1*
X60906Y13022D1*
X60776Y12733D1*
X60576Y12483D1*
X60663D1*
Y11429D1*
X62865Y11430D1*
Y17969D1*
X61145Y19686D1*
X51435Y19685D1*
Y11430D1*
X52318D1*
X55800Y17792D2*
D23*
Y16670D1*
X54778D2*
X55800D1*
X54134Y14992D2*
Y13970D1*
X53012D2*
X54134D1*
X59750Y16892D2*
Y15770D1*
X60772D1*
X59540Y11460D2*
X60662D1*
X1041Y48391D2*
D22*
X5632D1*
X10373D2*
X33979D1*
X58563D2*
X89630D1*
X94371D2*
X98957D1*
X1041Y47759D2*
X5116D1*
X10879D2*
X33909D1*
X58642D2*
X89124D1*
X94877D2*
X98957D1*
X1041Y47128D2*
X4808D1*
X11186D2*
X34197D1*
X55973D2*
X56581D1*
X58355D2*
X88817D1*
X95185D2*
X98957D1*
X1041Y46496D2*
X4650D1*
X11345D2*
X34197D1*
X55973D2*
X56581D1*
X58355D2*
X88658D1*
X95343D2*
X98957D1*
X1041Y45864D2*
X4620D1*
X11385D2*
X14135D1*
X15929D2*
X16675D1*
X18469D2*
X34137D1*
X55973D2*
X56581D1*
X58464D2*
X74132D1*
X75926D2*
X76672D1*
X78466D2*
X88618D1*
X95383D2*
X98957D1*
X1041Y45233D2*
X4709D1*
X11295D2*
X13589D1*
X19014D2*
X33582D1*
X59010D2*
X73587D1*
X79012D2*
X88708D1*
X95294D2*
X98957D1*
X1041Y44601D2*
X4927D1*
X11077D2*
X13440D1*
X19153D2*
X33443D1*
X59158D2*
X73448D1*
X79161D2*
X88926D1*
X95076D2*
X98957D1*
X1041Y43969D2*
X5314D1*
X10690D2*
X13579D1*
X19024D2*
X33572D1*
X59019D2*
X73577D1*
X79022D2*
X89313D1*
X94689D2*
X98957D1*
X1041Y43338D2*
X5949D1*
X10045D2*
X11387D1*
X78496D2*
X89948D1*
X94044D2*
X98957D1*
X1041Y42706D2*
X7517D1*
X8477D2*
X10752D1*
X79012D2*
X91516D1*
X92476D2*
X98957D1*
X1041Y42074D2*
X10117D1*
X79151D2*
X98957D1*
X1041Y41443D2*
X9482D1*
X79032D2*
X98957D1*
X1041Y40811D2*
X8856D1*
X78516D2*
X98957D1*
X1041Y40179D2*
X8311D1*
X13081D2*
X98957D1*
X1041Y39548D2*
X8112D1*
X12446D2*
X98957D1*
X1041Y38916D2*
X8102D1*
X11821D2*
X98957D1*
X1041Y38284D2*
X8102D1*
X11583D2*
X14194D1*
X15859D2*
X16734D1*
X18399D2*
X34197D1*
X35862D2*
X36737D1*
X38402D2*
X40815D1*
X52213D2*
X54199D1*
X55864D2*
X56739D1*
X58404D2*
X74202D1*
X75867D2*
X76742D1*
X78407D2*
X98957D1*
X1041Y37653D2*
X8102D1*
X11583D2*
X13609D1*
X18995D2*
X33602D1*
X38997D2*
X39922D1*
X53106D2*
X53604D1*
X58990D2*
X73607D1*
X78992D2*
X98957D1*
X1041Y37021D2*
X8102D1*
X11583D2*
X13440D1*
X19153D2*
X33443D1*
X59158D2*
X73448D1*
X79151D2*
X98957D1*
X1041Y36389D2*
X8102D1*
X11583D2*
X13559D1*
X19451D2*
X32798D1*
X41110D2*
X48008D1*
X79042D2*
X98957D1*
X1041Y35758D2*
X8102D1*
X11583D2*
X14046D1*
X20076D2*
X32312D1*
X40475D2*
X42670D1*
X45833D2*
X46231D1*
X78556D2*
X98957D1*
X1041Y35126D2*
X8102D1*
X11583D2*
X13609D1*
X39840D2*
X42323D1*
X78992D2*
X98957D1*
X1041Y34494D2*
X8102D1*
X11583D2*
X13440D1*
X39156D2*
X42392D1*
X59158D2*
X73448D1*
X79151D2*
X98957D1*
X1041Y33863D2*
X8102D1*
X11583D2*
X13550D1*
X19044D2*
X19592D1*
X32796D2*
X33552D1*
X39751D2*
X43047D1*
X59049D2*
X73557D1*
X79042D2*
X98957D1*
X1041Y33231D2*
X8102D1*
X11583D2*
X14026D1*
X18568D2*
X34028D1*
X40386D2*
X43960D1*
X58573D2*
X74033D1*
X78575D2*
X98957D1*
X1041Y32599D2*
X8102D1*
X11583D2*
X13619D1*
X24610D2*
X33621D1*
X41021D2*
X44595D1*
X62581D2*
X73617D1*
X78982D2*
X98957D1*
X1041Y31968D2*
X8102D1*
X11583D2*
X13450D1*
X24849D2*
X33443D1*
X41646D2*
X45230D1*
X51935D2*
X52453D1*
X63236D2*
X73448D1*
X79151D2*
X98957D1*
X1041Y31336D2*
X8102D1*
X11583D2*
X13550D1*
X24690D2*
X33552D1*
X42281D2*
X45855D1*
X51935D2*
X52453D1*
X63871D2*
X73547D1*
X79052D2*
X98957D1*
X1041Y30704D2*
X8102D1*
X11583D2*
X14016D1*
X24849D2*
X34008D1*
X42916D2*
X46103D1*
X51935D2*
X52453D1*
X64506D2*
X74013D1*
X78585D2*
X98957D1*
X1041Y30073D2*
X8102D1*
X11583D2*
X13629D1*
X29680D2*
X33621D1*
X43541D2*
X46103D1*
X51935D2*
X52453D1*
X65131D2*
X73626D1*
X78972D2*
X98957D1*
X1041Y29441D2*
X8102D1*
X11583D2*
X13450D1*
X29929D2*
X33443D1*
X44176D2*
X46103D1*
X51935D2*
X52453D1*
X65627D2*
X73448D1*
X79151D2*
X98957D1*
X1041Y28809D2*
X8102D1*
X11583D2*
X13540D1*
X29780D2*
X33542D1*
X44663D2*
X46103D1*
X51935D2*
X52453D1*
X65657D2*
X73547D1*
X79062D2*
X98957D1*
X1041Y28178D2*
X8102D1*
X11583D2*
X13996D1*
X29929D2*
X33998D1*
X51935D2*
X52453D1*
X65657D2*
X73994D1*
X79161D2*
X98957D1*
X1041Y27546D2*
X8102D1*
X11712D2*
X13629D1*
X51935D2*
X52453D1*
X65657D2*
X73636D1*
X79161D2*
X98957D1*
X1041Y26914D2*
X8112D1*
X12347D2*
X13450D1*
X45714D2*
X46103D1*
X51935D2*
X52453D1*
X65657D2*
X73448D1*
X79161D2*
X98957D1*
X1041Y26283D2*
X8261D1*
X12972D2*
X13540D1*
X45655D2*
X46103D1*
X51935D2*
X52453D1*
X65657D2*
X73537D1*
X79161D2*
X98957D1*
X1041Y25651D2*
X8747D1*
X13607D2*
X13976D1*
X32409D2*
X33979D1*
X45655D2*
X46103D1*
X51935D2*
X52453D1*
X65657D2*
X73984D1*
X79161D2*
X98957D1*
X1041Y25019D2*
X9382D1*
X14242D2*
X15593D1*
X33044D2*
X34485D1*
X36001D2*
X38969D1*
X45655D2*
X46103D1*
X51935D2*
X52810D1*
X67017D2*
X98957D1*
X1041Y24388D2*
X10017D1*
X14867D2*
X31220D1*
X36408D2*
X38811D1*
X45655D2*
X46103D1*
X51935D2*
X53445D1*
X59575D2*
X60748D1*
X67642D2*
X98957D1*
X1041Y23756D2*
X10642D1*
X15502D2*
X31845D1*
X36368D2*
X39049D1*
X45655D2*
X46103D1*
X51935D2*
X54070D1*
X59982D2*
X61373D1*
X67880D2*
X98957D1*
X1041Y23124D2*
X11277D1*
X16137D2*
X34663D1*
X35822D2*
X39823D1*
X45655D2*
X46103D1*
X51935D2*
X54705D1*
X59952D2*
X62008D1*
X67880D2*
X98957D1*
X1041Y22493D2*
X11912D1*
X16762D2*
X40378D1*
X45655D2*
X46103D1*
X51935D2*
X58238D1*
X59406D2*
X62663D1*
X67880D2*
X98957D1*
X1041Y21861D2*
X12537D1*
X17397D2*
X40944D1*
X45655D2*
X46103D1*
X51935D2*
X65342D1*
X67691D2*
X98957D1*
X1041Y21229D2*
X13172D1*
X18032D2*
X41728D1*
X45655D2*
X46103D1*
X51935D2*
X65699D1*
X67334D2*
X98957D1*
X1041Y20598D2*
X13807D1*
X18657D2*
X23660D1*
X32270D2*
X42263D1*
X45655D2*
X46103D1*
X61659D2*
X88837D1*
X90234D2*
X98957D1*
X1041Y19966D2*
X14433D1*
X19292D2*
X23243D1*
X32905D2*
X42839D1*
X62333D2*
X85513D1*
X91047D2*
X98957D1*
X1041Y19334D2*
X15068D1*
X19927D2*
X23194D1*
X33540D2*
X43633D1*
X62958D2*
X85513D1*
X91682D2*
X98957D1*
X1041Y18703D2*
X15206D1*
X20552D2*
X23442D1*
X34175D2*
X44149D1*
X45387D2*
X46103D1*
X63593D2*
X85513D1*
X92307D2*
X98957D1*
X1041Y18071D2*
X14571D1*
X21187D2*
X30655D1*
X34800D2*
X46103D1*
X63921D2*
X85513D1*
X92942D2*
X98957D1*
X1041Y17439D2*
X13718D1*
X21822D2*
X31290D1*
X35435D2*
X46103D1*
X63921D2*
X88718D1*
X93577D2*
X98957D1*
X1041Y16808D2*
X13421D1*
X16187D2*
X17598D1*
X22447D2*
X31915D1*
X36070D2*
X46103D1*
X63921D2*
X89353D1*
X94202D2*
X98957D1*
X1041Y16176D2*
X13520D1*
X15691D2*
X18223D1*
X23082D2*
X32550D1*
X36695D2*
X46103D1*
X63921D2*
X83439D1*
X88636D2*
X89978D1*
X94837D2*
X98957D1*
X1041Y15544D2*
X14373D1*
X14843D2*
X18858D1*
X23717D2*
X33185D1*
X37330D2*
X46103D1*
X63921D2*
X71940D1*
X88636D2*
X90613D1*
X95472D2*
X98957D1*
X1041Y14913D2*
X7319D1*
X13061D2*
X19493D1*
X24343D2*
X33810D1*
X37965D2*
X46103D1*
X63921D2*
X71315D1*
X88636D2*
X91248D1*
X96098D2*
X98957D1*
X1041Y14281D2*
X7001D1*
X13379D2*
X20118D1*
X24978D2*
X34445D1*
X38590D2*
X46103D1*
X63921D2*
X70680D1*
X88636D2*
X91873D1*
X96544D2*
X98957D1*
X1041Y13649D2*
X6971D1*
X13409D2*
X14353D1*
X15830D2*
X20753D1*
X25613D2*
X33959D1*
X39225D2*
X45756D1*
X63921D2*
X70045D1*
X73456D2*
X79421D1*
X86067D2*
X92508D1*
X96673D2*
X98957D1*
X1041Y13018D2*
X7190D1*
X13190D2*
X13619D1*
X16564D2*
X21388D1*
X26238D2*
X33631D1*
X39860D2*
X45131D1*
X63921D2*
X69420D1*
X72821D2*
X80056D1*
X86126D2*
X93143D1*
X96673D2*
X98957D1*
X1041Y12386D2*
X7854D1*
X12526D2*
X13371D1*
X16802D2*
X22013D1*
X26873D2*
X33631D1*
X40485D2*
X44585D1*
X63921D2*
X68785D1*
X72196D2*
X80830D1*
X82048D2*
X83310D1*
X85898D2*
X93192D1*
X96673D2*
X98957D1*
X1041Y11754D2*
X13351D1*
X16822D2*
X21993D1*
X27508D2*
X33959D1*
X41120D2*
X44516D1*
X63921D2*
X68150D1*
X72573D2*
X84263D1*
X84945D2*
X93192D1*
X96673D2*
X98957D1*
X1041Y11123D2*
X13351D1*
X16822D2*
X21983D1*
X28133D2*
X34584D1*
X41755D2*
X44516D1*
X72583D2*
X93192D1*
X96673D2*
X98957D1*
X1041Y10491D2*
X13351D1*
X16822D2*
X22449D1*
X28768D2*
X35219D1*
X42380D2*
X44516D1*
X72315D2*
X93192D1*
X96673D2*
X98957D1*
X1041Y9859D2*
X13351D1*
X16822D2*
X24543D1*
X29403D2*
X35854D1*
X43015D2*
X44516D1*
X72315D2*
X93192D1*
X96673D2*
X98957D1*
X1041Y9228D2*
X13401D1*
X16782D2*
X25178D1*
X30028D2*
X36479D1*
X43650D2*
X44793D1*
X72315D2*
X93192D1*
X96673D2*
X98957D1*
X1041Y8596D2*
X13708D1*
X16474D2*
X25803D1*
X30663D2*
X37114D1*
X72315D2*
X93004D1*
X96673D2*
X98957D1*
X1041Y7964D2*
X14790D1*
X15393D2*
X26438D1*
X31268D2*
X37749D1*
X72315D2*
X92369D1*
X96663D2*
X98957D1*
X1041Y7333D2*
X27073D1*
X31576D2*
X38374D1*
X72265D2*
X91744D1*
X96484D2*
X98957D1*
X1041Y6701D2*
X27698D1*
X32201D2*
X39009D1*
X71749D2*
X72565D1*
X73803D2*
X91109D1*
X95969D2*
X98957D1*
X1041Y6069D2*
X28333D1*
X32558D2*
X39644D1*
X74319D2*
X90474D1*
X95334D2*
X98957D1*
X1041Y5438D2*
X29107D1*
X32578D2*
X40269D1*
X74339D2*
X89849D1*
X94699D2*
X98957D1*
X1041Y4806D2*
X18630D1*
X22011D2*
X24057D1*
X26744D2*
X29950D1*
X32270D2*
X34653D1*
X39473D2*
X40904D1*
X61024D2*
X72446D1*
X73922D2*
X89214D1*
X94073D2*
X98957D1*
X1041Y4174D2*
X18630D1*
X22011D2*
X23759D1*
X27041D2*
X29633D1*
X32598D2*
X34237D1*
X39473D2*
X40974D1*
X93438D2*
X98957D1*
X1041Y3543D2*
X18630D1*
X22011D2*
X23739D1*
X27061D2*
X29425D1*
X33173D2*
X34217D1*
X39473D2*
X40329D1*
X92803D2*
X98957D1*
X1041Y2911D2*
X18630D1*
X22011D2*
X23987D1*
X26813D2*
X29405D1*
X92178D2*
X98957D1*
X1041Y2279D2*
X18630D1*
X22011D2*
X24801D1*
X25999D2*
X29633D1*
X91543D2*
X98957D1*
X1041Y1648D2*
X30218D1*
X90908D2*
X98957D1*
X1041Y1016D2*
X30843D1*
X42658D2*
X98957D1*
X58384Y14257D2*
X58063D1*
X58064Y13335D1*
X58017Y13022D1*
X57875Y12726D1*
X57659Y12485D1*
X58381Y12483D1*
X58382Y14258D1*
X11306Y45683D2*
X11185Y45061D1*
X10949Y44472D1*
X10604Y43940D1*
X10165Y43482D1*
X9647Y43117D1*
X9069Y42856D1*
X8452Y42710D1*
X7819Y42684D1*
X7192Y42779D1*
X6595Y42991D1*
X6048Y43313D1*
X5573Y43733D1*
X5187Y44236D1*
X4903Y44802D1*
X4731Y45413D1*
X4679Y46045D1*
X4749Y46675D1*
X4936Y47281D1*
X5235Y47840D1*
X5635Y48332D1*
X6122Y48739D1*
X6632Y49024D1*
X977Y49023D1*
Y977D1*
X30951D1*
X30170Y1754D1*
X29692Y1752D1*
Y2298D1*
X29578Y2515D1*
X29481Y2816D1*
X29443Y3131D1*
X29464Y3447D1*
X29545Y3754D1*
X29689Y4048D1*
X29692Y4598D1*
X30238D1*
X29660Y5158D1*
X29498Y5319D1*
X29089Y5477D1*
X28825Y5652D1*
X27572Y6892D1*
X23889Y10575D1*
X23625Y10411D1*
X23323Y10316D1*
X23007Y10308D1*
X22701Y10388D1*
X22429Y10549D1*
X22212Y10780D1*
X22068Y11062D1*
X22008Y11373D1*
X22037Y11688D1*
X22151Y11983D1*
X22289Y12164D1*
X20840Y13624D1*
X16891Y17574D1*
X15696Y16377D1*
X15561Y16059D1*
X15357Y15818D1*
X15093Y15642D1*
X14791Y15547D1*
X14475Y15539D1*
X14169Y15619D1*
X13897Y15781D1*
X13681Y16012D1*
X13537Y16293D1*
X13477Y16604D1*
X13505Y16919D1*
X13620Y17214D1*
X13812Y17466D1*
X14066Y17654D1*
X14316Y17748D1*
X15510Y18942D1*
X13734Y20730D1*
X8660Y25805D1*
X8458Y26049D1*
X8305Y26327D1*
X8208Y26629D1*
X8170Y26988D1*
Y39370D1*
X8200Y39686D1*
X8289Y39990D1*
X8434Y40272D1*
X8660Y40553D1*
X11340Y43233D1*
X11584Y43435D1*
X11862Y43587D1*
X12164Y43684D1*
X12523Y43723D1*
X13180D1*
X13496Y43693D1*
X13862Y43572D1*
X13647Y43953D1*
X13545Y44253D1*
X13507Y44568D1*
X13536Y44884D1*
X13629Y45187D1*
X13783Y45464D1*
X13991Y45703D1*
X14243Y45894D1*
X14530Y46029D1*
X14839Y46101D1*
X15156Y46108D1*
X15467Y46049D1*
X15760Y45927D1*
X16021Y45747D1*
X16239Y45517D1*
X16295Y45424D1*
X16531Y45703D1*
X16783Y45894D1*
X17070Y46029D1*
X17379Y46101D1*
X17696Y46108D1*
X18007Y46049D1*
X18300Y45927D1*
X18561Y45747D1*
X18779Y45517D1*
X18944Y45246D1*
X19050Y44948D1*
X19093Y44590D1*
X19060Y44275D1*
X18962Y43973D1*
X18805Y43698D1*
X18692Y43573D1*
X19245Y43714D1*
X21008Y43723D1*
X33180D1*
X33496Y43693D1*
X33862Y43572D1*
X33647Y43953D1*
X33545Y44253D1*
X33507Y44568D1*
X33536Y44884D1*
X33629Y45187D1*
X33783Y45464D1*
X33991Y45703D1*
X34261Y45914D1*
Y47174D1*
X34159Y47305D1*
X34015Y47587D1*
X33955Y47898D1*
X33984Y48213D1*
X34098Y48508D1*
X34290Y48760D1*
X34545Y48948D1*
X34739Y49021D1*
X9378Y49023D1*
X9725Y48838D1*
X10233Y48458D1*
X10659Y47989D1*
X10989Y47448D1*
X11209Y46853D1*
X11313Y46228D1*
X11306Y45683D1*
X56299Y45421D2*
X56531Y45703D1*
X56649Y45793D1*
X56645Y47163D1*
X56543Y47286D1*
X56399Y47568D1*
X56339Y47879D1*
X56367Y48194D1*
X56482Y48489D1*
X56674Y48741D1*
X56928Y48929D1*
X57179Y49022D1*
X56170Y49023D1*
X56216Y48736D1*
X56172Y48423D1*
X56042Y48134D1*
X55908Y47975D1*
X55909Y45829D1*
X56021Y45747D1*
X56239Y45517D1*
X56295Y45424D1*
X8689Y12203D2*
X8461Y12213D1*
X8152Y12286D1*
X7863Y12416D1*
X7604Y12598D1*
X7383Y12825D1*
X7210Y13091D1*
X7089Y13384D1*
X7026Y13695D1*
X7023Y14012D1*
X7080Y14324D1*
X7194Y14619D1*
X7363Y14888D1*
X7578Y15120D1*
X7834Y15307D1*
X8121Y15443D1*
X8428Y15522D1*
X9008Y15543D1*
X11690Y15533D1*
X12059Y15502D1*
X12360Y15403D1*
X12637Y15249D1*
X12880Y15046D1*
X13081Y14800D1*
X13231Y14521D1*
X13326Y14219D1*
X13363Y13870D1*
X13333Y13554D1*
X13244Y13250D1*
X13099Y12968D1*
X12904Y12719D1*
X12665Y12510D1*
X12391Y12351D1*
X12091Y12246D1*
X11689Y12203D1*
X9467Y12197D1*
X8690Y12207D1*
X13425Y12113D2*
X13423Y12262D1*
X13480Y12574D1*
X13594Y12869D1*
X13763Y13138D1*
X13978Y13370D1*
X14234Y13557D1*
X14521Y13693D1*
X14828Y13772D1*
X15144Y13792D1*
X15459Y13752D1*
X15760Y13653D1*
X16037Y13499D1*
X16280Y13296D1*
X16481Y13050D1*
X16631Y12771D1*
X16726Y12469D1*
X16763Y12120D1*
X16753Y9620D1*
X16733Y9304D1*
X16644Y9000D1*
X16499Y8718D1*
X16304Y8469D1*
X16065Y8260D1*
X15791Y8101D1*
X15491Y7996D1*
X15178Y7949D1*
X14861Y7963D1*
X14552Y8036D1*
X14263Y8166D1*
X14004Y8348D1*
X13783Y8575D1*
X13610Y8841D1*
X13489Y9134D1*
X13426Y9445D1*
X13417Y9938D1*
X13427Y12120D1*
X19015Y5433D2*
X21943D1*
Y2187D1*
X18697D1*
Y5433D1*
X19015D1*
X26992Y3495D2*
X26900Y3191D1*
X26751Y2911D1*
X26551Y2666D1*
X26306Y2464D1*
X26027Y2313D1*
X25725Y2220D1*
X25409Y2187D1*
X25094Y2216D1*
X24790Y2306D1*
X24509Y2454D1*
X24262Y2653D1*
X24059Y2896D1*
X23907Y3174D1*
X23812Y3476D1*
X23777Y3792D1*
X23805Y4107D1*
X23893Y4412D1*
X24039Y4693D1*
X24236Y4941D1*
X24478Y5146D1*
X24756Y5299D1*
X25057Y5396D1*
X25372Y5433D1*
X25688Y5407D1*
X25993Y5321D1*
X26276Y5176D1*
X26524Y4980D1*
X26730Y4739D1*
X26886Y4463D1*
X26984Y4162D1*
X27023Y3810D1*
X26992Y3495D1*
X51873Y32038D2*
X51881Y20675D1*
X61278D1*
X61585Y20601D1*
X61753Y20478D1*
X63658Y18573D1*
X63823Y18303D1*
X63855Y18098D1*
Y11301D1*
X67756Y11300D1*
X72284Y15822D1*
X72546Y15998D1*
X72866Y16063D1*
X83417Y16056D1*
X83516Y16192D1*
X83753Y16402D1*
X84030Y16556D1*
X84333Y16648D1*
X84649Y16672D1*
X84963Y16629D1*
X85260Y16519D1*
X85527Y16348D1*
X85632Y16257D1*
Y16673D1*
X88578D1*
Y13727D1*
X85988D1*
X86077Y13247D1*
X86044Y12885D1*
X85943Y12584D1*
X85781Y12313D1*
X85563Y12082D1*
X85302Y11902D1*
X85008Y11783D1*
X84696Y11730D1*
X84380Y11744D1*
X84073Y11826D1*
X83792Y11972D1*
X83548Y12174D1*
X83353Y12424D1*
X83216Y12710D1*
X83143Y13018D1*
X83152Y13403D1*
X82338Y12594D1*
X82076Y12418D1*
X81756Y12353D1*
X81121D1*
X80812Y12414D1*
X80539Y12594D1*
X79354Y13780D1*
X73531Y13782D1*
X72092Y12345D1*
X72320Y12126D1*
X72478Y11851D1*
X72554Y11544D1*
X72559Y11430D1*
X72515Y11117D1*
X72386Y10828D1*
X72251Y10669D1*
X72252Y7612D1*
X72192Y7302D1*
X72011Y7030D1*
X71513Y6532D1*
X72420Y6538D1*
X72645Y6708D1*
X72941Y6819D1*
X73257Y6843D1*
X73566Y6778D1*
X73846Y6630D1*
X74074Y6411D1*
X74232Y6136D1*
X74308Y5829D1*
X74314Y5715D1*
X74269Y5402D1*
X74140Y5113D1*
X73935Y4871D1*
X73672Y4696D1*
X73370Y4601D1*
X73054Y4593D1*
X72748Y4673D1*
X72476Y4834D1*
X72415Y4899D1*
X69691Y4892D1*
X60950D1*
X60979Y4604D1*
X60969Y4535D1*
X69374Y4530D1*
X89009D1*
X93261Y8790D1*
X93260Y12968D1*
X89035Y17184D1*
X88418Y17809D1*
Y17627D1*
X85572D1*
Y20473D1*
X88418D1*
Y20304D1*
X88795Y20550D1*
X89091Y20663D1*
X89403Y20718D1*
X89720Y20713D1*
X90031Y20648D1*
X90323Y20526D1*
X90587Y20350D1*
X91840Y19110D1*
X96115Y14835D1*
X96317Y14591D1*
X96470Y14313D1*
X96567Y14011D1*
X96605Y13653D1*
Y8096D1*
X96575Y7781D1*
X96486Y7476D1*
X96341Y7194D1*
X96115Y6913D1*
X90877Y1675D1*
X90632Y1473D1*
X90354Y1320D1*
X90052Y1223D1*
X89694Y1185D1*
X42753D1*
X42887Y977D1*
X99023D1*
Y49023D1*
X93364Y49025D1*
X93725Y48838D1*
X94233Y48458D1*
X94659Y47989D1*
X94989Y47448D1*
X95209Y46853D1*
X95313Y46228D1*
X95306Y45683D1*
X95185Y45061D1*
X94949Y44472D1*
X94604Y43940D1*
X94165Y43482D1*
X93647Y43117D1*
X93069Y42856D1*
X92452Y42710D1*
X91819Y42684D1*
X91192Y42779D1*
X90595Y42991D1*
X90048Y43313D1*
X89573Y43733D1*
X89187Y44236D1*
X88903Y44802D1*
X88731Y45413D1*
X88679Y46045D1*
X88749Y46675D1*
X88936Y47281D1*
X89235Y47840D1*
X89635Y48332D1*
X90122Y48739D1*
X90632Y49024D1*
X57777Y49023D1*
X58130Y48851D1*
X58358Y48632D1*
X58516Y48357D1*
X58592Y48050D1*
X58597Y47936D1*
X58553Y47623D1*
X58424Y47334D1*
X58289Y47175D1*
X58300Y45927D1*
X58561Y45747D1*
X58779Y45517D1*
X58944Y45246D1*
X59050Y44948D1*
X59093Y44590D1*
X59060Y44275D1*
X58962Y43973D1*
X58805Y43698D1*
X58692Y43573D1*
X59245Y43714D1*
X61007Y43723D1*
X73180D1*
X73496Y43693D1*
X73862Y43572D1*
X73647Y43953D1*
X73545Y44253D1*
X73507Y44568D1*
X73536Y44884D1*
X73629Y45187D1*
X73783Y45464D1*
X73991Y45703D1*
X74243Y45894D1*
X74530Y46029D1*
X74839Y46101D1*
X75156Y46108D1*
X75467Y46049D1*
X75760Y45927D1*
X76021Y45747D1*
X76239Y45517D1*
X76295Y45424D1*
X76531Y45703D1*
X76783Y45894D1*
X77070Y46029D1*
X77379Y46101D1*
X77696Y46108D1*
X78007Y46049D1*
X78300Y45927D1*
X78561Y45747D1*
X78779Y45517D1*
X78944Y45246D1*
X79050Y44948D1*
X79093Y44590D1*
X79060Y44275D1*
X78962Y43973D1*
X78805Y43698D1*
X78593Y43462D1*
X78410Y43327D1*
X78698Y43073D1*
X78885Y42818D1*
X79016Y42529D1*
X79083Y42219D1*
X79086Y41902D1*
X79022Y41592D1*
X78896Y41301D1*
X78712Y41043D1*
X78479Y40828D1*
X78207Y40667D1*
X77907Y40565D1*
X77570Y40527D1*
X73869D1*
X73666Y40449D1*
X73355Y40386D1*
X71593Y40377D1*
X59420D1*
X59104Y40407D1*
X58738Y40528D1*
X53869Y40527D1*
X53666Y40449D1*
X53355Y40386D1*
X51593Y40377D1*
X39420D1*
X39104Y40407D1*
X38738Y40528D1*
X33869Y40527D1*
X33666Y40449D1*
X33355Y40386D1*
X31592Y40377D1*
X19420D1*
X19104Y40407D1*
X18738Y40528D1*
X13869Y40527D1*
X13666Y40449D1*
X13218Y40379D1*
X11509Y38671D1*
X11515Y33020D1*
Y27672D1*
X15740Y23456D1*
X31060Y8135D1*
X31262Y7891D1*
X31415Y7613D1*
X31502Y7339D1*
X32121Y6721D1*
X32319Y6474D1*
X32457Y6188D1*
X32528Y5880D1*
X32530Y5563D1*
X32461Y5254D1*
X32326Y4967D1*
X32122Y4712D1*
X31999Y4602D1*
X32538Y4598D1*
Y4112D1*
X33554Y3102D1*
X34467Y3109D1*
X34395Y3216D1*
X34286Y3514D1*
X34252Y3829D1*
X34295Y4142D1*
X34412Y4437D1*
X34596Y4694D1*
X34837Y4900D1*
X35120Y5042D1*
X35429Y5111D1*
X35746Y5105D1*
X36052Y5022D1*
X36329Y4868D1*
X36560Y4652D1*
X36734Y4387D1*
X36796Y4210D1*
X36792Y5118D1*
X39408D1*
Y3104D1*
X39955Y3102D1*
X40886Y4040D1*
X41139Y4247D1*
X41299Y4342D1*
X41338Y4447D1*
X40548Y5224D1*
X34078Y11694D1*
X33880Y11941D1*
X33742Y12227D1*
X33670Y12535D1*
X33669Y12852D1*
X33738Y13161D1*
X33873Y13448D1*
X34069Y13697D1*
X34315Y13897D1*
X34599Y14038D1*
X34724Y14068D1*
X30689Y18099D1*
X24662Y18103D1*
X24347Y18139D1*
X24048Y18243D1*
X23779Y18410D1*
X23554Y18633D1*
X23384Y18901D1*
X23277Y19199D1*
X23239Y19514D1*
X23272Y19829D1*
X23373Y20129D1*
X23539Y20399D1*
X23760Y20626D1*
X24025Y20799D1*
X24323Y20908D1*
X24662Y20949D1*
X31274D1*
X31589Y20914D1*
X31888Y20810D1*
X32164Y20635D1*
X32953Y19859D1*
X43765Y9047D1*
X44916Y9043D1*
X44912Y9180D1*
X44821Y9261D1*
X44644Y9522D1*
X44580Y9842D1*
Y12065D1*
X44640Y12375D1*
X44821Y12647D1*
X46161Y13987D1*
X46167Y19050D1*
Y31085D1*
X43468Y33790D1*
X43062Y33882D1*
X42790Y34044D1*
X42574Y34275D1*
X42430Y34557D1*
X42370Y34867D1*
X42398Y35183D1*
X42513Y35477D1*
X42705Y35729D1*
X42959Y35917D1*
X43255Y36028D1*
X43571Y36052D1*
X43907Y35974D1*
X44229Y36235D1*
X44525Y36346D1*
X44841Y36370D1*
X45151Y36305D1*
X45431Y36157D1*
X45658Y35938D1*
X45816Y35663D1*
X45896Y35274D1*
X46213Y34961D1*
X46180Y35185D1*
X46208Y35500D1*
X46323Y35795D1*
X46515Y36047D1*
X46769Y36235D1*
X47065Y36346D1*
X47381Y36370D1*
X47691Y36305D1*
X47971Y36157D1*
X48077Y36054D1*
X48072Y36641D1*
X41305Y36642D1*
X39793Y35137D1*
X39531Y34961D1*
X39211Y34896D1*
X39023D1*
X39092Y34461D1*
X44397Y29157D1*
X44559Y28926D1*
X44840Y28750D1*
X45150Y28686D1*
X45430Y28538D1*
X45658Y28318D1*
X45816Y28044D1*
X45892Y27737D1*
X45897Y27623D1*
X45853Y27309D1*
X45724Y27020D1*
X45589Y26862D1*
X45590Y20449D1*
X45658Y20381D1*
X45816Y20106D1*
X45892Y19799D1*
X45897Y19685D1*
X45853Y19372D1*
X45724Y19083D1*
X45519Y18841D1*
X45256Y18666D1*
X44954Y18571D1*
X44638Y18563D1*
X44331Y18643D1*
X44059Y18804D1*
X43843Y19035D1*
X43699Y19317D1*
X43660Y19521D1*
X43379Y19595D1*
X43107Y19757D1*
X42891Y19988D1*
X42747Y20270D1*
X42707Y20474D1*
X42426Y20548D1*
X42154Y20709D1*
X41938Y20940D1*
X41794Y21222D1*
X41755Y21426D1*
X41474Y21500D1*
X41202Y21662D1*
X40986Y21893D1*
X40842Y22175D1*
X40802Y22379D1*
X40521Y22453D1*
X40249Y22614D1*
X40033Y22845D1*
X39889Y23127D1*
X39850Y23331D1*
X39569Y23405D1*
X39297Y23567D1*
X39081Y23798D1*
X38937Y24080D1*
X38877Y24390D1*
X38905Y24706D1*
X39020Y25000D1*
X39182Y25213D1*
X39093Y25287D1*
X36047D1*
Y25674D1*
X35798Y25495D1*
X35509Y25364D1*
X35199Y25297D1*
X34882Y25294D1*
X34572Y25358D1*
X34281Y25484D1*
X34023Y25668D1*
X33808Y25901D1*
X33647Y26173D1*
X33545Y26473D1*
X33511Y26911D1*
X33536Y27104D1*
X33629Y27407D1*
X33783Y27684D1*
X33991Y27923D1*
X34188Y28072D1*
X34023Y28208D1*
X33808Y28441D1*
X33647Y28713D1*
X33545Y29013D1*
X33507Y29328D1*
X33536Y29644D1*
X33629Y29947D1*
X33783Y30224D1*
X33991Y30463D1*
X34188Y30612D1*
X34023Y30748D1*
X33808Y30981D1*
X33647Y31253D1*
X33545Y31553D1*
X33507Y31868D1*
X33536Y32184D1*
X33629Y32487D1*
X33783Y32764D1*
X33991Y33003D1*
X34188Y33152D1*
X34023Y33288D1*
X33808Y33521D1*
X33647Y33793D1*
X33545Y34093D1*
X33507Y34408D1*
X33522Y34576D1*
X32967Y34026D1*
X32705Y33849D1*
X32385Y33785D1*
X20003D1*
X19693Y33845D1*
X19421Y34026D1*
X19091Y34355D1*
X19060Y34115D1*
X18962Y33813D1*
X18805Y33538D1*
X18593Y33302D1*
X18410Y33167D1*
X18561Y33047D1*
X18779Y32817D1*
X18835Y32724D1*
X20129Y32732D1*
X22877D1*
X23115Y32902D1*
X23411Y33012D1*
X23727Y33036D1*
X24037Y32972D1*
X24316Y32824D1*
X24544Y32604D1*
X24702Y32330D1*
X24778Y32023D1*
X24784Y31909D1*
X24739Y31595D1*
X24591Y31284D1*
X24702Y31060D1*
X24778Y30753D1*
X24784Y30639D1*
X24739Y30325D1*
X24679Y30190D1*
X27957Y30192D1*
X28195Y30362D1*
X28491Y30472D1*
X28807Y30496D1*
X29117Y30432D1*
X29396Y30284D1*
X29624Y30064D1*
X29782Y29790D1*
X29858Y29483D1*
X29864Y29369D1*
X29819Y29055D1*
X29671Y28744D1*
X29782Y28520D1*
X29858Y28213D1*
X29864Y28099D1*
X29819Y27785D1*
X29759Y27650D1*
X31608Y27652D1*
X31846Y27822D1*
X32142Y27932D1*
X32458Y27956D1*
X32768Y27892D1*
X33048Y27744D1*
X33275Y27524D1*
X33433Y27250D1*
X33509Y26943D1*
X33471Y26515D1*
X33341Y26227D1*
X33137Y25985D1*
X32873Y25810D1*
X32571Y25714D1*
X32285Y25707D1*
X33046Y24951D1*
X34479Y24953D1*
X34703Y25123D1*
X35000Y25234D1*
X35315Y25258D1*
X35625Y25193D1*
X35905Y25045D1*
X36133Y24826D1*
X36291Y24551D1*
X36367Y24244D1*
X36372Y24130D1*
X36328Y23817D1*
X36199Y23528D1*
X35994Y23286D1*
X35731Y23111D1*
X35429Y23016D1*
X35113Y23008D1*
X34806Y23088D1*
X34534Y23249D1*
X34474Y23314D1*
X32703Y23307D1*
X32393Y23368D1*
X32121Y23548D1*
X31089Y24579D1*
X16440Y24577D1*
X16130Y24638D1*
X15858Y24818D1*
X15344Y25328D1*
X15199Y25297D1*
X14882Y25294D1*
X14572Y25358D1*
X14281Y25484D1*
X14023Y25668D1*
X13808Y25901D1*
X13647Y26173D1*
X13545Y26473D1*
X13507Y26788D1*
X13536Y27104D1*
X13629Y27407D1*
X13783Y27684D1*
X13991Y27923D1*
X14188Y28072D1*
X14023Y28208D1*
X13808Y28441D1*
X13647Y28713D1*
X13545Y29013D1*
X13507Y29328D1*
X13536Y29644D1*
X13629Y29947D1*
X13783Y30224D1*
X13991Y30463D1*
X14188Y30612D1*
X14023Y30748D1*
X13808Y30981D1*
X13647Y31253D1*
X13545Y31553D1*
X13507Y31868D1*
X13536Y32184D1*
X13629Y32487D1*
X13783Y32764D1*
X13991Y33003D1*
X14188Y33152D1*
X14023Y33288D1*
X13808Y33521D1*
X13647Y33793D1*
X13545Y34093D1*
X13507Y34408D1*
X13536Y34724D1*
X13629Y35027D1*
X13783Y35304D1*
X13991Y35543D1*
X14188Y35692D1*
X14023Y35828D1*
X13808Y36061D1*
X13647Y36333D1*
X13545Y36633D1*
X13507Y36948D1*
X13536Y37264D1*
X13629Y37567D1*
X13783Y37844D1*
X13991Y38083D1*
X14243Y38274D1*
X14530Y38409D1*
X14839Y38481D1*
X15156Y38488D1*
X15467Y38429D1*
X15760Y38307D1*
X16021Y38127D1*
X16239Y37897D1*
X16295Y37804D1*
X16531Y38083D1*
X16783Y38274D1*
X17070Y38409D1*
X17379Y38481D1*
X17696Y38488D1*
X18007Y38429D1*
X18300Y38307D1*
X18561Y38127D1*
X18779Y37897D1*
X18944Y37626D1*
X19050Y37328D1*
X19093Y36970D1*
X19065Y36704D1*
X20348Y35426D1*
X32038Y35430D1*
X32542Y35928D1*
X32621Y36124D1*
X32748Y36293D1*
X32913Y36424D1*
X33106Y36508D1*
X33337Y36542D1*
X33573Y36549D1*
X33507Y36948D1*
X33536Y37264D1*
X33629Y37567D1*
X33783Y37844D1*
X33991Y38083D1*
X34243Y38274D1*
X34530Y38409D1*
X34839Y38481D1*
X35156Y38488D1*
X35467Y38429D1*
X35760Y38307D1*
X36021Y38127D1*
X36239Y37897D1*
X36299Y37801D1*
X36531Y38083D1*
X36783Y38274D1*
X37070Y38409D1*
X37379Y38481D1*
X37696Y38488D1*
X38007Y38429D1*
X38300Y38307D1*
X38561Y38127D1*
X38779Y37897D1*
X38944Y37626D1*
X39050Y37328D1*
X39093Y36970D1*
X39078Y36750D1*
X40376Y38047D1*
X40637Y38223D1*
X40958Y38288D1*
X52070D1*
X52380Y38227D1*
X52652Y38047D1*
X53528Y37175D1*
X53629Y37567D1*
X53783Y37844D1*
X53991Y38083D1*
X54243Y38274D1*
X54530Y38409D1*
X54839Y38481D1*
X55156Y38488D1*
X55467Y38429D1*
X55760Y38307D1*
X56021Y38127D1*
X56239Y37897D1*
X56299Y37801D1*
X56531Y38083D1*
X56783Y38274D1*
X57070Y38409D1*
X57379Y38481D1*
X57696Y38488D1*
X58007Y38429D1*
X58300Y38307D1*
X58561Y38127D1*
X58779Y37897D1*
X58944Y37626D1*
X59050Y37328D1*
X59093Y36970D1*
X59060Y36655D1*
X59020Y36532D1*
X60428Y36542D1*
X73573Y36549D1*
X73507Y36948D1*
X73536Y37264D1*
X73629Y37567D1*
X73783Y37844D1*
X73991Y38083D1*
X74243Y38274D1*
X74530Y38409D1*
X74839Y38481D1*
X75156Y38488D1*
X75467Y38429D1*
X75760Y38307D1*
X76021Y38127D1*
X76239Y37897D1*
X76299Y37801D1*
X76531Y38083D1*
X76783Y38274D1*
X77070Y38409D1*
X77379Y38481D1*
X77696Y38488D1*
X78007Y38429D1*
X78300Y38307D1*
X78561Y38127D1*
X78779Y37897D1*
X78944Y37626D1*
X79050Y37328D1*
X79093Y36970D1*
X79060Y36655D1*
X78962Y36353D1*
X78805Y36078D1*
X78593Y35842D1*
X78406Y35694D1*
X78561Y35587D1*
X78779Y35357D1*
X78944Y35086D1*
X79050Y34788D1*
X79093Y34430D1*
X79060Y34115D1*
X78962Y33813D1*
X78805Y33538D1*
X78593Y33302D1*
X78406Y33154D1*
X78561Y33047D1*
X78779Y32817D1*
X78944Y32546D1*
X79050Y32248D1*
X79093Y31890D1*
X79060Y31575D1*
X78962Y31273D1*
X78805Y30998D1*
X78593Y30762D1*
X78406Y30614D1*
X78561Y30507D1*
X78779Y30277D1*
X78944Y30006D1*
X79050Y29708D1*
X79093Y29350D1*
X79060Y29035D1*
X78962Y28733D1*
X78805Y28458D1*
X78696Y28333D1*
X79093D1*
Y25287D1*
X76047D1*
Y25674D1*
X75798Y25495D1*
X75509Y25364D1*
X75199Y25297D1*
X74882Y25294D1*
X74572Y25358D1*
X74281Y25484D1*
X74023Y25668D1*
X73808Y25901D1*
X73647Y26173D1*
X73545Y26473D1*
X73507Y26788D1*
X73536Y27104D1*
X73629Y27407D1*
X73783Y27684D1*
X73991Y27923D1*
X74188Y28072D1*
X74023Y28208D1*
X73808Y28441D1*
X73647Y28713D1*
X73545Y29013D1*
X73507Y29328D1*
X73536Y29644D1*
X73629Y29947D1*
X73783Y30224D1*
X73991Y30463D1*
X74188Y30612D1*
X74023Y30748D1*
X73808Y30981D1*
X73647Y31253D1*
X73545Y31553D1*
X73507Y31868D1*
X73536Y32184D1*
X73629Y32487D1*
X73783Y32764D1*
X73991Y33003D1*
X74188Y33152D1*
X74023Y33288D1*
X73808Y33521D1*
X73647Y33793D1*
X73545Y34093D1*
X73507Y34408D1*
X73536Y34724D1*
X73591Y34904D1*
X71556Y34896D1*
X59025D1*
X59093Y34430D1*
X59060Y34115D1*
X58962Y33813D1*
X58805Y33538D1*
X58593Y33302D1*
X58410Y33167D1*
X58561Y33047D1*
X58779Y32817D1*
X58835Y32724D1*
X60129Y32732D1*
X62071D1*
X62381Y32671D1*
X62653Y32491D1*
X65352Y29792D1*
X65528Y29530D1*
X65593Y29210D1*
X65591Y25390D1*
X65722Y25270D1*
X66358D1*
X66667Y25210D1*
X66939Y25029D1*
X67574Y24394D1*
X67751Y24133D1*
X67815Y23812D1*
Y22543D1*
X67767Y22264D1*
X67642Y22037D1*
X67602Y21753D1*
X67472Y21464D1*
X67268Y21223D1*
X67004Y21047D1*
X66703Y20952D1*
X66386Y20944D1*
X66080Y21024D1*
X65808Y21186D1*
X65592Y21417D1*
X65448Y21698D1*
X65388Y22009D1*
X65408Y22236D1*
X65271Y22362D1*
X63183Y22355D1*
X62873Y22415D1*
X62601Y22596D1*
X60615Y24581D1*
X59144Y24577D1*
X59483Y24410D1*
X59710Y24191D1*
X59868Y23916D1*
X59944Y23609D1*
X59950Y23495D1*
X59906Y23182D1*
X59776Y22893D1*
X59572Y22651D1*
X59308Y22476D1*
X59006Y22381D1*
X58690Y22373D1*
X58384Y22453D1*
X58112Y22614D1*
X58051Y22679D1*
X55562Y22672D1*
X55253Y22733D1*
X54981Y22913D1*
X52758Y25136D1*
X52582Y25397D1*
X52517Y25718D1*
Y32355D1*
X52258Y32533D1*
X51892Y32648D1*
X51930Y32385D1*
X51873Y32045D1*
X58300Y15380D2*
D23*
Y14258D1*
X58240Y12482D2*
Y11460D1*
D27*
X58300Y16680D3*
Y15380D3*
X53340Y10001D3*
Y11301D3*
X55800Y16670D3*
Y15370D3*
D28*
X54134Y13970D3*
X55434D3*
D27*
X59750Y15770D3*
Y14470D3*
D28*
X59540Y11460D3*
X58240D3*
D30*
X35560Y3810D3*
D31*
X38100D3*
D32*
X77570Y26810D3*
D33*
X75030D3*
X77570Y29350D3*
X75030D3*
X77570Y31890D3*
X75030D3*
X77570Y34430D3*
X75030D3*
X77570Y36970D3*
X75030D3*
X77570Y39510D3*
X75030D3*
X77570Y42050D3*
X75030D3*
X77570Y44590D3*
X75030D3*
D32*
X57570Y26810D3*
D33*
X55030D3*
X57570Y29350D3*
X55030D3*
X57570Y31890D3*
X55030D3*
X57570Y34430D3*
X55030D3*
X57570Y36970D3*
X55030D3*
X57570Y39510D3*
X55030D3*
X57570Y42050D3*
X55030D3*
X57570Y44590D3*
X55030D3*
D34*
X10190Y13870D3*
D35*
Y7870D3*
D36*
X15090Y10870D3*
D37*
X86995Y19050D3*
D38*
X89535D3*
D39*
X87105Y15200D3*
D40*
X84605D3*
Y13200D3*
X87105D3*
D41*
X79835Y10490D3*
X91875D3*
D32*
X37570Y26810D3*
D33*
X35030D3*
X37570Y29350D3*
X35030D3*
X37570Y31890D3*
X35030D3*
X37570Y34430D3*
X35030D3*
X37570Y36970D3*
X35030D3*
X37570Y39510D3*
X35030D3*
X37570Y42050D3*
X35030D3*
X37570Y44590D3*
X35030D3*
D32*
X17570Y26810D3*
D33*
X15030D3*
X17570Y29350D3*
X15030D3*
X17570Y31890D3*
X15030D3*
X17570Y34430D3*
X15030D3*
X17570Y36970D3*
X15030D3*
X17570Y39510D3*
X15030D3*
X17570Y42050D3*
X15030D3*
X17570Y44590D3*
X15030D3*
D37*
X31115Y3175D3*
D38*
Y5715D3*
D46*
X20320Y3810D3*
D47*
X22860D3*
X25400D3*
M02*
