G04 DipTrace 2.4.0.2*
%INMainBoard.GTS*%
%MOMM*%
%ADD24R,1.0X1.1*%
%ADD25R,1.1X1.0*%
%ADD26R,1.4X2.25*%
%ADD27R,0.7X0.9*%
%ADD29R,2.25X1.4*%
%ADD30C,1.27*%
%ADD31R,1.27X1.27*%
%ADD32R,1.7X1.7*%
%ADD33C,1.7*%
%ADD34O,5.0X2.0*%
%ADD35O,4.5X2.0*%
%ADD36O,2.0X4.5*%
%ADD37R,1.5X1.5*%
%ADD38C,1.5*%
%ADD39R,1.6X1.6*%
%ADD40C,1.6*%
%ADD41C,3.3*%
%ADD42R,1.35X1.0*%
%ADD43R,1.05X0.45*%
%ADD45R,1.1X0.6*%
%ADD46R,1.9X1.9*%
%ADD47C,1.9*%
%ADD49R,0.3X1.6*%
%ADD50R,1.6X0.3*%
%ADD51R,0.6X2.0*%
%ADD53R,2.0X1.2*%
%ADD56C,3.0*%
%FSLAX53Y53*%
G04*
G71*
G90*
G75*
G01*
%LNTopMask*%
%LPD*%
D24*
X24765Y11430D3*
Y13130D3*
D25*
X28575Y9525D3*
X26875D3*
D26*
X33020Y13335D3*
Y9935D3*
D24*
X36830Y12700D3*
Y11000D3*
D27*
X58420Y5515D3*
Y4215D3*
D24*
X14605Y18098D3*
Y19797D3*
D25*
X18415Y16193D3*
X16715D3*
D26*
X22860Y20003D3*
Y16602D3*
D24*
X26670Y19367D3*
Y17668D3*
D29*
X73025Y3810D3*
X76425D3*
X73025Y11430D3*
X76425D3*
D25*
X74295Y7302D3*
X75995D3*
X74295Y15081D3*
X75995D3*
D26*
X10160Y17780D3*
Y21180D3*
D29*
X21749Y9049D3*
X18349D3*
D24*
X45350Y2600D3*
Y4300D3*
X53950Y4400D3*
Y2700D3*
D25*
X49212Y33655D3*
X50913D3*
D30*
X35560Y3810D3*
D31*
X38100D3*
D56*
X8000Y46000D3*
X92000D3*
D32*
X77570Y26810D3*
D33*
X75030D3*
X77570Y29350D3*
X75030D3*
X77570Y31890D3*
X75030D3*
X77570Y34430D3*
X75030D3*
X77570Y36970D3*
X75030D3*
X77570Y39510D3*
X75030D3*
X77570Y42050D3*
X75030D3*
X77570Y44590D3*
X75030D3*
D32*
X57570Y26810D3*
D33*
X55030D3*
X57570Y29350D3*
X55030D3*
X57570Y31890D3*
X55030D3*
X57570Y34430D3*
X55030D3*
X57570Y36970D3*
X55030D3*
X57570Y39510D3*
X55030D3*
X57570Y42050D3*
X55030D3*
X57570Y44590D3*
X55030D3*
D34*
X10190Y13870D3*
D35*
Y7870D3*
D36*
X15090Y10870D3*
D37*
X86995Y19050D3*
D38*
X89535D3*
D39*
X87105Y15200D3*
D40*
X84605D3*
Y13200D3*
X87105D3*
D41*
X79835Y10490D3*
X91875D3*
D32*
X37570Y26810D3*
D33*
X35030D3*
X37570Y29350D3*
X35030D3*
X37570Y31890D3*
X35030D3*
X37570Y34430D3*
X35030D3*
X37570Y36970D3*
X35030D3*
X37570Y39510D3*
X35030D3*
X37570Y42050D3*
X35030D3*
X37570Y44590D3*
X35030D3*
D32*
X17570Y26810D3*
D33*
X15030D3*
X17570Y29350D3*
X15030D3*
X17570Y31890D3*
X15030D3*
X17570Y34430D3*
X15030D3*
X17570Y36970D3*
X15030D3*
X17570Y39510D3*
X15030D3*
X17570Y42050D3*
X15030D3*
X17570Y44590D3*
X15030D3*
D42*
X70492Y7780D3*
Y9280D3*
X69850Y5080D3*
Y3580D3*
D24*
X41275Y3175D3*
Y4875D3*
X56515Y3810D3*
Y5510D3*
D25*
X61754Y2381D3*
X60054D3*
D24*
X61754Y5715D3*
Y4015D3*
D25*
X65564Y2381D3*
X63864D3*
X46038Y33655D3*
X44338D3*
D43*
X51117Y48736D3*
Y47936D3*
Y47136D3*
Y46336D3*
X52717D3*
Y47136D3*
Y47936D3*
Y48736D3*
X42227Y46355D3*
Y47155D3*
Y47955D3*
Y48755D3*
X40627D3*
Y47955D3*
Y47155D3*
Y46355D3*
D37*
X31115Y3175D3*
D38*
Y5715D3*
D45*
X26670Y13970D3*
Y13020D3*
Y12070D3*
X29370D3*
Y13970D3*
X16510Y20637D3*
Y19688D3*
Y18738D3*
X19210D3*
Y20637D3*
D46*
X20320Y3810D3*
D47*
X22860D3*
X25400D3*
D49*
X52820Y8000D3*
X53320D3*
X53820D3*
X54320D3*
X54820D3*
X55320D3*
X55820D3*
X56320D3*
X56820D3*
X57320D3*
X57820D3*
X58320D3*
X58820D3*
X59320D3*
X59820D3*
X60320D3*
D50*
X62270Y9950D3*
Y10450D3*
Y10950D3*
Y11450D3*
Y11950D3*
Y12450D3*
Y12950D3*
Y13450D3*
Y13950D3*
Y14450D3*
Y14950D3*
Y15450D3*
Y15950D3*
Y16450D3*
Y16950D3*
Y17450D3*
D49*
X60320Y19400D3*
X59820D3*
X59320D3*
X58820D3*
X58320D3*
X57820D3*
X57320D3*
X56820D3*
X56320D3*
X55820D3*
X55320D3*
X54820D3*
X54320D3*
X53820D3*
X53320D3*
X52820D3*
D50*
X50870Y17450D3*
Y16950D3*
Y16450D3*
Y15950D3*
Y15450D3*
Y14950D3*
Y14450D3*
Y13950D3*
Y13450D3*
Y12950D3*
Y12450D3*
Y11950D3*
Y11450D3*
Y10950D3*
Y10450D3*
Y9950D3*
D51*
X49848Y42545D3*
X48578D3*
X47308D3*
X46038D3*
X44768D3*
X43498D3*
X42228D3*
X40958D3*
Y37145D3*
X42228D3*
X43498D3*
X44768D3*
X46038D3*
X47308D3*
X48578D3*
X49848D3*
D53*
X51450Y4600D3*
X47750D3*
Y2400D3*
X51450D3*
M02*
