G04 DipTrace 2.4.0.2*
%INMainBoard.GBS*%
%MOMM*%
%ADD27R,0.7X0.9*%
%ADD28R,0.9X0.7*%
%ADD30C,1.27*%
%ADD31R,1.27X1.27*%
%ADD32R,1.7X1.7*%
%ADD33C,1.7*%
%ADD34O,5.0X2.0*%
%ADD35O,4.5X2.0*%
%ADD36O,2.0X4.5*%
%ADD37R,1.5X1.5*%
%ADD38C,1.5*%
%ADD39R,1.6X1.6*%
%ADD40C,1.6*%
%ADD41C,3.3*%
%ADD46R,1.9X1.9*%
%ADD47C,1.9*%
%ADD56C,3.0*%
%FSLAX53Y53*%
G04*
G71*
G90*
G75*
G01*
%LNBotMask*%
%LPD*%
D27*
X58300Y16680D3*
Y15380D3*
X53340Y10001D3*
Y11301D3*
X55800Y16670D3*
Y15370D3*
D28*
X54134Y13970D3*
X55434D3*
D27*
X59750Y15770D3*
Y14470D3*
D28*
X59540Y11460D3*
X58240D3*
D30*
X35560Y3810D3*
D31*
X38100D3*
D56*
X8000Y46000D3*
X92000D3*
D32*
X77570Y26810D3*
D33*
X75030D3*
X77570Y29350D3*
X75030D3*
X77570Y31890D3*
X75030D3*
X77570Y34430D3*
X75030D3*
X77570Y36970D3*
X75030D3*
X77570Y39510D3*
X75030D3*
X77570Y42050D3*
X75030D3*
X77570Y44590D3*
X75030D3*
D32*
X57570Y26810D3*
D33*
X55030D3*
X57570Y29350D3*
X55030D3*
X57570Y31890D3*
X55030D3*
X57570Y34430D3*
X55030D3*
X57570Y36970D3*
X55030D3*
X57570Y39510D3*
X55030D3*
X57570Y42050D3*
X55030D3*
X57570Y44590D3*
X55030D3*
D34*
X10190Y13870D3*
D35*
Y7870D3*
D36*
X15090Y10870D3*
D37*
X86995Y19050D3*
D38*
X89535D3*
D39*
X87105Y15200D3*
D40*
X84605D3*
Y13200D3*
X87105D3*
D41*
X79835Y10490D3*
X91875D3*
D32*
X37570Y26810D3*
D33*
X35030D3*
X37570Y29350D3*
X35030D3*
X37570Y31890D3*
X35030D3*
X37570Y34430D3*
X35030D3*
X37570Y36970D3*
X35030D3*
X37570Y39510D3*
X35030D3*
X37570Y42050D3*
X35030D3*
X37570Y44590D3*
X35030D3*
D32*
X17570Y26810D3*
D33*
X15030D3*
X17570Y29350D3*
X15030D3*
X17570Y31890D3*
X15030D3*
X17570Y34430D3*
X15030D3*
X17570Y36970D3*
X15030D3*
X17570Y39510D3*
X15030D3*
X17570Y42050D3*
X15030D3*
X17570Y44590D3*
X15030D3*
D37*
X31115Y3175D3*
D38*
Y5715D3*
D46*
X20320Y3810D3*
D47*
X22860D3*
X25400D3*
M02*
