G04 DipTrace 2.4.0.2*
%INDaughter-IsolatedRS2321.1.GBL*%
%MOMM*%
%ADD13C,0.4*%
%ADD14C,0.6*%
%ADD16C,1.5*%
%ADD18C,0.635*%
%ADD19C,0.33*%
%ADD25R,1.69X1.69*%
%ADD26C,1.69*%
%ADD27C,4.76*%
%ADD28C,1.6*%
%ADD29R,1.6X1.6*%
%ADD37C,1.8*%
%ADD38C,0.914*%
%FSLAX53Y53*%
G04*
G71*
G90*
G75*
G01*
%LNBottom*%
%LPD*%
X44133Y17463D2*
D14*
Y26353D1*
X44768Y26988D1*
X45085Y8050D2*
D13*
Y12700D1*
X44133Y13653D1*
Y17463D1*
X93270Y1730D2*
D14*
X90730D1*
X44943D1*
X42863Y3810D1*
Y5397D1*
X40640Y7620D1*
X38417D1*
X36512Y9525D1*
Y17145D1*
X34290Y19367D1*
X29845D1*
X25397Y23815D1*
X20163D1*
X19528Y23180D1*
Y19390D1*
X19600D1*
Y21930D1*
X45085Y6667D2*
D13*
X44133D1*
X42863Y5398D1*
X45525Y20227D2*
Y17096D1*
Y14410D1*
X45403Y14287D1*
X45525Y17096D2*
X46623D1*
X47625Y18097D1*
Y28575D1*
X46990Y29210D1*
X62075Y19205D2*
Y19848D1*
X68263Y26035D1*
Y29845D1*
X65801Y32307D1*
X64135Y33972D1*
X59690D1*
X57954Y35708D1*
X56039Y37624D1*
X55880Y37782D1*
Y40435D1*
X54219D1*
X90390Y11505D2*
X94381D1*
X96213Y13336D1*
Y34294D1*
X93672Y36834D1*
X90729D1*
X90390Y36495D1*
X88970Y29540D2*
Y31179D1*
X90497Y32706D1*
Y36388D1*
X90390Y36495D1*
X69989D1*
X65801Y32307D1*
X58315Y14400D2*
X56680Y16035D1*
Y34434D1*
X57954Y35708D1*
X55880Y38100D2*
X56039Y37624D1*
X76049Y16512D2*
Y14924D1*
X76843Y14130D1*
X89227D1*
X93672Y18576D1*
Y23523D1*
X91810Y25385D1*
X79860Y15242D2*
X88909D1*
X91767Y18099D1*
Y19802D1*
X91810Y19845D1*
X79860Y21592D2*
X85734D1*
X86845Y22704D1*
X91721D1*
X91810Y22615D1*
X80971Y22862D2*
X83988D1*
X85099Y23974D1*
X88944D1*
X88970Y24000D1*
X22140Y19390D2*
D16*
Y21930D1*
Y18489D1*
X21114Y17463D1*
X3969D1*
X1746Y19685D1*
Y30797D1*
X2382Y31433D1*
X3652Y32703D1*
X4766Y33817D1*
X2382Y31436D2*
Y31433D1*
X3652Y32706D2*
Y32703D1*
X43180Y13018D2*
D13*
X42227Y13970D1*
Y21907D1*
X36512Y27623D1*
X11270D1*
X6986Y23339D1*
Y21844D1*
X6900Y21930D1*
X43180Y11748D2*
X42863D1*
X41275Y13335D1*
Y21590D1*
X36195Y26670D1*
X13016D1*
X9526Y23180D1*
Y21844D1*
X9440Y21930D1*
X42863Y10477D2*
X40322Y13018D1*
Y21273D1*
X35877Y25718D1*
X14604D1*
X12066Y23180D1*
Y21844D1*
X11980Y21930D1*
X58426Y9320D2*
Y13024D1*
X60960Y15557D1*
Y21273D1*
X66358Y26670D1*
X60008Y10477D2*
X61913D1*
X64453Y13018D1*
Y18098D1*
X68263Y21907D1*
X75094D1*
X79857Y26670D1*
X60008Y11748D2*
X61913D1*
X63817Y13653D1*
Y18415D1*
X68263Y22860D1*
X74618D1*
X76208Y24450D1*
Y25400D1*
X60643Y13018D2*
X61595D1*
X62865Y14287D1*
Y18415D1*
X68583Y24133D1*
X74462D1*
X66358Y12630D2*
D14*
Y16510D1*
X61278Y8255D2*
X63183D1*
X66358Y11430D1*
Y12630D1*
D38*
X44133Y17463D3*
X44768Y26988D3*
X45085Y8050D3*
X44133Y17463D3*
X45085Y6667D3*
X45403Y14287D3*
X45525Y20227D3*
X46990Y29210D3*
D3*
X62075Y19205D3*
X58315Y14400D3*
X76049Y16512D3*
X79860Y15242D3*
Y21592D3*
X80971Y22862D3*
X4766Y33817D3*
D3*
X43180Y13018D3*
Y11748D3*
X42863Y10477D3*
X58426Y9320D3*
X66358Y26670D3*
X60008Y10477D3*
X79857Y26670D3*
X60008Y11748D3*
X76208Y25400D3*
X60643Y13018D3*
X74462Y24133D3*
X66358Y12630D3*
Y16510D3*
D3*
D3*
X61278Y8255D3*
X66358Y12630D3*
X2382Y31436D3*
X3652Y32706D3*
X19050Y40640D3*
Y39370D3*
Y38100D3*
Y36830D3*
Y35560D3*
Y34290D3*
X17780Y40640D3*
X16510D3*
X11430Y41910D3*
X12700D3*
X13970D3*
X15240D3*
X2540Y34290D3*
Y36830D3*
Y39370D3*
Y41910D3*
X4445Y21590D3*
Y24765D3*
Y27940D3*
X46990Y43815D3*
X44450D3*
X41910D3*
X39370D3*
X36830D3*
X34290D3*
X31750D3*
X29210D3*
X47625Y34290D3*
X45085D3*
X41910D3*
X38735D3*
X35560D3*
X32385D3*
X55880Y43180D3*
X58420D3*
X60960D3*
X63500D3*
X66040D3*
X68580D3*
X71120D3*
X73660D3*
X76200D3*
X78740D3*
X85090D3*
X87630D3*
X55880Y38100D3*
Y35560D3*
Y33020D3*
Y30480D3*
X72390Y7620D3*
X74930D3*
X83820D3*
X1334Y44136D2*
D18*
X48519D1*
X1334Y43504D2*
X48519D1*
X1334Y42872D2*
X48519D1*
X1334Y42241D2*
X48519D1*
X1334Y41609D2*
X45731D1*
X47465D2*
X48519D1*
X1334Y40977D2*
X45225D1*
X47981D2*
X48519D1*
X1334Y40346D2*
X45116D1*
X48080D2*
X48519D1*
X1334Y39714D2*
X45304D1*
X47892D2*
X48519D1*
X1334Y39082D2*
X46098D1*
X47108D2*
X48519D1*
X1334Y38451D2*
X48519D1*
X1334Y37819D2*
X48519D1*
X1334Y37187D2*
X48519D1*
X1334Y36556D2*
X48519D1*
X1334Y35924D2*
X48519D1*
X1334Y35292D2*
X48519D1*
X1334Y34661D2*
X3533D1*
X5972D2*
X48519D1*
X1334Y34029D2*
X2898D1*
X6240D2*
X48519D1*
X1334Y33397D2*
X2273D1*
X6190D2*
X48519D1*
X5793Y32766D2*
X48519D1*
X5158Y32134D2*
X48519D1*
X4523Y31502D2*
X48519D1*
X3898Y30871D2*
X48519D1*
X3263Y30239D2*
X48519D1*
X3234Y29607D2*
X48519D1*
X3234Y28976D2*
X48519D1*
X3234Y28344D2*
X10717D1*
X37067D2*
X48519D1*
X3234Y27712D2*
X10062D1*
X37722D2*
X43836D1*
X45699D2*
X48519D1*
X3234Y27081D2*
X9427D1*
X38347D2*
X43419D1*
X45957D2*
X48519D1*
X3234Y26449D2*
X8802D1*
X38982D2*
X43102D1*
X45828D2*
X48519D1*
X3234Y25817D2*
X8167D1*
X39617D2*
X43092D1*
X45173D2*
X48519D1*
X3234Y25186D2*
X7532D1*
X40242D2*
X43092D1*
X45173D2*
X48519D1*
X3234Y24554D2*
X6907D1*
X14743D2*
X35740D1*
X40877D2*
X43092D1*
X45173D2*
X48519D1*
X3234Y23922D2*
X6272D1*
X14108D2*
X36375D1*
X41512D2*
X43092D1*
X45173D2*
X48519D1*
X3234Y23291D2*
X5369D1*
X13473D2*
X13898D1*
X15150D2*
X16432D1*
X17690D2*
X21512D1*
X22770D2*
X24052D1*
X25310D2*
X37010D1*
X42137D2*
X43092D1*
X45173D2*
X48519D1*
X3234Y22659D2*
X5369D1*
X18404D2*
X20797D1*
X26024D2*
X37635D1*
X42772D2*
X43094D1*
X45173D2*
X48519D1*
X3234Y22027D2*
X5369D1*
X18593D2*
X20609D1*
X26213D2*
X38270D1*
X45173D2*
X48519D1*
X3234Y21396D2*
X5369D1*
X18493D2*
X20658D1*
X26113D2*
X38905D1*
X45173D2*
X48519D1*
X3234Y20764D2*
X5369D1*
X18027D2*
X20658D1*
X25647D2*
X39391D1*
X45173D2*
X48519D1*
X3372Y20132D2*
X5567D1*
X18394D2*
X20658D1*
X26014D2*
X39391D1*
X45173D2*
X48519D1*
X4007Y19501D2*
X5369D1*
X18593D2*
X20609D1*
X26213D2*
X39391D1*
X45173D2*
X48519D1*
X26123Y18869D2*
X39391D1*
X45173D2*
X48519D1*
X25657Y18237D2*
X39391D1*
X45173D2*
X48519D1*
X23315Y17606D2*
X39391D1*
X45312D2*
X48519D1*
X36571Y16974D2*
X39391D1*
X45213D2*
X48519D1*
X36571Y16342D2*
X39391D1*
X45064D2*
X48519D1*
X36571Y15711D2*
X39391D1*
X45064D2*
X48519D1*
X36571Y15079D2*
X39391D1*
X45064D2*
X48519D1*
X36571Y14447D2*
X39391D1*
X45064D2*
X48519D1*
X36571Y13816D2*
X39391D1*
X45263D2*
X48519D1*
X36571Y13184D2*
X39391D1*
X45878D2*
X48519D1*
X36571Y12552D2*
X39520D1*
X46017D2*
X48519D1*
X36571Y11921D2*
X40125D1*
X46017D2*
X48519D1*
X36571Y11289D2*
X40750D1*
X46017D2*
X48519D1*
X36571Y10657D2*
X41385D1*
X46017D2*
X48519D1*
X36571Y10026D2*
X41762D1*
X46017D2*
X48519D1*
X36571Y9394D2*
X42477D1*
X43248D2*
X44153D1*
X46017D2*
X48519D1*
X36571Y8762D2*
X44143D1*
X46027D2*
X48519D1*
X36571Y8131D2*
X43895D1*
X46275D2*
X48519D1*
X36571Y7499D2*
X44034D1*
X46136D2*
X48519D1*
X36571Y6867D2*
X38349D1*
X39657D2*
X48519D1*
X36571Y6236D2*
X36920D1*
X41085D2*
X48519D1*
X41711Y5604D2*
X48519D1*
X42088Y4972D2*
X48519D1*
X42296Y4341D2*
X48519D1*
X42385Y3709D2*
X48519D1*
X42346Y3077D2*
X48519D1*
X42177Y2446D2*
X48519D1*
X41859Y1814D2*
X48519D1*
X42306Y3283D2*
X42185Y2661D1*
X41949Y2072D1*
X41633Y1580D1*
X45085Y1588D1*
X48578D1*
X48577Y44767D1*
X1270Y44768D1*
Y32335D1*
X3760Y34823D1*
X4007Y35021D1*
X4293Y35159D1*
X4601Y35231D1*
X4918Y35232D1*
X5227Y35163D1*
X5514Y35028D1*
X5763Y34832D1*
X5963Y34586D1*
X6104Y34302D1*
X6178Y33994D1*
X6182Y33678D1*
X6116Y33368D1*
X5983Y33080D1*
X5772Y32811D1*
X3170Y30209D1*
X3169Y20270D1*
X4555Y18888D1*
X5526Y18885D1*
X5438Y19208D1*
X5433Y19525D1*
X5496Y19836D1*
X5624Y20126D1*
X5811Y20382D1*
X5892Y20454D1*
X5427Y20457D1*
Y23403D1*
X6112D1*
X6243Y23798D1*
X6593Y24180D1*
X10652Y28240D1*
X10912Y28419D1*
X11270Y28495D1*
X36512D1*
X36823Y28438D1*
X37130Y28240D1*
X42845Y22525D1*
X43024Y22265D1*
X43100Y21907D1*
Y17929D1*
X43165Y18039D1*
X43160Y21908D1*
Y26353D1*
X43211Y26664D1*
X43367Y26950D1*
X43676Y27272D1*
X43782Y27540D1*
X43974Y27792D1*
X44228Y27980D1*
X44525Y28091D1*
X44840Y28115D1*
X45150Y28051D1*
X45430Y27903D1*
X45658Y27683D1*
X45816Y27409D1*
X45892Y27102D1*
X45897Y26988D1*
X45853Y26674D1*
X45724Y26385D1*
X45519Y26144D1*
X45256Y25969D1*
X45114Y25924D1*
X45105Y24130D1*
Y18028D1*
X45181Y17884D1*
X45257Y17577D1*
X45262Y17463D1*
X45218Y17149D1*
X45089Y16860D1*
X45006Y16762D1*
X45005Y14020D1*
X45702Y13317D1*
X45881Y13057D1*
X45958Y12700D1*
Y8761D1*
X46133Y8471D1*
X46209Y8164D1*
X46215Y8050D1*
X46171Y7737D1*
X46041Y7448D1*
X45837Y7206D1*
X45573Y7031D1*
X45271Y6936D1*
X44955Y6928D1*
X44649Y7008D1*
X44377Y7169D1*
X44161Y7400D1*
X44017Y7682D1*
X43957Y7993D1*
X43985Y8308D1*
X44100Y8603D1*
X44214Y8752D1*
X44212Y11294D1*
X44136Y11145D1*
X43907Y10887D1*
X43987Y10592D1*
X43992Y10477D1*
X43948Y10164D1*
X43819Y9875D1*
X43614Y9634D1*
X43351Y9459D1*
X43049Y9363D1*
X42733Y9355D1*
X42426Y9435D1*
X42154Y9597D1*
X41938Y9828D1*
X41794Y10110D1*
X41747Y10352D1*
X39705Y12400D1*
X39526Y12660D1*
X39450Y13018D1*
Y20905D1*
X35517Y24844D1*
X14972Y24845D1*
X13053Y22932D1*
X13250Y22663D1*
X13431Y22922D1*
X13668Y23132D1*
X13945Y23286D1*
X14248Y23378D1*
X14564Y23402D1*
X14878Y23359D1*
X15175Y23249D1*
X15442Y23078D1*
X15667Y22855D1*
X15790Y22663D1*
X15971Y22922D1*
X16208Y23132D1*
X16485Y23286D1*
X16788Y23378D1*
X17104Y23402D1*
X17418Y23359D1*
X17715Y23249D1*
X17982Y23078D1*
X18207Y22855D1*
X18378Y22588D1*
X18488Y22291D1*
X18533Y21930D1*
X18499Y21615D1*
X18398Y21314D1*
X18236Y21043D1*
X18018Y20812D1*
X17798Y20660D1*
X17982Y20538D1*
X18207Y20315D1*
X18378Y20048D1*
X18488Y19751D1*
X18533Y19390D1*
X18499Y19075D1*
X18433Y18878D1*
X20528Y18885D1*
X20704Y19065D1*
X20678Y19208D1*
X20673Y19525D1*
X20718Y19748D1*
X20717Y21555D1*
X20678Y21748D1*
X20673Y22065D1*
X20736Y22376D1*
X20864Y22666D1*
X21051Y22922D1*
X21288Y23132D1*
X21565Y23286D1*
X21868Y23378D1*
X22184Y23402D1*
X22498Y23359D1*
X22795Y23249D1*
X23062Y23078D1*
X23287Y22855D1*
X23410Y22663D1*
X23591Y22922D1*
X23828Y23132D1*
X24105Y23286D1*
X24408Y23378D1*
X24724Y23402D1*
X25038Y23359D1*
X25335Y23249D1*
X25602Y23078D1*
X25827Y22855D1*
X25998Y22588D1*
X26108Y22291D1*
X26153Y21930D1*
X26119Y21615D1*
X26018Y21314D1*
X25856Y21043D1*
X25638Y20812D1*
X25418Y20660D1*
X25602Y20538D1*
X25827Y20315D1*
X25998Y20048D1*
X26108Y19751D1*
X26153Y19390D1*
X26119Y19075D1*
X26018Y18774D1*
X25856Y18503D1*
X25638Y18272D1*
X25377Y18092D1*
X25083Y17973D1*
X24771Y17920D1*
X24455Y17934D1*
X24148Y18016D1*
X23867Y18162D1*
X23623Y18364D1*
X23556Y18450D1*
Y18349D1*
X23490Y18039D1*
X23357Y17752D1*
X23125Y17462D1*
X36195Y17463D1*
X36463Y17307D1*
X36513Y17145D1*
Y5804D1*
X36869Y6147D1*
X37392Y6505D1*
X37973Y6758D1*
X38592Y6896D1*
X39226Y6913D1*
X39851Y6810D1*
X40446Y6590D1*
X40988Y6260D1*
X41457Y5834D1*
X41837Y5326D1*
X42113Y4756D1*
X42276Y4143D1*
X42321Y3600D1*
X42306Y3283D1*
X47987Y40120D2*
X47883Y39821D1*
X47715Y39552D1*
X47492Y39327D1*
X47224Y39157D1*
X46926Y39050D1*
X46612Y39012D1*
X46296Y39045D1*
X45996Y39146D1*
X45726Y39311D1*
X45499Y39532D1*
X45327Y39798D1*
X45217Y40096D1*
X45176Y40410D1*
X45206Y40725D1*
X45305Y41026D1*
X45468Y41298D1*
X45687Y41527D1*
X45951Y41702D1*
X46247Y41814D1*
X46561Y41857D1*
X46877Y41831D1*
X47179Y41734D1*
X47452Y41574D1*
X47683Y41357D1*
X47860Y41094D1*
X47975Y40799D1*
X48022Y40435D1*
X47987Y40120D1*
X43255Y16762D2*
X43096Y17033D1*
X43100Y14337D1*
X43260Y14288D1*
Y16738D1*
X43096Y17033D1*
X54843Y43664D2*
X87746D1*
X54843Y43033D2*
X88381D1*
X54843Y42401D2*
X89006D1*
X54853Y41769D2*
X58744D1*
X59853D2*
X89641D1*
X54853Y41138D2*
X58000D1*
X60598D2*
X90276D1*
X54853Y40506D2*
X57812D1*
X60786D2*
X90901D1*
X54853Y39874D2*
X57931D1*
X60667D2*
X91536D1*
X54863Y39243D2*
X58456D1*
X60141D2*
X88996D1*
X91782D2*
X92168D1*
X54863Y38611D2*
X88123D1*
X54863Y37979D2*
X87657D1*
X54863Y37348D2*
X87399D1*
X93389D2*
X94066D1*
X54873Y36716D2*
X87280D1*
X93499D2*
X94701D1*
X54873Y36084D2*
X87299D1*
X93479D2*
X95326D1*
X54873Y35453D2*
X87458D1*
X93320D2*
X95961D1*
X54883Y34821D2*
X87776D1*
X93002D2*
X96596D1*
X54883Y34189D2*
X88321D1*
X92457D2*
X97231D1*
X54883Y33558D2*
X89492D1*
X91286D2*
X97866D1*
X54883Y32926D2*
X97896D1*
X54893Y32294D2*
X97896D1*
X54893Y31663D2*
X97896D1*
X54893Y31031D2*
X88619D1*
X89321D2*
X97896D1*
X54893Y30399D2*
X87657D1*
X90284D2*
X97896D1*
X54902Y29768D2*
X87409D1*
X90532D2*
X97896D1*
X54902Y29136D2*
X87448D1*
X93032D2*
X97896D1*
X54902Y28504D2*
X87795D1*
X93350D2*
X97896D1*
X54902Y27873D2*
X87865D1*
X93360D2*
X97896D1*
X54912Y27241D2*
X65322D1*
X67394D2*
X78816D1*
X80898D2*
X87468D1*
X93082D2*
X97896D1*
X54912Y26609D2*
X64995D1*
X67553D2*
X78499D1*
X81047D2*
X87399D1*
X92774D2*
X97896D1*
X54912Y25978D2*
X64370D1*
X67315D2*
X75175D1*
X77247D2*
X77864D1*
X80808D2*
X87617D1*
X93270D2*
X97896D1*
X54912Y25346D2*
X63735D1*
X66332D2*
X75016D1*
X79826D2*
X88202D1*
X89738D2*
X90226D1*
X93389D2*
X97896D1*
X54922Y24714D2*
X63100D1*
X65697D2*
X67862D1*
X79201D2*
X84571D1*
X93776D2*
X97896D1*
X54922Y24083D2*
X62475D1*
X65072D2*
X67237D1*
X78566D2*
X83906D1*
X90552D2*
X90970D1*
X94401D2*
X97896D1*
X54922Y23451D2*
X61840D1*
X64437D2*
X66602D1*
X77931D2*
X79947D1*
X94610D2*
X97896D1*
X54932Y22819D2*
X61205D1*
X63802D2*
X65967D1*
X77306D2*
X79779D1*
X94610D2*
X97896D1*
X54932Y22188D2*
X60580D1*
X63177D2*
X65342D1*
X76671D2*
X78836D1*
X94610D2*
X97896D1*
X54932Y21556D2*
X60074D1*
X62542D2*
X64707D1*
X76036D2*
X78667D1*
X87000D2*
X87428D1*
X94610D2*
X97896D1*
X54932Y20924D2*
X60024D1*
X61907D2*
X64072D1*
X68575D2*
X78886D1*
X86355D2*
X87418D1*
X94610D2*
X97896D1*
X54942Y20293D2*
X60024D1*
X61897D2*
X63447D1*
X67950D2*
X87716D1*
X94610D2*
X97896D1*
X54942Y19661D2*
X60024D1*
X61897D2*
X62812D1*
X67315D2*
X87389D1*
X94610D2*
X97896D1*
X54942Y19029D2*
X60024D1*
X66680D2*
X87389D1*
X94610D2*
X97896D1*
X54942Y18398D2*
X60024D1*
X66055D2*
X87389D1*
X94590D2*
X97896D1*
X54952Y17766D2*
X60024D1*
X65420D2*
X87389D1*
X94163D2*
X97896D1*
X54952Y17134D2*
X60024D1*
X67364D2*
X75046D1*
X77058D2*
X87389D1*
X93528D2*
X97896D1*
X54952Y16503D2*
X60024D1*
X67553D2*
X74857D1*
X77247D2*
X88877D1*
X92893D2*
X97896D1*
X54952Y15871D2*
X59975D1*
X67394D2*
X75056D1*
X77038D2*
X78856D1*
X92268D2*
X97896D1*
X54962Y15239D2*
X59340D1*
X67394D2*
X75115D1*
X77028D2*
X78667D1*
X91633D2*
X97896D1*
X54962Y14608D2*
X58714D1*
X61312D2*
X61889D1*
X67394D2*
X75175D1*
X90998D2*
X97896D1*
X54962Y13976D2*
X58079D1*
X67394D2*
X75701D1*
X92248D2*
X97896D1*
X54962Y13344D2*
X57554D1*
X67394D2*
X76405D1*
X92893D2*
X97896D1*
X54972Y12713D2*
X57494D1*
X67543D2*
X87528D1*
X93260D2*
X97896D1*
X54972Y12081D2*
X57494D1*
X64814D2*
X65303D1*
X67404D2*
X87329D1*
X93449D2*
X97896D1*
X54972Y11449D2*
X57494D1*
X64179D2*
X64935D1*
X67394D2*
X87270D1*
X93508D2*
X97896D1*
X54982Y10818D2*
X57494D1*
X63554D2*
X64310D1*
X67176D2*
X87349D1*
X93429D2*
X97896D1*
X54982Y10186D2*
X57494D1*
X62919D2*
X63675D1*
X66551D2*
X87577D1*
X93211D2*
X97896D1*
X54982Y9554D2*
X57256D1*
X60727D2*
X63040D1*
X65916D2*
X87974D1*
X92804D2*
X97896D1*
X54982Y8923D2*
X57306D1*
X59546D2*
X60302D1*
X65291D2*
X87002D1*
X54992Y8291D2*
X57901D1*
X58951D2*
X60084D1*
X64656D2*
X86367D1*
X54992Y7659D2*
X60252D1*
X64031D2*
X85732D1*
X54992Y7028D2*
X85107D1*
X87770Y19978D2*
X88117D1*
X87958Y20099D1*
X87745Y20334D1*
X87585Y20608D1*
X87486Y20909D1*
X87452Y21224D1*
X87484Y21539D1*
X87578Y21832D1*
X87207Y21831D1*
X86351Y20975D1*
X86091Y20796D1*
X85734Y20719D1*
X80585D1*
X80348Y20573D1*
X80046Y20478D1*
X79730Y20470D1*
X79424Y20550D1*
X79152Y20712D1*
X78935Y20943D1*
X78791Y21224D1*
X78731Y21535D1*
X78760Y21850D1*
X78874Y22145D1*
X79066Y22397D1*
X79320Y22585D1*
X79617Y22696D1*
X79844Y22713D1*
X79871Y23120D1*
X79986Y23415D1*
X80178Y23667D1*
X80432Y23855D1*
X80728Y23966D1*
X81044Y23990D1*
X81354Y23925D1*
X81683Y23730D1*
X83620Y23735D1*
X84482Y24591D1*
X84742Y24770D1*
X85099Y24847D1*
X87708D1*
X87949Y25123D1*
X88204Y25310D1*
X88357Y25380D1*
X88215Y25453D1*
X87958Y25639D1*
X87745Y25874D1*
X87585Y26148D1*
X87486Y26449D1*
X87452Y26764D1*
X87484Y27079D1*
X87581Y27381D1*
X87738Y27656D1*
X87949Y27893D1*
X88204Y28080D1*
X88357Y28150D1*
X88056Y28328D1*
X87824Y28545D1*
X87642Y28804D1*
X87518Y29096D1*
X87458Y29407D1*
X87463Y29724D1*
X87534Y30033D1*
X87668Y30320D1*
X87858Y30574D1*
X88097Y30782D1*
X88374Y30936D1*
X88677Y31029D1*
X88993Y31058D1*
X89307Y31020D1*
X89607Y30918D1*
X89879Y30755D1*
X90112Y30540D1*
X90295Y30281D1*
X90420Y29990D1*
X90482Y29679D1*
X90476Y29350D1*
X90404Y29041D1*
X90269Y28755D1*
X90078Y28502D1*
X89838Y28295D1*
X89591Y28155D1*
X89978Y27905D1*
X90191Y27671D1*
X90352Y27398D1*
X90452Y27097D1*
X90488Y26770D1*
X90455Y26455D1*
X90357Y26153D1*
X90199Y25879D1*
X89987Y25643D1*
X89731Y25456D1*
X89577Y25388D1*
X89720Y25320D1*
X89978Y25135D1*
X90191Y24901D1*
X90352Y24628D1*
X90452Y24327D1*
X90488Y24000D1*
X90455Y23685D1*
X90421Y23581D1*
X90789Y23738D1*
X91044Y23925D1*
X91197Y23995D1*
X91055Y24068D1*
X90798Y24254D1*
X90585Y24489D1*
X90425Y24763D1*
X90326Y25064D1*
X90292Y25379D1*
X90324Y25694D1*
X90421Y25996D1*
X90578Y26271D1*
X90789Y26508D1*
X91044Y26695D1*
X91197Y26765D1*
X91055Y26838D1*
X90798Y27024D1*
X90585Y27259D1*
X90425Y27533D1*
X90326Y27834D1*
X90292Y28149D1*
X90324Y28464D1*
X90421Y28766D1*
X90578Y29041D1*
X90789Y29278D1*
X91044Y29465D1*
X91333Y29596D1*
X91642Y29664D1*
X91959Y29666D1*
X92270Y29602D1*
X92560Y29475D1*
X92818Y29290D1*
X93031Y29056D1*
X93192Y28783D1*
X93292Y28482D1*
X93328Y28155D1*
X93295Y27840D1*
X93197Y27538D1*
X93039Y27264D1*
X92827Y27028D1*
X92571Y26841D1*
X92417Y26773D1*
X92560Y26705D1*
X92818Y26520D1*
X93031Y26286D1*
X93192Y26013D1*
X93292Y25712D1*
X93328Y25385D1*
X93300Y25119D1*
X94290Y24140D1*
X94469Y23880D1*
X94545Y23523D1*
Y18576D1*
X94488Y18265D1*
X94290Y17958D1*
X90861Y14521D1*
X91293Y14421D1*
X91707Y14259D1*
X92093Y14039D1*
X92442Y13765D1*
X92748Y13444D1*
X93005Y13081D1*
X93206Y12685D1*
X93347Y12264D1*
X93426Y11827D1*
X93440Y11378D1*
X93390Y10937D1*
X93275Y10508D1*
X93100Y10100D1*
X92868Y9721D1*
X92715Y9526D1*
X97959D1*
Y33527D1*
X89397Y42075D1*
X87187Y44285D1*
X82232Y44292D1*
X54779Y44296D1*
X54933Y6509D1*
X84649D1*
X87583Y9436D1*
X87798Y9526D1*
X88066D1*
X87807Y9877D1*
X87598Y10269D1*
X87449Y10687D1*
X87361Y11123D1*
X87338Y11566D1*
X87379Y12008D1*
X87484Y12440D1*
X87650Y12852D1*
X87874Y13235D1*
X87892Y13259D1*
X76843Y13257D1*
X76533Y13314D1*
X76226Y13513D1*
X75432Y14307D1*
X75253Y14567D1*
X75176Y14924D1*
Y15787D1*
X74981Y16144D1*
X74921Y16455D1*
X74949Y16770D1*
X75064Y17065D1*
X75256Y17316D1*
X75510Y17505D1*
X75807Y17615D1*
X76122Y17639D1*
X76432Y17575D1*
X76712Y17427D1*
X76940Y17207D1*
X77098Y16933D1*
X77173Y16626D1*
X77179Y16512D1*
X77135Y16198D1*
X77005Y15910D1*
X76922Y15812D1*
Y15291D1*
X77207Y15001D1*
X78758Y15003D1*
X78731Y15184D1*
X78760Y15500D1*
X78874Y15795D1*
X79066Y16046D1*
X79320Y16235D1*
X79617Y16345D1*
X79933Y16369D1*
X80242Y16305D1*
X80572Y16109D1*
X86845Y16115D1*
X88541D1*
X89380Y16946D1*
X87452Y16942D1*
Y19978D1*
X87770D1*
X93442Y36432D2*
X93401Y35989D1*
X93296Y35558D1*
X93129Y35146D1*
X92904Y34763D1*
X92626Y34417D1*
X92301Y34114D1*
X91935Y33862D1*
X91537Y33666D1*
X91115Y33529D1*
X90677Y33456D1*
X90233Y33446D1*
X89792Y33501D1*
X89364Y33620D1*
X88958Y33799D1*
X88582Y34035D1*
X88244Y34324D1*
X87952Y34658D1*
X87711Y35031D1*
X87527Y35436D1*
X87403Y35862D1*
X87343Y36302D1*
X87347Y36746D1*
X87416Y37185D1*
X87548Y37609D1*
X87739Y38010D1*
X87987Y38378D1*
X88286Y38707D1*
X88629Y38989D1*
X89010Y39218D1*
X89419Y39389D1*
X89849Y39500D1*
X90291Y39546D1*
X90735Y39528D1*
X91171Y39446D1*
X91591Y39302D1*
X91986Y39098D1*
X92346Y38839D1*
X92666Y38530D1*
X92937Y38178D1*
X93154Y37791D1*
X93313Y37376D1*
X93410Y36943D1*
X93443Y36495D1*
X93442Y36432D1*
X60687Y40120D2*
X60583Y39821D1*
X60415Y39552D1*
X60192Y39327D1*
X59924Y39157D1*
X59626Y39050D1*
X59312Y39012D1*
X58996Y39045D1*
X58696Y39146D1*
X58426Y39311D1*
X58199Y39532D1*
X58027Y39798D1*
X57917Y40096D1*
X57876Y40410D1*
X57906Y40725D1*
X58005Y41026D1*
X58168Y41298D1*
X58387Y41527D1*
X58651Y41702D1*
X58947Y41814D1*
X59261Y41857D1*
X59577Y41831D1*
X59879Y41734D1*
X60152Y41574D1*
X60383Y41357D1*
X60560Y41094D1*
X60675Y40799D1*
X60722Y40435D1*
X60687Y40120D1*
X57553Y10044D2*
Y13024D1*
X57610Y13334D1*
X57809Y13641D1*
X60089Y15921D1*
X60087Y21273D1*
X60144Y21583D1*
X60343Y21890D1*
X65233Y26780D1*
X65257Y26928D1*
X65372Y27223D1*
X65564Y27475D1*
X65818Y27663D1*
X66115Y27774D1*
X66430Y27798D1*
X66740Y27733D1*
X67020Y27585D1*
X67248Y27366D1*
X67406Y27091D1*
X67482Y26784D1*
X67487Y26670D1*
X67443Y26357D1*
X67314Y26068D1*
X67109Y25826D1*
X66846Y25651D1*
X66475Y25554D1*
X61832Y20910D1*
X61833Y15557D1*
X61776Y15247D1*
X61577Y14940D1*
X60770Y14133D1*
X61025Y14081D1*
X61279Y13947D1*
X61995Y14652D1*
X61992Y18415D1*
X62049Y18726D1*
X62248Y19032D1*
X67965Y24750D1*
X68225Y24929D1*
X68583Y25005D1*
X73752D1*
X73922Y25126D1*
X74219Y25236D1*
X74534Y25260D1*
X74844Y25196D1*
X75145Y25027D1*
X75080Y25343D1*
X75108Y25658D1*
X75223Y25953D1*
X75415Y26205D1*
X75669Y26393D1*
X75965Y26504D1*
X76281Y26528D1*
X76591Y26463D1*
X76871Y26315D1*
X77098Y26096D1*
X77256Y25821D1*
X77332Y25514D1*
X77337Y25390D1*
X78736Y26783D1*
X78757Y26928D1*
X78871Y27223D1*
X79063Y27475D1*
X79318Y27663D1*
X79614Y27774D1*
X79930Y27798D1*
X80240Y27733D1*
X80519Y27585D1*
X80747Y27366D1*
X80905Y27091D1*
X80981Y26784D1*
X80987Y26670D1*
X80942Y26357D1*
X80813Y26068D1*
X80608Y25826D1*
X80345Y25651D1*
X79974Y25554D1*
X75712Y21290D1*
X75452Y21111D1*
X75094Y21035D1*
X68615D1*
X65323Y17733D1*
X65325Y16976D1*
X65564Y17315D1*
X65818Y17503D1*
X66115Y17614D1*
X66430Y17638D1*
X66740Y17573D1*
X67020Y17425D1*
X67248Y17206D1*
X67406Y16931D1*
X67482Y16624D1*
X67487Y16510D1*
X67443Y16197D1*
X67334Y15953D1*
X67330Y13206D1*
X67406Y13051D1*
X67482Y12744D1*
X67487Y12630D1*
X67443Y12317D1*
X67334Y12073D1*
X67330Y11430D1*
X67279Y11118D1*
X67123Y10832D1*
X66596Y10293D1*
X63871Y7567D1*
X63614Y7383D1*
X63301Y7291D1*
X62548Y7282D1*
X61843D1*
X61766Y7236D1*
X61464Y7141D1*
X61148Y7133D1*
X60841Y7213D1*
X60569Y7375D1*
X60353Y7605D1*
X60209Y7887D1*
X60149Y8198D1*
X60177Y8513D1*
X60292Y8808D1*
X60484Y9060D1*
X60738Y9248D1*
X61035Y9359D1*
X61350Y9383D1*
X61660Y9318D1*
X61826Y9230D1*
X62776Y9228D1*
X65378Y11827D1*
X65233Y12622D1*
X65070Y12400D1*
X62530Y9860D1*
X62270Y9681D1*
X61913Y9605D1*
X60732D1*
X60496Y9459D1*
X60194Y9363D1*
X59878Y9355D1*
X59546Y9450D1*
X59556Y9320D1*
X59512Y9007D1*
X59382Y8718D1*
X59178Y8476D1*
X58914Y8301D1*
X58613Y8206D1*
X58296Y8198D1*
X57990Y8278D1*
X57718Y8439D1*
X57502Y8670D1*
X57358Y8952D1*
X57298Y9263D1*
X57326Y9578D1*
X57441Y9873D1*
X57555Y10022D1*
X65326Y16943D2*
X65372Y17063D1*
X65564Y17315D1*
X65818Y17503D1*
X66115Y17614D1*
X66430Y17638D1*
X66740Y17573D1*
X67020Y17425D1*
X67248Y17206D1*
X67406Y16931D1*
X67482Y16624D1*
X67487Y16510D1*
X67443Y16197D1*
X67334Y15953D1*
X65326Y16943D2*
X65372Y17063D1*
X65564Y17315D1*
X65818Y17503D1*
X66115Y17614D1*
X66430Y17638D1*
X66740Y17573D1*
X67020Y17425D1*
X67248Y17206D1*
X67406Y16931D1*
X67482Y16624D1*
X67487Y16510D1*
X67443Y16197D1*
X67334Y15953D1*
X88970Y31057D2*
D19*
Y29540D1*
X87453D2*
X90487D1*
X90390Y39547D2*
Y33443D1*
X87338Y36495D2*
X93442D1*
X87338Y11505D2*
X93442D1*
D25*
X88970Y18460D3*
D26*
Y21230D3*
Y24000D3*
Y26770D3*
Y29540D3*
X91810Y19845D3*
Y22615D3*
Y25385D3*
Y28155D3*
D27*
X90390Y36495D3*
Y11505D3*
D28*
X6900Y19390D3*
D29*
Y21930D3*
D28*
X9440Y19390D3*
Y21930D3*
X11980Y19390D3*
Y21930D3*
X14520Y19390D3*
Y21930D3*
X17060Y19390D3*
Y21930D3*
X19600Y19390D3*
Y21930D3*
X22140Y19390D3*
Y21930D3*
X24680Y19390D3*
Y21930D3*
D16*
X46599Y40435D3*
X49139D3*
X54219D3*
X59299D3*
D37*
X93270Y1730D3*
X90730D3*
Y4270D3*
X93270D3*
M02*
