M48
METRIC,0000.00
T01C0.406
T02C0.8
T03C1.0
T04C1.09
T05C2.5
T06C3.0
T07C3.26
%
T01
X+000238Y+003144
X+000365Y+003271
X+000477Y+003382
X+000254Y+003429
X+000254Y+003683
X+000254Y+003937
X+000254Y+004191
X+001143Y+004191
X+001270Y+004191
X+001397Y+004191
X+001524Y+004191
X+001651Y+004064
X+001778Y+004064
X+001905Y+004064
X+001905Y+003937
X+001905Y+003810
X+001905Y+003683
X+001905Y+003556
X+001905Y+003429
X+003238Y+003429
X+003556Y+003429
X+003873Y+003429
X+004191Y+003429
X+004509Y+003429
X+004762Y+003429
X+004699Y+002921
X+004477Y+002699
X+004553Y+002023
X+004413Y+001746
X+004540Y+001429
X+004318Y+001302
X+004318Y+001175
X+004286Y+001048
X+004509Y+000805
X+004509Y+000667
X+005843Y+000932
X+006001Y+001048
X+006001Y+001175
X+006064Y+001302
X+005832Y+001440
X+006208Y+001920
X+006636Y+001651
X+006636Y+001263
X+006128Y+000826
X+007239Y+000762
X+007493Y+000762
X+008382Y+000762
X+007986Y+001524
X+007605Y+001651
X+007986Y+002159
X+008097Y+002286
X+007986Y+002667
X+007621Y+002540
X+007446Y+002413
X+006636Y+002667
X+005588Y+003048
X+005588Y+003302
X+005588Y+003556
X+005588Y+003810
X+005588Y+004318
X+005842Y+004318
X+006096Y+004318
X+006350Y+004318
X+006604Y+004318
X+006858Y+004318
X+007112Y+004318
X+007366Y+004318
X+007620Y+004318
X+007874Y+004318
X+008509Y+004318
X+008763Y+004318
X+004699Y+004381
X+004445Y+004381
X+004191Y+004381
X+003937Y+004381
X+003683Y+004381
X+003429Y+004381
X+003175Y+004381
X+002921Y+004381
X+000445Y+002794
X+000445Y+002477
X+000445Y+002159
T02
X+004660Y+004044
X+004914Y+004044
X+005422Y+004044
X+005930Y+004044
T03
X+000690Y+001939
X+000690Y+002193
X+000944Y+002193
X+001198Y+002193
X+001452Y+002193
X+001452Y+001939
X+001198Y+001939
X+000944Y+001939
X+001706Y+001939
X+001960Y+001939
X+002214Y+001939
X+002214Y+002193
X+001960Y+002193
X+001706Y+002193
X+002468Y+002193
X+002468Y+001939
X+009073Y+000427
X+009073Y+000173
X+009327Y+000173
X+009327Y+000427
T04
X+008897Y+001846
X+008897Y+002123
X+008897Y+002400
X+008897Y+002677
X+008897Y+002954
X+009181Y+002816
X+009181Y+002539
X+009181Y+002261
X+009181Y+001984
T05
X+009500Y+004300
T06
X+003900Y+000360
T07
X+009039Y+003649
X+009039Y+001151
T00
M30
