G04 DipTrace 2.4.0.2*
%INDaughter-IsolatedRS2321.1.GTL*%
%MOMM*%
%ADD13C,0.4*%
%ADD14C,0.6*%
%ADD15C,1.0*%
%ADD16C,1.5*%
%ADD17C,0.8*%
%ADD18C,0.635*%
%ADD19C,0.33*%
%ADD20R,2.7X1.6*%
%ADD21R,1.4X2.85*%
%ADD22R,1.0X1.1*%
%ADD23R,1.3X1.5*%
%ADD24R,1.1X1.0*%
%ADD25R,1.69X1.69*%
%ADD26C,1.69*%
%ADD27C,4.76*%
%ADD28C,1.6*%
%ADD29R,1.6X1.6*%
%ADD30R,1.0X1.35*%
%ADD31R,2.2X2.2*%
%ADD32R,1.5X1.3*%
%ADD34R,0.95X2.15*%
%ADD35R,3.25X2.15*%
%ADD36R,2.0X0.6*%
%ADD37C,1.8*%
%ADD38C,0.914*%
%FSLAX53Y53*%
G04*
G71*
G90*
G75*
G01*
%LNTop*%
%LPD*%
X15083Y30960D2*
D13*
X15396D1*
Y33976D1*
X47200Y15670D2*
D14*
X45925D1*
X45403Y16192D1*
X44105D1*
X44059Y16146D1*
X44133D1*
Y17463D1*
X44059D1*
Y18527D1*
X47137Y19004D2*
X45674D1*
X45085Y18415D1*
X44171D1*
X44059Y18527D1*
X47137Y26624D2*
X45131D1*
X44768Y26988D1*
X44690D1*
X44133Y27545D1*
Y28583D1*
X41914Y30801D1*
X19846D1*
X16671Y33976D1*
X15396D1*
X47200Y8050D2*
D13*
X45085D1*
X13096Y33976D2*
Y39776D1*
X13183Y30960D2*
Y33976D1*
X13096D1*
X19600Y21930D2*
Y18012D1*
X18732Y17145D1*
X4445D1*
X2857Y18732D1*
Y28257D1*
X5560Y30960D1*
X13183D1*
X44059Y20227D2*
X45525D1*
X47090D1*
X47137Y20274D1*
X44059Y14446D2*
D14*
X45403D1*
X47154D1*
X47200Y14400D1*
Y6780D2*
D13*
X45197D1*
X45085Y6667D1*
X45403Y14287D2*
Y14446D1*
X46990Y29210D2*
Y28041D1*
X47137Y27894D1*
X49139Y40435D2*
X48260D1*
Y36892D1*
Y35242D1*
X47784Y34766D1*
X47625Y34607D1*
X46766D1*
Y29434D1*
X46990Y29210D1*
X13096Y39776D2*
X18250D1*
X18650D1*
X21433Y36993D1*
X25838D1*
X25879Y36952D1*
X41219D1*
X41279Y36892D1*
X48260D1*
X19050Y39370D2*
X18250Y39776D1*
X47625Y34290D2*
X47784Y34766D1*
X56537Y20274D2*
X58826D1*
X59140Y19960D1*
X56600Y6780D2*
X57355D1*
X57467Y6668D1*
X59803D1*
X59690Y6555D1*
X62547D1*
Y6509D1*
X84297D1*
X84455Y6667D1*
Y10795D1*
X84138Y11112D1*
X81653D1*
X81560Y11020D1*
X68540Y13900D2*
X64905D1*
X64453Y13447D1*
Y18210D2*
X63070D1*
X62075Y19205D1*
X61278Y20003D1*
X59183D1*
X59140Y19960D1*
X64453Y13447D2*
X62977D1*
X62547Y13018D1*
Y6555D1*
X90390Y11505D2*
X84530D1*
X84138Y11112D1*
X56600Y14400D2*
X58315D1*
X85099Y28583D2*
X86374D1*
X87331Y29540D1*
X88970D1*
X67317Y40644D2*
Y42391D1*
X67153Y42555D1*
X66682Y43026D1*
X66040D1*
X63500D1*
X60960D1*
X58420D1*
X57950D1*
X55410Y40486D1*
X54269D1*
X54219Y40435D1*
X82241Y41597D2*
Y43820D1*
X68417D1*
X67153Y42555D1*
X56537Y27894D2*
X59330D1*
X59538Y28102D1*
Y34294D1*
X56203Y37628D1*
Y41050D1*
X55410Y40486D1*
X58420Y43180D2*
Y43026D1*
X60960Y43180D2*
Y43026D1*
X63500Y43180D2*
Y43026D1*
X66040Y43180D2*
Y43026D1*
X8327Y33817D2*
D15*
X9208D1*
X10796D1*
Y33976D1*
X31753Y39533D2*
D16*
X30642D1*
X28260Y41914D1*
X26038D1*
X25879Y41756D1*
X23339D1*
X21275Y43820D1*
X10637D1*
X9208Y42391D1*
Y33817D1*
X59299Y40435D2*
D15*
X61176D1*
X63766Y37844D1*
X67317D1*
X70073D1*
X71286Y39057D1*
X81924Y30483D2*
D14*
X85099D1*
X41279Y39692D2*
D16*
X45856D1*
X46599Y40435D1*
X41279Y39692D2*
X37712D1*
X37553Y39533D1*
X77940Y16440D2*
D13*
X76121D1*
X76049Y16512D1*
X77940Y13900D2*
X80106D1*
X81447Y15242D1*
X87322D1*
X89068Y16988D1*
Y18362D1*
X88970Y18460D1*
X77940Y15170D2*
X79788D1*
X79860Y15242D1*
X77940Y20250D2*
X80423D1*
X87004Y26832D1*
X88908D1*
X88970Y26770D1*
X77940Y18980D2*
X80899D1*
X87322Y25403D1*
X89862D1*
X90656Y26197D1*
Y27001D1*
X91810Y28155D1*
X77940Y21520D2*
X79787D1*
X79860Y21592D1*
X77940Y17710D2*
X81210D1*
X84730Y21230D1*
X88970D1*
X77940Y22790D2*
X80899D1*
X80971Y22862D1*
X22140Y21930D2*
D14*
Y19390D1*
X4766Y33817D2*
D16*
X6827D1*
X4766D2*
X2382Y31436D1*
X90730Y4270D2*
D13*
Y3735D1*
X88265Y1270D1*
X44768D1*
X42545Y3492D1*
Y5398D1*
X40640Y7302D1*
X38100D1*
X36195Y9208D1*
Y17145D1*
X35241Y18099D1*
X24133D1*
X23339Y18893D1*
Y20798D1*
X24470Y21930D1*
X24680D1*
X93270Y4270D2*
Y4372D1*
X91926Y5715D1*
X90020D1*
X88909Y4604D1*
Y2867D1*
X87947Y1905D1*
X45085D1*
X43180Y3810D1*
Y5715D1*
X40958Y7938D1*
X38417D1*
X36830Y9525D1*
Y17463D1*
X34607Y19685D1*
X24385D1*
X24680Y19390D1*
X47200Y13130D2*
Y13018D1*
X43180D1*
X47137Y25354D2*
X43861D1*
X40322Y28893D1*
X14286D1*
X8256Y22862D1*
Y20746D1*
X6900Y19390D1*
X47200Y11860D2*
X43292D1*
X43180Y11748D1*
X47137Y24084D2*
X43861D1*
X40005Y27940D1*
X15556D1*
X10637Y23021D1*
Y20587D1*
X9440Y19390D1*
X47200Y10590D2*
Y10477D1*
X42863D1*
X47137Y22814D2*
X43861D1*
X39688Y26988D1*
X16668D1*
X13178Y23497D1*
Y20588D1*
X11980Y19390D1*
X47137Y21544D2*
X43861D1*
X39370Y26035D1*
X17462D1*
X14607Y23180D1*
Y21843D1*
X14520Y21930D1*
X47200Y9320D2*
X42432D1*
X40958Y10795D1*
Y23177D1*
X39053Y25082D1*
X17938D1*
X15718Y22862D1*
Y20588D1*
X14520Y19390D1*
X77940Y11360D2*
X79296D1*
X79860Y10796D1*
Y8097D1*
X79813D1*
X69017Y7938D2*
X69698D1*
X70492Y8732D1*
Y14765D1*
X70018Y15240D1*
X68610D1*
X68540Y15170D1*
X77940Y10090D2*
Y8270D1*
X78113Y8097D1*
X68540Y10090D2*
X67405D1*
X67000Y9685D1*
Y7938D1*
X67317D1*
X68540Y11360D2*
X64840D1*
X64453Y11748D1*
X77940Y12630D2*
X81470D1*
X81560Y12720D1*
X56537Y21544D2*
X68516D1*
X68540Y21520D1*
X56537Y22814D2*
X68516D1*
X68540Y22790D1*
X56537Y24084D2*
X68516D1*
X68540Y24060D1*
X56537Y25354D2*
X68516D1*
X68540Y25330D1*
X56600Y9320D2*
X58426D1*
X66358Y26670D2*
X68470D1*
X68540Y26600D1*
X56600Y10590D2*
X59895D1*
X60008Y10477D1*
X79857Y26670D2*
X77870D1*
X77940Y26600D1*
X56600Y11860D2*
X59895D1*
X60008Y11748D1*
X76208Y25400D2*
X77870D1*
X77940Y25330D1*
X56600Y13130D2*
X60530D1*
X60643Y13018D1*
X74462Y24133D2*
X77867D1*
X77940Y24060D1*
X56537Y19004D2*
D14*
X57514D1*
X58102Y18415D1*
X58985D1*
X59140Y18260D1*
X56600Y15670D2*
X58584D1*
X59373Y16459D1*
Y18027D1*
X59140Y18260D1*
X56600Y8050D2*
D13*
X59485D1*
X59690Y8255D1*
X68540Y12630D2*
D14*
X66358D1*
Y16510D2*
X68470D1*
X68540Y16440D1*
Y17710D2*
X66922D1*
X66358Y17145D1*
Y16510D1*
X64453D2*
X66358D1*
X64453D2*
D17*
X59373Y16459D1*
X59690Y8255D2*
D14*
X61278D1*
X77086Y39057D2*
D15*
X78113D1*
X80377Y36793D1*
X82241D1*
D14*
X81406D1*
X81289Y36675D1*
X82241D1*
Y34294D1*
X80018Y32071D1*
Y30488D1*
X80024Y30483D1*
X73033D1*
X71763Y29213D1*
Y17710D1*
Y17306D1*
X70969Y16512D1*
X68468D1*
X68540Y17710D2*
X71763D1*
D38*
X44133Y17463D3*
X44768Y26988D3*
X45085Y8050D3*
X44133Y17463D3*
X45085Y6667D3*
X45403Y14287D3*
X45525Y20227D3*
X46990Y29210D3*
D3*
X62075Y19205D3*
X58315Y14400D3*
X76049Y16512D3*
X79860Y15242D3*
Y21592D3*
X80971Y22862D3*
X4766Y33817D3*
D3*
X43180Y13018D3*
Y11748D3*
X42863Y10477D3*
X58426Y9320D3*
X66358Y26670D3*
X60008Y10477D3*
X79857Y26670D3*
X60008Y11748D3*
X76208Y25400D3*
X60643Y13018D3*
X74462Y24133D3*
X66358Y12630D3*
Y16510D3*
D3*
D3*
X61278Y8255D3*
X66358Y12630D3*
X2382Y31436D3*
X3652Y32706D3*
X19050Y40640D3*
Y39370D3*
Y38100D3*
Y36830D3*
Y35560D3*
Y34290D3*
X17780Y40640D3*
X16510D3*
X11430Y41910D3*
X12700D3*
X13970D3*
X15240D3*
X2540Y34290D3*
Y36830D3*
Y39370D3*
Y41910D3*
X4445Y21590D3*
Y24765D3*
Y27940D3*
X46990Y43815D3*
X44450D3*
X41910D3*
X39370D3*
X36830D3*
X34290D3*
X31750D3*
X29210D3*
X47625Y34290D3*
X45085D3*
X41910D3*
X38735D3*
X35560D3*
X32385D3*
X55880Y43180D3*
X58420D3*
X60960D3*
X63500D3*
X66040D3*
X68580D3*
X71120D3*
X73660D3*
X76200D3*
X78740D3*
X85090D3*
X87630D3*
X55880Y38100D3*
Y35560D3*
Y33020D3*
Y30480D3*
X72390Y7620D3*
X74930D3*
X83820D3*
X1334Y44136D2*
D18*
X8881D1*
X23038D2*
X48519D1*
X1334Y43504D2*
X8246D1*
X23663D2*
X24439D1*
X27314D2*
X48519D1*
X1334Y42872D2*
X7810D1*
X29378D2*
X48519D1*
X1334Y42241D2*
X7720D1*
X11131D2*
X20777D1*
X30013D2*
X48519D1*
X1334Y41609D2*
X7720D1*
X10695D2*
X21412D1*
X30638D2*
X45731D1*
X47465D2*
X48519D1*
X1334Y40977D2*
X7720D1*
X10695D2*
X22037D1*
X33585D2*
X35720D1*
X47981D2*
X48519D1*
X1334Y40346D2*
X7720D1*
X10695D2*
X23089D1*
X27314D2*
X27752D1*
X33585D2*
X35720D1*
X48080D2*
X48519D1*
X1334Y39714D2*
X7720D1*
X10695D2*
X24439D1*
X27314D2*
X28387D1*
X33585D2*
X35720D1*
X47892D2*
X48519D1*
X1334Y39082D2*
X7720D1*
X10695D2*
X29013D1*
X33585D2*
X35720D1*
X47326D2*
X48519D1*
X1334Y38451D2*
X7720D1*
X10695D2*
X24439D1*
X27314D2*
X29657D1*
X33585D2*
X35720D1*
X46612D2*
X48519D1*
X1334Y37819D2*
X7720D1*
X10695D2*
X24439D1*
X27314D2*
X29915D1*
X33585D2*
X35720D1*
X43368D2*
X48519D1*
X1334Y37187D2*
X7720D1*
X10695D2*
X24439D1*
X27314D2*
X39192D1*
X43368D2*
X48519D1*
X1334Y36556D2*
X7720D1*
X10695D2*
X24439D1*
X27314D2*
X39192D1*
X43368D2*
X48519D1*
X1334Y35924D2*
X7720D1*
X10695D2*
X24439D1*
X27314D2*
X39192D1*
X43368D2*
X48519D1*
X1334Y35292D2*
X7720D1*
X12004D2*
X14189D1*
X16608D2*
X24439D1*
X27314D2*
X48519D1*
X1334Y34661D2*
X3533D1*
X12004D2*
X14189D1*
X17422D2*
X48519D1*
X1334Y34029D2*
X2898D1*
X12034D2*
X14189D1*
X18057D2*
X48519D1*
X1334Y33397D2*
X2273D1*
X12004D2*
X14189D1*
X18692D2*
X48519D1*
X12004Y32766D2*
X14189D1*
X19317D2*
X48519D1*
X5158Y32134D2*
X11798D1*
X19952D2*
X48519D1*
X4523Y31502D2*
X11798D1*
X42653D2*
X48519D1*
X3888Y30871D2*
X11798D1*
X43288D2*
X48519D1*
X3214Y30239D2*
X11798D1*
X43913D2*
X48519D1*
X1334Y29607D2*
X11798D1*
X44548D2*
X48519D1*
X1334Y28976D2*
X13068D1*
X45084D2*
X48519D1*
X1334Y28344D2*
X12443D1*
X1334Y27712D2*
X11808D1*
X1334Y27081D2*
X11173D1*
X1334Y26449D2*
X10548D1*
X1334Y25817D2*
X9913D1*
X1334Y25186D2*
X9278D1*
X1334Y24554D2*
X8653D1*
X1334Y23922D2*
X8018D1*
X18077D2*
X38915D1*
X1334Y23291D2*
X5369D1*
X17690D2*
X21512D1*
X22770D2*
X24052D1*
X25310D2*
X39550D1*
X1334Y22659D2*
X5369D1*
X18404D2*
X20797D1*
X26024D2*
X40026D1*
X1334Y22027D2*
X5369D1*
X18593D2*
X20609D1*
X26213D2*
X40026D1*
X1334Y21396D2*
X5369D1*
X18493D2*
X20708D1*
X26113D2*
X40026D1*
X41889D2*
X42715D1*
X1334Y20764D2*
X5369D1*
X18027D2*
X21105D1*
X25647D2*
X40026D1*
X41889D2*
X42824D1*
X1334Y20132D2*
X5567D1*
X18394D2*
X20807D1*
X35460D2*
X40026D1*
X41889D2*
X42824D1*
X1334Y19501D2*
X5369D1*
X18593D2*
X20609D1*
X36085D2*
X40026D1*
X41889D2*
X42824D1*
X1334Y18869D2*
X5458D1*
X18503D2*
X20698D1*
X36720D2*
X40026D1*
X41889D2*
X42824D1*
X1334Y18237D2*
X5924D1*
X7877D2*
X8464D1*
X10417D2*
X11004D1*
X12957D2*
X13544D1*
X15497D2*
X16084D1*
X18037D2*
X21164D1*
X37355D2*
X40026D1*
X41889D2*
X42824D1*
X1334Y17606D2*
X23327D1*
X37752D2*
X40026D1*
X41889D2*
X42824D1*
X37762Y16974D2*
X40026D1*
X41889D2*
X42824D1*
X37762Y16342D2*
X40026D1*
X41889D2*
X42824D1*
X37762Y15711D2*
X40026D1*
X41889D2*
X42824D1*
X37762Y15079D2*
X40026D1*
X41889D2*
X42824D1*
X37762Y14447D2*
X40026D1*
X41889D2*
X42824D1*
X37762Y13816D2*
X40026D1*
X41889D2*
X42318D1*
X37762Y13184D2*
X40026D1*
X37762Y12552D2*
X40026D1*
X37762Y11921D2*
X40026D1*
X37762Y11289D2*
X40026D1*
X37762Y10657D2*
X40036D1*
X37762Y10026D2*
X40433D1*
X38258Y9394D2*
X41058D1*
X41304Y8762D2*
X41693D1*
X42058Y8131D2*
X43895D1*
X42693Y7499D2*
X44034D1*
X43328Y6867D2*
X45463D1*
X43943Y6236D2*
X45463D1*
X44112Y5604D2*
X48519D1*
X44112Y4972D2*
X48519D1*
X44112Y4341D2*
X48519D1*
X44578Y3709D2*
X48519D1*
X45213Y3077D2*
X48519D1*
X39326Y41165D2*
X43302D1*
Y41115D1*
X45258D1*
X45593Y41441D1*
X45840Y41639D1*
X46126Y41777D1*
X46434Y41848D1*
X46751Y41850D1*
X47060Y41781D1*
X47347Y41646D1*
X47596Y41450D1*
X47796Y41204D1*
X47937Y40920D1*
X48011Y40612D1*
X48015Y40295D1*
X47949Y39985D1*
X47816Y39698D1*
X47605Y39429D1*
X46862Y38686D1*
X46614Y38488D1*
X46329Y38350D1*
X46010Y38278D1*
X44903Y38269D1*
X43306D1*
X43302Y35419D1*
X39256D1*
Y37762D1*
X35780Y37760D1*
Y41306D1*
X39326D1*
Y41157D1*
X14078Y32383D2*
X14247D1*
X14248Y35724D1*
X16544D1*
Y34940D1*
X16671Y34949D1*
X16982Y34898D1*
X17268Y34742D1*
X17807Y34215D1*
X20256Y31766D1*
X23656Y31774D1*
X41914D1*
X42226Y31722D1*
X42512Y31566D1*
X43051Y31040D1*
X44820Y29271D1*
X45005Y29014D1*
X45097Y28701D1*
X45105Y28057D1*
X45430Y27903D1*
X45466Y27868D1*
X45464Y28867D1*
X48578D1*
X48577Y44767D1*
X22334D1*
X23930Y43177D1*
X24500Y43179D1*
X24506Y43854D1*
X27252D1*
Y43328D1*
X28260Y43337D1*
X28575Y43302D1*
X28875Y43198D1*
X29150Y43023D1*
X29940Y42247D1*
X30887Y41300D1*
X33526Y41306D1*
Y37760D1*
X29980D1*
Y38266D1*
X29636Y38527D1*
X27664Y40498D1*
X27258Y40492D1*
X27252Y39658D1*
X24506D1*
Y40342D1*
X23339Y40333D1*
X23024Y40368D1*
X22725Y40472D1*
X22449Y40647D1*
X21659Y41423D1*
X20684Y42398D1*
X11224Y42397D1*
X10626Y41796D1*
X10631Y37311D1*
Y35733D1*
X11944Y35724D1*
X11953Y34167D1*
X11969Y33817D1*
X11944Y33501D1*
Y32380D1*
X14210Y32383D1*
X13698Y29537D2*
X11860D1*
Y32230D1*
X9648Y32228D1*
Y32456D1*
X9221Y32394D1*
X8906Y32427D1*
X8784Y32468D1*
X7276Y32469D1*
X6852Y32395D1*
X5349Y32394D1*
X3387Y30429D1*
X3139Y30231D1*
X2854Y30094D1*
X2545Y30022D1*
X2228Y30021D1*
X1919Y30090D1*
X1633Y30226D1*
X1384Y30421D1*
X1265Y30567D1*
X1270Y24447D1*
Y17463D1*
X23545D1*
X22877Y18121D1*
X22543Y17973D1*
X22231Y17920D1*
X21915Y17934D1*
X21608Y18016D1*
X21327Y18162D1*
X21083Y18364D1*
X20888Y18614D1*
X20751Y18900D1*
X20678Y19208D1*
X20673Y19525D1*
X20736Y19836D1*
X20864Y20126D1*
X21051Y20382D1*
X21162Y20480D1*
X21167Y20829D1*
X20888Y21154D1*
X20751Y21440D1*
X20678Y21748D1*
X20673Y22065D1*
X20736Y22376D1*
X20864Y22666D1*
X21051Y22922D1*
X21288Y23132D1*
X21565Y23286D1*
X21868Y23378D1*
X22184Y23402D1*
X22498Y23359D1*
X22795Y23249D1*
X23062Y23078D1*
X23287Y22855D1*
X23410Y22663D1*
X23591Y22922D1*
X23828Y23132D1*
X24105Y23286D1*
X24408Y23378D1*
X24724Y23402D1*
X25038Y23359D1*
X25335Y23249D1*
X25602Y23078D1*
X25827Y22855D1*
X25998Y22588D1*
X26108Y22291D1*
X26153Y21930D1*
X26119Y21615D1*
X26018Y21314D1*
X25856Y21043D1*
X25638Y20812D1*
X25418Y20660D1*
X25655Y20558D1*
X34607D1*
X34918Y20501D1*
X35225Y20302D1*
X37447Y18080D1*
X37626Y17820D1*
X37703Y17463D1*
Y9892D1*
X38773Y8816D1*
X40958Y8810D1*
X41268Y8753D1*
X41575Y8555D1*
X43797Y6332D1*
X43976Y6072D1*
X44053Y5715D1*
Y4177D1*
X45446Y2779D1*
X48587Y2778D1*
X48577Y3810D1*
Y5804D1*
X45527Y5807D1*
Y7012D1*
X45271Y6936D1*
X44955Y6928D1*
X44649Y7008D1*
X44377Y7169D1*
X44161Y7400D1*
X44017Y7682D1*
X43957Y7993D1*
X43985Y8308D1*
X44025Y8447D1*
X42432D1*
X42122Y8504D1*
X41815Y8703D1*
X40340Y10178D1*
X40161Y10438D1*
X40085Y10795D1*
Y22810D1*
X38692Y24209D1*
X18306Y24210D1*
X17440Y23350D1*
X17715Y23249D1*
X17982Y23078D1*
X18207Y22855D1*
X18378Y22588D1*
X18488Y22291D1*
X18533Y21930D1*
X18499Y21615D1*
X18398Y21314D1*
X18236Y21043D1*
X18018Y20812D1*
X17798Y20660D1*
X17982Y20538D1*
X18207Y20315D1*
X18378Y20048D1*
X18488Y19751D1*
X18533Y19390D1*
X18499Y19075D1*
X18398Y18774D1*
X18236Y18503D1*
X18018Y18272D1*
X17757Y18092D1*
X17463Y17973D1*
X17151Y17920D1*
X16835Y17934D1*
X16528Y18016D1*
X16247Y18162D1*
X16003Y18364D1*
X15795Y18641D1*
X15478Y18272D1*
X15217Y18092D1*
X14923Y17973D1*
X14611Y17920D1*
X14295Y17934D1*
X13988Y18016D1*
X13707Y18162D1*
X13463Y18364D1*
X13255Y18641D1*
X12938Y18272D1*
X12677Y18092D1*
X12383Y17973D1*
X12071Y17920D1*
X11755Y17934D1*
X11448Y18016D1*
X11167Y18162D1*
X10923Y18364D1*
X10715Y18641D1*
X10398Y18272D1*
X10137Y18092D1*
X9843Y17973D1*
X9531Y17920D1*
X9215Y17934D1*
X8908Y18016D1*
X8627Y18162D1*
X8383Y18364D1*
X8175Y18641D1*
X7858Y18272D1*
X7597Y18092D1*
X7303Y17973D1*
X6991Y17920D1*
X6675Y17934D1*
X6368Y18016D1*
X6087Y18162D1*
X5843Y18364D1*
X5648Y18614D1*
X5511Y18900D1*
X5438Y19208D1*
X5433Y19525D1*
X5496Y19836D1*
X5624Y20126D1*
X5811Y20382D1*
X5892Y20454D1*
X5427Y20457D1*
Y23403D1*
X7580D1*
X7863Y23704D1*
X13677Y29515D1*
X42890Y14923D2*
X42886Y17369D1*
Y19750D1*
Y21285D1*
X41834Y22337D1*
X41830Y11162D1*
X42125Y11323D1*
X42052Y11690D1*
X42080Y12006D1*
X42195Y12300D1*
X42249Y12371D1*
X42112Y12650D1*
X42052Y12960D1*
X42080Y13276D1*
X42195Y13570D1*
X42387Y13822D1*
X42641Y14010D1*
X42886Y14112D1*
X42888Y15669D1*
X24570Y39050D2*
X27252D1*
Y34854D1*
X24506D1*
Y39050D1*
X24570D1*
X7291Y35165D2*
X7787D1*
X7786Y42391D1*
X7821Y42706D1*
X7925Y43005D1*
X8100Y43281D1*
X8876Y44070D1*
X9572Y44767D1*
X1270Y44768D1*
Y32316D1*
X1601Y32667D1*
X3761Y34824D1*
X4008Y35022D1*
X4294Y35159D1*
X4741Y35240D1*
X6827D1*
X7142Y35205D1*
X7263Y35163D1*
X7779Y35165D1*
X41279Y36892D2*
D19*
Y35420D1*
X39258Y36892D2*
X43301D1*
X13183Y32382D2*
Y29538D1*
X11861Y30960D2*
X13183D1*
X42887Y14446D2*
X44059D1*
X42887Y20227D2*
X44059D1*
X25879Y39048D2*
Y34855D1*
X24507Y36952D2*
X27251D1*
X47137Y28866D2*
Y27894D1*
X45465D2*
X47137D1*
X47200Y6780D2*
Y5808D1*
X45528Y6780D2*
X47200D1*
X54837Y43660D2*
D18*
X80805D1*
X83680D2*
X87750D1*
X54837Y43028D2*
X80805D1*
X83680D2*
X88385D1*
X54837Y42396D2*
X80805D1*
X83680D2*
X89010D1*
X54847Y41765D2*
X58729D1*
X59868D2*
X65227D1*
X69403D2*
X80805D1*
X83680D2*
X89645D1*
X54847Y41133D2*
X57994D1*
X62199D2*
X65227D1*
X69403D2*
X80805D1*
X83680D2*
X90280D1*
X54847Y40501D2*
X57816D1*
X62834D2*
X65227D1*
X73123D2*
X75248D1*
X78918D2*
X80805D1*
X83680D2*
X90905D1*
X54857Y39870D2*
X57935D1*
X63459D2*
X65227D1*
X73123D2*
X75248D1*
X79027D2*
X80805D1*
X83680D2*
X91540D1*
X54857Y39238D2*
X58471D1*
X60135D2*
X60653D1*
X64094D2*
X65227D1*
X73123D2*
X75248D1*
X79652D2*
X88990D1*
X91796D2*
X92175D1*
X54857Y38606D2*
X61278D1*
X73123D2*
X75248D1*
X80287D2*
X80805D1*
X83680D2*
X88117D1*
X54857Y37975D2*
X61913D1*
X73123D2*
X75248D1*
X83680D2*
X87661D1*
X54867Y37343D2*
X62548D1*
X73123D2*
X75248D1*
X83680D2*
X87393D1*
X93384D2*
X94070D1*
X54867Y36711D2*
X63402D1*
X70434D2*
X78741D1*
X83680D2*
X87284D1*
X93503D2*
X94705D1*
X54867Y36080D2*
X79366D1*
X83680D2*
X87304D1*
X93473D2*
X95330D1*
X54867Y35448D2*
X80805D1*
X83680D2*
X87462D1*
X93324D2*
X95965D1*
X54877Y34816D2*
X80805D1*
X83680D2*
X87780D1*
X93007D2*
X96600D1*
X54877Y34185D2*
X80696D1*
X83273D2*
X88335D1*
X92451D2*
X97235D1*
X54877Y33553D2*
X80061D1*
X82936D2*
X89516D1*
X91270D2*
X97870D1*
X54887Y32921D2*
X79426D1*
X82311D2*
X97900D1*
X54887Y32290D2*
X79009D1*
X81676D2*
X97900D1*
X54887Y31658D2*
X78642D1*
X86587D2*
X97900D1*
X54887Y31026D2*
X72133D1*
X86587D2*
X88603D1*
X89336D2*
X97900D1*
X54897Y30395D2*
X71508D1*
X86587D2*
X87651D1*
X90288D2*
X97900D1*
X54897Y29763D2*
X70893D1*
X86587D2*
X87403D1*
X90536D2*
X97900D1*
X54897Y29131D2*
X70724D1*
X73123D2*
X78642D1*
X86587D2*
X87442D1*
X93036D2*
X97900D1*
X58270Y28500D2*
X70724D1*
X72796D2*
X83613D1*
X86587D2*
X87800D1*
X93354D2*
X97900D1*
X58270Y27868D2*
X70724D1*
X72796D2*
X83613D1*
X86587D2*
X87859D1*
X93364D2*
X97900D1*
X58270Y27236D2*
X65317D1*
X70276D2*
X70724D1*
X72796D2*
X76201D1*
X80902D2*
X86113D1*
X93086D2*
X97900D1*
X58270Y26605D2*
X65168D1*
X70276D2*
X70724D1*
X72796D2*
X76201D1*
X81051D2*
X85478D1*
X92778D2*
X97900D1*
X70276Y25973D2*
X70724D1*
X72796D2*
X75169D1*
X80813D2*
X84853D1*
X93275D2*
X97900D1*
X70276Y25341D2*
X70724D1*
X72796D2*
X75020D1*
X79672D2*
X84218D1*
X93394D2*
X97900D1*
X70276Y24710D2*
X70724D1*
X72796D2*
X73423D1*
X79672D2*
X83583D1*
X93235D2*
X97900D1*
X70276Y24078D2*
X70724D1*
X72796D2*
X73274D1*
X79672D2*
X82958D1*
X92649D2*
X97900D1*
X70276Y23446D2*
X70724D1*
X72796D2*
X73502D1*
X93146D2*
X97900D1*
X70276Y22815D2*
X70724D1*
X72796D2*
X76201D1*
X93374D2*
X97900D1*
X70276Y22183D2*
X70724D1*
X72796D2*
X76201D1*
X93324D2*
X97900D1*
X70276Y21551D2*
X70724D1*
X72796D2*
X76201D1*
X92957D2*
X97900D1*
X70276Y20920D2*
X70724D1*
X72796D2*
X76201D1*
X92947D2*
X97900D1*
X60374Y20288D2*
X66805D1*
X70276D2*
X70724D1*
X72796D2*
X76201D1*
X93324D2*
X97900D1*
X60374Y19656D2*
X66805D1*
X70276D2*
X70724D1*
X72796D2*
X76201D1*
X93384D2*
X97900D1*
X60374Y19025D2*
X63213D1*
X65692D2*
X66805D1*
X70276D2*
X70724D1*
X72796D2*
X76201D1*
X93146D2*
X97900D1*
X60374Y18393D2*
X63213D1*
X65692D2*
X66170D1*
X72796D2*
X76201D1*
X90556D2*
X91302D1*
X92312D2*
X97900D1*
X54946Y17761D2*
X57320D1*
X60413D2*
X63213D1*
X72796D2*
X76201D1*
X90556D2*
X97900D1*
X54946Y17130D2*
X57905D1*
X72786D2*
X75040D1*
X90556D2*
X97900D1*
X72389Y16498D2*
X74852D1*
X89851D2*
X97900D1*
X71764Y15866D2*
X75060D1*
X89246D2*
X97900D1*
X59590Y15235D2*
X66805D1*
X71288D2*
X76201D1*
X88611D2*
X97900D1*
X58340Y14603D2*
X63213D1*
X65692D2*
X66805D1*
X71427D2*
X76201D1*
X87976D2*
X97900D1*
X61316Y13971D2*
X63213D1*
X65692D2*
X66805D1*
X71427D2*
X76201D1*
X81477D2*
X88524D1*
X92253D2*
X97900D1*
X61792Y13340D2*
X63213D1*
X71427D2*
X76201D1*
X82797D2*
X87889D1*
X92898D2*
X97900D1*
X61792Y12708D2*
X63213D1*
X71427D2*
X76201D1*
X82797D2*
X87522D1*
X93255D2*
X97900D1*
X61326Y12076D2*
X63213D1*
X71427D2*
X76201D1*
X82797D2*
X87323D1*
X93453D2*
X97900D1*
X61157Y11445D2*
X63213D1*
X71427D2*
X76201D1*
X82797D2*
X87274D1*
X93503D2*
X97900D1*
X61148Y10813D2*
X63213D1*
X71427D2*
X76201D1*
X82797D2*
X87353D1*
X93423D2*
X97900D1*
X61157Y10181D2*
X66220D1*
X71427D2*
X76201D1*
X82797D2*
X87571D1*
X93205D2*
X97900D1*
X60711Y9550D2*
X66061D1*
X71427D2*
X76201D1*
X80793D2*
X87978D1*
X92798D2*
X97900D1*
X62259Y8918D2*
X66031D1*
X71427D2*
X76826D1*
X81100D2*
X86996D1*
X62467Y8286D2*
X66031D1*
X71308D2*
X76826D1*
X81100D2*
X86361D1*
X62298Y7655D2*
X66031D1*
X70712D2*
X76826D1*
X81100D2*
X85736D1*
X60929Y7023D2*
X66031D1*
X70305D2*
X76826D1*
X81100D2*
X85101D1*
X69333Y39317D2*
X69340Y39171D1*
X69513Y39189D1*
Y40830D1*
X73059D1*
Y37284D1*
X71164D1*
X70903Y37015D1*
X70651Y36823D1*
X70265Y36687D1*
X69438Y36671D1*
X69349D1*
X69340Y36371D1*
X65294D1*
Y36679D1*
X63766Y36671D1*
X63453Y36714D1*
X63084Y36891D1*
X62488Y37464D1*
X60685Y39267D1*
X60094Y39262D1*
X59924Y39157D1*
X59626Y39050D1*
X59312Y39012D1*
X58996Y39045D1*
X58696Y39146D1*
X58426Y39311D1*
X58199Y39532D1*
X58027Y39798D1*
X57917Y40096D1*
X57876Y40410D1*
X57906Y40725D1*
X58005Y41026D1*
X58168Y41298D1*
X58387Y41527D1*
X58651Y41702D1*
X58947Y41814D1*
X59261Y41857D1*
X59577Y41831D1*
X59879Y41734D1*
X60092Y41609D1*
X61176Y41608D1*
X61489Y41565D1*
X61859Y41389D1*
X62454Y40815D1*
X64257Y39012D1*
X65304Y39017D1*
X65294Y39870D1*
Y42117D1*
X69340D1*
Y39171D1*
X81186Y38891D2*
X83614D1*
Y34695D1*
X83207D1*
X83214Y34294D1*
X83163Y33982D1*
X83007Y33696D1*
X82480Y33157D1*
X81236Y31906D1*
X83246D1*
Y31460D1*
X83680Y31456D1*
X83676Y31806D1*
X86522D1*
X86512Y29160D1*
X86522Y28953D1*
Y27558D1*
X86647Y27628D1*
X87004Y27704D1*
X87768D1*
X87949Y27893D1*
X88204Y28080D1*
X88357Y28150D1*
X88056Y28328D1*
X87824Y28545D1*
X87642Y28804D1*
X87518Y29096D1*
X87458Y29407D1*
X87463Y29724D1*
X87534Y30033D1*
X87668Y30320D1*
X87858Y30574D1*
X88097Y30782D1*
X88374Y30936D1*
X88677Y31029D1*
X88993Y31058D1*
X89307Y31020D1*
X89607Y30918D1*
X89879Y30755D1*
X90112Y30540D1*
X90295Y30281D1*
X90420Y29990D1*
X90482Y29679D1*
X90476Y29350D1*
X90404Y29041D1*
X90269Y28755D1*
X90078Y28502D1*
X89838Y28295D1*
X89591Y28155D1*
X89978Y27905D1*
X90145Y27722D1*
X90312Y27892D1*
X90292Y28149D1*
X90324Y28464D1*
X90421Y28766D1*
X90578Y29041D1*
X90789Y29278D1*
X91044Y29465D1*
X91333Y29596D1*
X91642Y29664D1*
X91959Y29666D1*
X92270Y29602D1*
X92560Y29475D1*
X92818Y29290D1*
X93031Y29056D1*
X93192Y28783D1*
X93292Y28482D1*
X93328Y28155D1*
X93295Y27840D1*
X93197Y27538D1*
X93039Y27264D1*
X92827Y27028D1*
X92571Y26841D1*
X92417Y26773D1*
X92560Y26705D1*
X92818Y26520D1*
X93031Y26286D1*
X93192Y26013D1*
X93292Y25712D1*
X93328Y25385D1*
X93295Y25070D1*
X93197Y24768D1*
X93039Y24494D1*
X92827Y24258D1*
X92571Y24071D1*
X92417Y24003D1*
X92560Y23935D1*
X92818Y23750D1*
X93031Y23516D1*
X93192Y23243D1*
X93292Y22942D1*
X93328Y22615D1*
X93295Y22300D1*
X93197Y21998D1*
X93039Y21724D1*
X92827Y21488D1*
X92571Y21301D1*
X92417Y21233D1*
X92560Y21165D1*
X92818Y20980D1*
X93031Y20746D1*
X93192Y20473D1*
X93292Y20172D1*
X93328Y19845D1*
X93295Y19530D1*
X93197Y19228D1*
X93039Y18954D1*
X92827Y18718D1*
X92571Y18531D1*
X92281Y18402D1*
X91972Y18336D1*
X91655Y18335D1*
X91344Y18400D1*
X91055Y18528D1*
X90798Y18714D1*
X90585Y18949D1*
X90490Y19111D1*
X90488Y16942D1*
X89942D1*
X89925Y16823D1*
X89811Y16529D1*
X89461Y16146D1*
X87939Y14624D1*
X87679Y14445D1*
X87322Y14369D1*
X81815D1*
X81384Y13944D1*
X82733Y13943D1*
X82723Y11497D1*
X82733Y11290D1*
Y9797D1*
X80731D1*
X80733Y9278D1*
X81036Y9270D1*
Y6924D1*
X78590Y6934D1*
X78384Y6924D1*
X76890D1*
Y9117D1*
X76267D1*
X76277Y11063D1*
X76267Y11340D1*
X76277Y12333D1*
X76267Y12610D1*
X76277Y13603D1*
X76267Y13880D1*
X76277Y14873D1*
X76267Y15150D1*
Y15398D1*
X75919Y15389D1*
X75613Y15469D1*
X75341Y15631D1*
X75125Y15862D1*
X74981Y16144D1*
X74921Y16455D1*
X74949Y16770D1*
X75064Y17065D1*
X75256Y17316D1*
X75510Y17505D1*
X75807Y17615D1*
X76122Y17639D1*
X76267Y17609D1*
X76277Y18683D1*
X76267Y18960D1*
X76277Y19953D1*
X76267Y20230D1*
X76277Y21223D1*
X76267Y21500D1*
X76277Y22493D1*
X76267Y22770D1*
Y23256D1*
X75179Y23260D1*
X74950Y23114D1*
X74648Y23018D1*
X74332Y23010D1*
X74026Y23090D1*
X73754Y23252D1*
X73537Y23483D1*
X73393Y23765D1*
X73333Y24075D1*
X73362Y24391D1*
X73476Y24685D1*
X73668Y24937D1*
X73922Y25126D1*
X74219Y25236D1*
X74534Y25260D1*
X74844Y25196D1*
X75145Y25027D1*
X75080Y25343D1*
X75108Y25658D1*
X75223Y25953D1*
X75415Y26205D1*
X75669Y26393D1*
X75965Y26504D1*
X76271Y26527D1*
X76267Y27573D1*
X79174D1*
X79318Y27663D1*
X79614Y27774D1*
X79930Y27798D1*
X80240Y27733D1*
X80519Y27585D1*
X80747Y27366D1*
X80905Y27091D1*
X80981Y26784D1*
X80987Y26670D1*
X80942Y26357D1*
X80813Y26068D1*
X80608Y25826D1*
X80345Y25651D1*
X80043Y25556D1*
X79727Y25548D1*
X79622Y25575D1*
X79613Y24357D1*
Y23654D1*
X80178Y23667D1*
X80432Y23855D1*
X80728Y23966D1*
X81044Y23990D1*
X81354Y23925D1*
X81634Y23778D1*
X81861Y23558D1*
X82019Y23284D1*
X82060Y23121D1*
X86197Y27259D1*
X83676Y27260D1*
Y29507D1*
X83244Y29510D1*
X83246Y29060D1*
X80601Y29070D1*
X80394Y29060D1*
X78701D1*
Y29507D1*
X73426Y29510D1*
X72731Y28806D1*
X72734Y17700D1*
X72735Y17306D1*
X72698Y17039D1*
X72576Y16772D1*
X72226Y16393D1*
X71657Y15824D1*
X71400Y15640D1*
X71088Y15548D1*
X70959Y15539D1*
X71110Y15383D1*
X71289Y15123D1*
X71365Y14765D1*
Y8732D1*
X71308Y8422D1*
X71110Y8115D1*
X70307Y7315D1*
X70240Y7206D1*
Y6765D1*
X67794Y6775D1*
X67587Y6765D1*
X66094D1*
Y9111D1*
X66124D1*
X66127Y9685D1*
X66184Y9995D1*
X66382Y10302D1*
X66572Y10491D1*
X64830Y10489D1*
X64355Y10525D1*
X63280D1*
X63290Y12970D1*
X63280Y13177D1*
Y14670D1*
X65625D1*
Y13490D1*
X65818Y13623D1*
X66115Y13734D1*
X66430Y13758D1*
X66740Y13693D1*
X66871Y13624D1*
X66867Y14832D1*
Y15497D1*
X66544Y15396D1*
X66228Y15388D1*
X65921Y15468D1*
X65811Y15533D1*
X65633Y15537D1*
X65625Y15287D1*
X63280D1*
Y15416D1*
X62241Y15415D1*
X59671Y15389D1*
X59272Y14982D1*
X59015Y14798D1*
X58703Y14706D1*
X58263Y14697D1*
X58273Y14484D1*
Y13994D1*
X60083Y14003D1*
X60400Y14121D1*
X60715Y14145D1*
X61025Y14081D1*
X61305Y13933D1*
X61533Y13713D1*
X61691Y13439D1*
X61767Y13132D1*
X61772Y13018D1*
X61728Y12704D1*
X61599Y12415D1*
X61394Y12174D1*
X61102Y11990D1*
X61137Y11748D1*
X61093Y11434D1*
X60944Y11123D1*
X61056Y10899D1*
X61132Y10592D1*
X61137Y10477D1*
X61093Y10164D1*
X60964Y9875D1*
X60759Y9634D1*
X60520Y9475D1*
X60863Y9478D1*
Y9309D1*
X61035Y9359D1*
X61350Y9383D1*
X61660Y9318D1*
X61940Y9170D1*
X62168Y8951D1*
X62326Y8677D1*
X62402Y8369D1*
X62407Y8255D1*
X62363Y7942D1*
X62234Y7653D1*
X62029Y7411D1*
X61766Y7236D1*
X61464Y7141D1*
X61148Y7133D1*
X60870Y7205D1*
X60863Y6510D1*
X84649Y6509D1*
X87583Y9436D1*
X87798Y9526D1*
X88066D1*
X87807Y9877D1*
X87598Y10269D1*
X87449Y10687D1*
X87361Y11123D1*
X87338Y11566D1*
X87379Y12008D1*
X87484Y12440D1*
X87650Y12852D1*
X87874Y13235D1*
X88152Y13581D1*
X88477Y13884D1*
X88842Y14137D1*
X89241Y14333D1*
X89663Y14470D1*
X90101Y14544D1*
X90545Y14554D1*
X90986Y14499D1*
X91414Y14381D1*
X91820Y14202D1*
X92196Y13966D1*
X92534Y13678D1*
X92827Y13344D1*
X93068Y12971D1*
X93252Y12567D1*
X93376Y12140D1*
X93437Y11700D1*
X93432Y11251D1*
X93363Y10813D1*
X93231Y10389D1*
X93039Y9988D1*
X92791Y9620D1*
X92715Y9526D1*
X97959D1*
Y33527D1*
X89397Y42075D1*
X87187Y44285D1*
X82233Y44291D1*
X54779D1*
X54782Y41435D1*
X54864Y23787D1*
Y25057D1*
Y26327D1*
Y27597D1*
Y28867D1*
X58210D1*
Y26218D1*
X60030Y26227D1*
X65318D1*
X65229Y26613D1*
X65257Y26928D1*
X65372Y27223D1*
X65564Y27475D1*
X65818Y27663D1*
X66115Y27774D1*
X66430Y27798D1*
X66740Y27733D1*
X67027Y27578D1*
X70213Y27573D1*
X70203Y25627D1*
X70213Y25350D1*
X70203Y24357D1*
X70213Y24080D1*
X70203Y23087D1*
X70213Y22810D1*
X70203Y21817D1*
X70213Y21540D1*
X70203Y20547D1*
X70213Y20270D1*
X70203Y19277D1*
X70213Y19000D1*
Y18673D1*
X70792Y18683D1*
X70790Y29213D1*
X70841Y29525D1*
X70997Y29811D1*
X71524Y30350D1*
X72345Y31171D1*
X72602Y31355D1*
X72914Y31447D1*
X73668Y31456D1*
X78698D1*
X78701Y31906D1*
X79048D1*
X79046Y32071D1*
X79097Y32383D1*
X79253Y32669D1*
X79779Y33208D1*
X81274Y34702D1*
X80868Y34695D1*
Y35618D1*
X80377Y35620D1*
X80063Y35663D1*
X79694Y35839D1*
X79099Y36413D1*
X78224Y37284D1*
X75313D1*
Y40830D1*
X78859D1*
Y39967D1*
X80857Y37971D1*
X80868Y38891D1*
X81186D1*
X80932Y43695D2*
X83614D1*
Y39499D1*
X80868D1*
Y43695D1*
X80932D1*
X60309Y19483D2*
X60313Y18282D1*
X60345Y18027D1*
Y17541D1*
X63281Y17571D1*
X63280Y19433D1*
X65625D1*
Y17784D1*
X66235Y18398D1*
X66491Y18582D1*
X66877Y18683D1*
X66731Y18663D1*
X66867Y18960D1*
X66877Y19953D1*
X66867Y20230D1*
Y20676D1*
X60311Y20671D1*
Y18737D1*
X93442Y36432D2*
X93401Y35989D1*
X93296Y35558D1*
X93129Y35146D1*
X92904Y34763D1*
X92626Y34417D1*
X92301Y34114D1*
X91935Y33862D1*
X91537Y33666D1*
X91115Y33529D1*
X90677Y33456D1*
X90233Y33446D1*
X89792Y33501D1*
X89364Y33620D1*
X88958Y33799D1*
X88582Y34035D1*
X88244Y34324D1*
X87952Y34658D1*
X87711Y35031D1*
X87527Y35436D1*
X87403Y35862D1*
X87343Y36302D1*
X87347Y36746D1*
X87416Y37185D1*
X87548Y37609D1*
X87739Y38010D1*
X87987Y38378D1*
X88286Y38707D1*
X88629Y38989D1*
X89010Y39218D1*
X89419Y39389D1*
X89849Y39500D1*
X90291Y39546D1*
X90735Y39528D1*
X91171Y39446D1*
X91591Y39302D1*
X91986Y39098D1*
X92346Y38839D1*
X92666Y38530D1*
X92937Y38178D1*
X93154Y37791D1*
X93313Y37376D1*
X93410Y36943D1*
X93443Y36495D1*
X93442Y36432D1*
X56917Y16643D2*
X58178D1*
X58398Y17037D1*
X57967D1*
Y17444D1*
X57569Y17602D1*
X57190Y17952D1*
X57113Y18029D1*
X54880Y18031D1*
X54927Y8030D1*
X54937Y9023D1*
X54927Y9300D1*
X54937Y10293D1*
X54927Y10570D1*
X54937Y11563D1*
X54927Y11840D1*
X54937Y12833D1*
X54927Y13110D1*
X54937Y14103D1*
X54927Y14316D1*
Y16643D1*
X58182D1*
X58366Y16828D1*
X67317Y42116D2*
D19*
Y40644D1*
X65295D2*
X69339D1*
X82241Y43694D2*
Y39500D1*
X80869Y41597D2*
X83613D1*
X59140Y19960D2*
X60312D1*
X59690Y6555D2*
X60862D1*
X64453Y19432D2*
Y18210D1*
X63281D2*
X65624D1*
X64453Y14669D2*
Y13447D1*
X63281D2*
X65624D1*
X81560Y11020D2*
Y9798D1*
Y11020D2*
X82732D1*
X88970Y31057D2*
Y29540D1*
X87453D2*
X90487D1*
X90390Y39547D2*
Y33443D1*
X87338Y36495D2*
X93442D1*
X90390Y14557D2*
Y11505D1*
X87338D2*
X93442D1*
X85099Y28583D2*
Y27261D1*
X83677Y28583D2*
X86521D1*
X56537Y28866D2*
Y27894D1*
X54865D2*
X58209D1*
X66868Y13900D2*
X68540D1*
X54928Y14400D2*
X58272D1*
D20*
X41279Y39692D3*
Y36892D3*
X67317Y37844D3*
Y40644D3*
D21*
X82241Y36793D3*
Y41597D3*
D22*
X59140Y18260D3*
Y19960D3*
D23*
X15083Y30960D3*
X13183D3*
D22*
X44059Y16146D3*
Y14446D3*
Y18527D3*
Y20227D3*
D24*
X67317Y7938D3*
X69017D3*
X78113Y8097D3*
X79813D3*
D22*
X59690Y8255D3*
Y6555D3*
X64453Y16510D3*
Y18210D3*
Y11748D3*
Y13447D3*
X81560Y12720D3*
Y11020D3*
D21*
X25879Y41756D3*
Y36952D3*
D23*
X81924Y30483D3*
X80024D3*
D25*
X88970Y18460D3*
D26*
Y21230D3*
Y24000D3*
Y26770D3*
Y29540D3*
X91810Y19845D3*
Y22615D3*
Y25385D3*
Y28155D3*
D27*
X90390Y36495D3*
Y11505D3*
D28*
X6900Y19390D3*
D29*
Y21930D3*
D28*
X9440Y19390D3*
Y21930D3*
X11980Y19390D3*
Y21930D3*
X14520Y19390D3*
Y21930D3*
X17060Y19390D3*
Y21930D3*
X19600Y19390D3*
Y21930D3*
X22140Y19390D3*
Y21930D3*
X24680Y19390D3*
Y21930D3*
D30*
X6827Y33817D3*
X8327D3*
D31*
X31753Y39533D3*
X37553D3*
X71286Y39057D3*
X77086D3*
D32*
X85099Y30483D3*
Y28583D3*
D16*
X46599Y40435D3*
X49139D3*
X54219D3*
X59299D3*
D34*
X10796Y33976D3*
X13096D3*
X15396D3*
D35*
X13096Y39776D3*
D36*
X56537Y19004D3*
Y20274D3*
Y21544D3*
Y22814D3*
Y24084D3*
Y25354D3*
Y26624D3*
Y27894D3*
X47137D3*
Y26624D3*
Y25354D3*
Y24084D3*
Y22814D3*
Y21544D3*
Y20274D3*
Y19004D3*
X77940Y10090D3*
Y11360D3*
Y12630D3*
Y13900D3*
Y15170D3*
Y16440D3*
Y17710D3*
Y18980D3*
Y20250D3*
Y21520D3*
Y22790D3*
Y24060D3*
Y25330D3*
Y26600D3*
X68540D3*
Y25330D3*
Y24060D3*
Y22790D3*
Y21520D3*
Y20250D3*
Y18980D3*
Y17710D3*
Y16440D3*
Y15170D3*
Y13900D3*
Y12630D3*
Y11360D3*
Y10090D3*
X47200Y15670D3*
Y14400D3*
Y13130D3*
Y11860D3*
Y10590D3*
Y9320D3*
Y8050D3*
Y6780D3*
X56600D3*
Y8050D3*
Y9320D3*
Y10590D3*
Y11860D3*
Y13130D3*
Y14400D3*
Y15670D3*
D37*
X93270Y1730D3*
X90730D3*
Y4270D3*
X93270D3*
M02*
