G04 DipTrace 2.4.0.2*
%INDaughter-IsolatedRS2321.1.GTO*%
%MOMM*%
%ADD10C,0.25*%
%ADD14C,0.6*%
%ADD33O,0.391X0.392*%
%ADD45C,0.157*%
%FSLAX53Y53*%
G04*
G71*
G90*
G75*
G01*
%LNTopSilk*%
%LPD*%
X40029Y38402D2*
D10*
X42529D1*
X40029Y38591D2*
X42529D1*
X40029D2*
Y37992D1*
X42529Y38591D2*
Y37992D1*
X68567Y39134D2*
X66067D1*
X68567Y38945D2*
X66067D1*
X68567D2*
Y39543D1*
X66067Y38945D2*
Y39543D1*
X78941Y42494D2*
X81141D1*
X78941D2*
Y36995D1*
X80041Y35895D2*
X78941Y36995D1*
X80041Y35895D2*
X81141D1*
X83341Y42494D2*
X85541D1*
Y36995D1*
X84441Y35895D2*
X85541Y36995D1*
X83341Y35895D2*
X84441D1*
D14*
X80941Y35295D3*
X16134Y31609D2*
D10*
Y30311D1*
X29179Y36054D2*
X26979D1*
X29179D2*
Y41553D1*
X28079Y42653D2*
X29179Y41553D1*
X28079Y42653D2*
X26979D1*
X24779Y36054D2*
X22579D1*
Y41553D1*
X23679Y42653D2*
X22579Y41553D1*
X24779Y42653D2*
X23679D1*
D14*
X27179Y43254D3*
X82873Y31133D2*
D10*
Y29834D1*
X99892Y33548D2*
G03X100591Y32870I663J-16D01*
G01*
X105890Y32162D2*
G03X105191Y32870I-714J-5D01*
G01*
X100591Y15130D2*
G03X99892Y14452I-37J-662D01*
G01*
X105191Y15130D2*
G03X105890Y15838I-14J714D01*
G01*
X96892Y8600D2*
Y39400D1*
X99892Y8600D2*
X87490D1*
X99892Y39400D2*
X87490D1*
X105890Y15838D2*
Y32162D1*
X87490Y8600D2*
Y39400D1*
X96892Y17008D2*
X87490D1*
X99892Y8600D2*
Y39400D1*
X96892Y30992D2*
X87490D1*
X105191Y32870D2*
X100591D1*
X105191Y15130D2*
X100591D1*
X6500Y15390D2*
Y7990D1*
X7300Y15390D2*
Y7990D1*
X6500D2*
X6900Y7320D1*
X7300Y7990D2*
X6900Y7320D1*
X5835Y18170D2*
X25745D1*
Y15390D1*
X5835D1*
Y18170D1*
X9041Y15390D2*
Y7990D1*
X9841Y15390D2*
Y7990D1*
X9041D2*
X9441Y7320D1*
X9841Y7990D2*
X9441Y7320D1*
X11579Y15390D2*
Y7990D1*
X12379Y15390D2*
Y7990D1*
X11579D2*
X11979Y7320D1*
X12379Y7990D2*
X11979Y7320D1*
X14120Y15390D2*
Y7990D1*
X14920Y15390D2*
Y7990D1*
X14120D2*
X14520Y7320D1*
X14920Y7990D2*
X14520Y7320D1*
X16660Y15390D2*
Y7990D1*
X17460Y15390D2*
Y7990D1*
X16660D2*
X17060Y7320D1*
X17460Y7990D2*
X17060Y7320D1*
X19201Y15390D2*
Y7990D1*
X20001Y15390D2*
Y7990D1*
X19201D2*
X19601Y7320D1*
X20001Y7990D2*
X19601Y7320D1*
X21739Y15390D2*
Y7990D1*
X22539Y15390D2*
Y7990D1*
X21739D2*
X22139Y7320D1*
X22539Y7990D2*
X22139Y7320D1*
X24280Y15390D2*
Y7990D1*
X25080Y15390D2*
Y7990D1*
X24280D2*
X24680Y7320D1*
X25080Y7990D2*
X24680Y7320D1*
X31002Y41120D2*
Y43184D1*
X38305D1*
Y41120D1*
Y37945D2*
Y35882D1*
X31002D1*
Y37945D1*
X70535Y40645D2*
Y42708D1*
X77837D1*
Y40645D1*
Y37469D2*
Y35406D1*
X70535D1*
Y37469D1*
X44218Y41614D2*
X63718D1*
Y35514D1*
X44218D1*
Y41614D1*
D33*
X9823Y33209D3*
X9796Y35476D2*
D10*
X16396D1*
X9796Y38276D2*
X16396D1*
Y35476D2*
Y38276D1*
X9796Y35476D2*
Y38276D1*
X55037Y18249D2*
Y28649D1*
X48637Y18249D2*
Y28649D1*
X55037D2*
X48637D1*
X55037Y18249D2*
X52637D1*
X51037D2*
X48637D1*
X52637D2*
G03X51037Y18249I-800J-1D01*
G01*
X76440Y9245D2*
Y27445D1*
X70040Y9245D2*
Y27445D1*
X76440D2*
X70040D1*
X76440Y9245D2*
X74040D1*
X72440D2*
X70040D1*
X74040D2*
G03X72440Y9245I-800J-1D01*
G01*
X48700Y16425D2*
Y6025D1*
X55100Y16425D2*
Y6025D1*
X48700D2*
X55100D1*
X48700Y16425D2*
X51100D1*
X52700D2*
X55100D1*
X51100D2*
G03X52700Y16425I800J1D01*
G01*
X88190Y936D2*
X89778D1*
X98826D2*
Y5223D1*
X88190Y936D2*
Y5223D1*
X89778D1*
X94381D2*
X98826D1*
X94381Y936D2*
X98826D1*
X41365Y35504D2*
D45*
X41317Y35601D1*
X41219Y35699D1*
X41122Y35747D1*
X40928D1*
X40830Y35699D1*
X40734Y35601D1*
X40684Y35504D1*
X40636Y35358D1*
Y35115D1*
X40684Y34970D1*
X40734Y34872D1*
X40830Y34776D1*
X40928Y34726D1*
X41122D1*
X41219Y34776D1*
X41317Y34872D1*
X41365Y34970D1*
X41679Y35552D2*
X41776Y35601D1*
X41922Y35746D1*
Y34726D1*
X67184Y36457D2*
X67136Y36554D1*
X67038Y36651D1*
X66942Y36700D1*
X66747D1*
X66650Y36651D1*
X66553Y36554D1*
X66504Y36457D1*
X66455Y36311D1*
Y36067D1*
X66504Y35922D1*
X66553Y35825D1*
X66650Y35728D1*
X66747Y35679D1*
X66942D1*
X67038Y35728D1*
X67136Y35825D1*
X67184Y35922D1*
X67547Y36456D2*
Y36504D1*
X67596Y36602D1*
X67644Y36650D1*
X67742Y36699D1*
X67936D1*
X68033Y36650D1*
X68081Y36602D1*
X68130Y36504D1*
Y36408D1*
X68081Y36310D1*
X67984Y36165D1*
X67498Y35679D1*
X68179D1*
X82108Y34408D2*
X82060Y34504D1*
X81962Y34602D1*
X81866Y34650D1*
X81672D1*
X81574Y34602D1*
X81477Y34504D1*
X81428Y34408D1*
X81380Y34262D1*
Y34018D1*
X81428Y33873D1*
X81477Y33775D1*
X81574Y33679D1*
X81672Y33629D1*
X81866D1*
X81962Y33679D1*
X82060Y33775D1*
X82108Y33873D1*
X82520Y34649D2*
X83053D1*
X82762Y34261D1*
X82908D1*
X83005Y34212D1*
X83053Y34164D1*
X83103Y34018D1*
Y33921D1*
X83053Y33775D1*
X82957Y33678D1*
X82811Y33629D1*
X82665D1*
X82520Y33678D1*
X82472Y33727D1*
X82422Y33824D1*
X60227Y18953D2*
X60131Y18905D1*
X60033Y18807D1*
X59985Y18711D1*
Y18516D1*
X60033Y18419D1*
X60131Y18322D1*
X60227Y18273D1*
X60373Y18224D1*
X60617D1*
X60762Y18273D1*
X60859Y18322D1*
X60956Y18419D1*
X61005Y18516D1*
Y18711D1*
X60956Y18807D1*
X60859Y18905D1*
X60762Y18953D1*
X61005Y19753D2*
X59986D1*
X60665Y19267D1*
Y19996D1*
X14201Y29623D2*
X14152Y29719D1*
X14055Y29817D1*
X13958Y29865D1*
X13764D1*
X13666Y29817D1*
X13569Y29719D1*
X13520Y29623D1*
X13472Y29477D1*
Y29233D1*
X13520Y29088D1*
X13569Y28991D1*
X13666Y28894D1*
X13764Y28845D1*
X13958D1*
X14055Y28894D1*
X14152Y28991D1*
X14201Y29088D1*
X15097Y29864D2*
X14612D1*
X14564Y29427D1*
X14612Y29476D1*
X14758Y29525D1*
X14903D1*
X15049Y29476D1*
X15147Y29379D1*
X15195Y29233D1*
Y29137D1*
X15147Y28991D1*
X15049Y28893D1*
X14903Y28845D1*
X14758D1*
X14612Y28893D1*
X14564Y28942D1*
X14514Y29039D1*
X42313Y15188D2*
X42217Y15140D1*
X42119Y15042D1*
X42071Y14946D1*
Y14751D1*
X42119Y14654D1*
X42217Y14557D1*
X42313Y14508D1*
X42459Y14459D1*
X42703D1*
X42848Y14508D1*
X42946Y14557D1*
X43042Y14654D1*
X43092Y14751D1*
Y14946D1*
X43042Y15042D1*
X42946Y15140D1*
X42848Y15188D1*
X42217Y16085D2*
X42120Y16037D1*
X42072Y15891D1*
Y15794D1*
X42120Y15648D1*
X42266Y15550D1*
X42509Y15502D1*
X42751D1*
X42946Y15550D1*
X43043Y15648D1*
X43092Y15794D1*
Y15842D1*
X43043Y15987D1*
X42946Y16085D1*
X42800Y16133D1*
X42751D1*
X42605Y16085D1*
X42509Y15987D1*
X42461Y15842D1*
Y15794D1*
X42509Y15648D1*
X42605Y15550D1*
X42751Y15502D1*
X42313Y19245D2*
X42217Y19196D1*
X42119Y19099D1*
X42071Y19002D1*
Y18808D1*
X42119Y18710D1*
X42217Y18614D1*
X42313Y18564D1*
X42459Y18516D1*
X42703D1*
X42848Y18564D1*
X42946Y18614D1*
X43042Y18710D1*
X43092Y18808D1*
Y19002D1*
X43042Y19099D1*
X42946Y19196D1*
X42848Y19245D1*
X43092Y19753D2*
X42072Y20239D1*
Y19559D1*
X68035Y6851D2*
X67987Y6947D1*
X67889Y7045D1*
X67792Y7093D1*
X67598D1*
X67500Y7045D1*
X67404Y6947D1*
X67354Y6851D1*
X67306Y6705D1*
Y6461D1*
X67354Y6316D1*
X67404Y6219D1*
X67500Y6122D1*
X67598Y6073D1*
X67792D1*
X67889Y6122D1*
X67987Y6219D1*
X68035Y6316D1*
X68591Y7092D2*
X68446Y7044D1*
X68397Y6947D1*
Y6850D1*
X68446Y6753D1*
X68543Y6704D1*
X68737Y6655D1*
X68883Y6607D1*
X68980Y6509D1*
X69028Y6413D1*
Y6267D1*
X68980Y6170D1*
X68931Y6121D1*
X68785Y6073D1*
X68591D1*
X68446Y6121D1*
X68397Y6170D1*
X68349Y6267D1*
Y6413D1*
X68397Y6509D1*
X68495Y6607D1*
X68639Y6655D1*
X68834Y6704D1*
X68931Y6753D1*
X68980Y6850D1*
Y6947D1*
X68931Y7044D1*
X68785Y7092D1*
X68591D1*
X80950Y7989D2*
X80854Y7940D1*
X80756Y7843D1*
X80708Y7746D1*
Y7552D1*
X80756Y7454D1*
X80854Y7357D1*
X80950Y7308D1*
X81096Y7260D1*
X81340D1*
X81485Y7308D1*
X81583Y7357D1*
X81679Y7454D1*
X81729Y7552D1*
Y7746D1*
X81679Y7843D1*
X81583Y7940D1*
X81485Y7989D1*
X81048Y8935D2*
X81194Y8885D1*
X81292Y8789D1*
X81340Y8643D1*
Y8594D1*
X81292Y8448D1*
X81194Y8352D1*
X81048Y8302D1*
X81000D1*
X80854Y8352D1*
X80757Y8448D1*
X80709Y8594D1*
Y8643D1*
X80757Y8789D1*
X80854Y8885D1*
X81048Y8935D1*
X81292D1*
X81534Y8885D1*
X81680Y8789D1*
X81729Y8643D1*
Y8546D1*
X81680Y8400D1*
X81583Y8352D1*
X60777Y6994D2*
X60681Y6945D1*
X60583Y6848D1*
X60535Y6751D1*
Y6557D1*
X60583Y6459D1*
X60681Y6363D1*
X60777Y6313D1*
X60923Y6265D1*
X61167D1*
X61312Y6313D1*
X61409Y6363D1*
X61506Y6459D1*
X61555Y6557D1*
Y6751D1*
X61506Y6848D1*
X61409Y6945D1*
X61312Y6994D1*
X60730Y7307D2*
X60681Y7405D1*
X60536Y7551D1*
X61555D1*
X60536Y8157D2*
X60584Y8011D1*
X60730Y7913D1*
X60973Y7865D1*
X61119D1*
X61361Y7913D1*
X61507Y8011D1*
X61555Y8157D1*
Y8253D1*
X61507Y8399D1*
X61361Y8496D1*
X61119Y8545D1*
X60973D1*
X60730Y8496D1*
X60584Y8399D1*
X60536Y8253D1*
Y8157D1*
X60730Y8496D2*
X61361Y7913D1*
X65540Y17167D2*
X65443Y17119D1*
X65345Y17021D1*
X65297Y16924D1*
Y16730D1*
X65345Y16632D1*
X65443Y16536D1*
X65540Y16486D1*
X65686Y16438D1*
X65929D1*
X66074Y16486D1*
X66172Y16536D1*
X66269Y16632D1*
X66318Y16730D1*
Y16924D1*
X66269Y17021D1*
X66172Y17119D1*
X66074Y17167D1*
X65493Y17481D2*
X65443Y17578D1*
X65298Y17724D1*
X66318D1*
X65493Y18038D2*
X65443Y18136D1*
X65298Y18282D1*
X66318D1*
X65540Y12186D2*
X65443Y12138D1*
X65345Y12040D1*
X65297Y11943D1*
Y11749D1*
X65345Y11651D1*
X65443Y11555D1*
X65540Y11505D1*
X65686Y11457D1*
X65929D1*
X66074Y11505D1*
X66172Y11555D1*
X66269Y11651D1*
X66318Y11749D1*
Y11943D1*
X66269Y12040D1*
X66172Y12138D1*
X66074Y12186D1*
X65493Y12500D2*
X65443Y12598D1*
X65298Y12744D1*
X66318D1*
X65541Y13107D2*
X65493D1*
X65395Y13155D1*
X65347Y13203D1*
X65298Y13301D1*
Y13495D1*
X65347Y13592D1*
X65395Y13640D1*
X65493Y13690D1*
X65589D1*
X65687Y13640D1*
X65832Y13544D1*
X66318Y13057D1*
Y13738D1*
X82647Y11459D2*
X82551Y11410D1*
X82453Y11313D1*
X82405Y11216D1*
Y11022D1*
X82453Y10924D1*
X82551Y10827D1*
X82647Y10778D1*
X82793Y10730D1*
X83037D1*
X83182Y10778D1*
X83279Y10827D1*
X83376Y10924D1*
X83425Y11022D1*
Y11216D1*
X83376Y11313D1*
X83279Y11410D1*
X83182Y11459D1*
X82600Y11772D2*
X82551Y11870D1*
X82406Y12016D1*
X83425D1*
X82406Y12427D2*
Y12961D1*
X82794Y12670D1*
Y12816D1*
X82843Y12913D1*
X82891Y12961D1*
X83037Y13010D1*
X83133D1*
X83279Y12961D1*
X83377Y12864D1*
X83425Y12718D1*
Y12572D1*
X83377Y12427D1*
X83328Y12379D1*
X83231Y12330D1*
X25443Y34939D2*
X25395Y35036D1*
X25297Y35134D1*
X25201Y35182D1*
X25007D1*
X24909Y35134D1*
X24812Y35036D1*
X24763Y34939D1*
X24715Y34793D1*
Y34550D1*
X24763Y34405D1*
X24812Y34307D1*
X24909Y34211D1*
X25007Y34161D1*
X25201D1*
X25297Y34211D1*
X25395Y34307D1*
X25443Y34405D1*
X25757Y34987D2*
X25855Y35036D1*
X26001Y35181D1*
Y34161D1*
X26801D2*
Y35181D1*
X26315Y34501D1*
X27043D1*
X80504Y29389D2*
Y28368D1*
X80845D1*
X80991Y28417D1*
X81088Y28514D1*
X81137Y28611D1*
X81185Y28756D1*
Y29000D1*
X81137Y29146D1*
X81088Y29243D1*
X80991Y29340D1*
X80845Y29389D1*
X80504D1*
X81499Y29193D2*
X81596Y29243D1*
X81742Y29387D1*
Y28368D1*
X33865Y35537D2*
Y34516D1*
X34448D1*
X34811Y35293D2*
Y35342D1*
X34859Y35439D1*
X34907Y35488D1*
X35005Y35536D1*
X35199D1*
X35296Y35488D1*
X35344Y35439D1*
X35394Y35342D1*
Y35245D1*
X35344Y35147D1*
X35248Y35002D1*
X34761Y34516D1*
X35442D1*
X73397Y35061D2*
Y34040D1*
X73980D1*
X74392Y35060D2*
X74925D1*
X74634Y34671D1*
X74780D1*
X74877Y34623D1*
X74925Y34575D1*
X74975Y34429D1*
Y34332D1*
X74925Y34186D1*
X74829Y34089D1*
X74683Y34040D1*
X74537D1*
X74392Y34089D1*
X74343Y34138D1*
X74294Y34235D1*
X84480Y27102D2*
X84917D1*
X85063Y27152D1*
X85112Y27200D1*
X85161Y27296D1*
Y27394D1*
X85112Y27491D1*
X85063Y27540D1*
X84917Y27588D1*
X84480D1*
Y26568D1*
X84820Y27102D2*
X85161Y26568D1*
X85474Y27393D2*
X85572Y27442D1*
X85718Y27587D1*
Y26568D1*
X64062Y37945D2*
X64791D1*
X64937Y37993D1*
X65034Y38091D1*
X65083Y38237D1*
Y38333D1*
X65034Y38479D1*
X64937Y38577D1*
X64791Y38625D1*
X64062D1*
X64258Y38939D2*
X64208Y39037D1*
X64063Y39183D1*
X65083D1*
X16740Y36039D2*
X17469D1*
X17615Y36087D1*
X17712Y36185D1*
X17761Y36331D1*
Y36427D1*
X17712Y36573D1*
X17615Y36671D1*
X17469Y36719D1*
X16740D1*
X16984Y37082D2*
X16936D1*
X16838Y37131D1*
X16790Y37179D1*
X16742Y37277D1*
Y37471D1*
X16790Y37568D1*
X16838Y37616D1*
X16936Y37665D1*
X17032D1*
X17130Y37616D1*
X17275Y37519D1*
X17761Y37033D1*
Y37714D1*
X51000Y31137D2*
Y30408D1*
X51048Y30262D1*
X51146Y30165D1*
X51292Y30116D1*
X51388D1*
X51534Y30165D1*
X51632Y30262D1*
X51680Y30408D1*
Y31137D1*
X52092Y31136D2*
X52625D1*
X52334Y30747D1*
X52480D1*
X52577Y30699D1*
X52625Y30651D1*
X52674Y30505D1*
Y30408D1*
X52625Y30262D1*
X52528Y30164D1*
X52382Y30116D1*
X52236D1*
X52092Y30164D1*
X52043Y30214D1*
X51994Y30310D1*
X72378Y8901D2*
Y8172D1*
X72427Y8026D1*
X72524Y7929D1*
X72670Y7880D1*
X72767D1*
X72913Y7929D1*
X73011Y8026D1*
X73059Y8172D1*
Y8901D1*
X73859Y7880D2*
Y8900D1*
X73373Y8220D1*
X74102D1*
X51063Y4680D2*
Y3952D1*
X51111Y3806D1*
X51209Y3709D1*
X51355Y3660D1*
X51451D1*
X51597Y3709D1*
X51695Y3806D1*
X51743Y3952D1*
Y4680D1*
X52640Y4679D2*
X52155D1*
X52106Y4242D1*
X52155Y4291D1*
X52301Y4340D1*
X52445D1*
X52591Y4291D1*
X52689Y4194D1*
X52737Y4048D1*
Y3952D1*
X52689Y3806D1*
X52591Y3708D1*
X52445Y3660D1*
X52301D1*
X52155Y3708D1*
X52106Y3757D1*
X52057Y3854D1*
X86702Y2214D2*
X87431D1*
X87577Y2262D1*
X87674Y2360D1*
X87723Y2506D1*
Y2602D1*
X87674Y2748D1*
X87577Y2846D1*
X87431Y2894D1*
X86702D1*
X86848Y3791D2*
X86752Y3742D1*
X86703Y3596D1*
Y3500D1*
X86752Y3354D1*
X86898Y3256D1*
X87140Y3208D1*
X87383D1*
X87577Y3256D1*
X87675Y3354D1*
X87723Y3500D1*
Y3548D1*
X87675Y3693D1*
X87577Y3791D1*
X87431Y3839D1*
X87383D1*
X87237Y3791D1*
X87140Y3693D1*
X87092Y3548D1*
Y3500D1*
X87140Y3354D1*
X87237Y3256D1*
X87383Y3208D1*
M02*
