G04 DipTrace 2.4.0.2*
%INDaughter-IsolatedRS2321.1.GTS*%
%MOMM*%
%ADD16C,1.5*%
%ADD20R,2.7X1.6*%
%ADD21R,1.4X2.85*%
%ADD22R,1.0X1.1*%
%ADD23R,1.3X1.5*%
%ADD24R,1.1X1.0*%
%ADD25R,1.69X1.69*%
%ADD26C,1.69*%
%ADD27C,4.76*%
%ADD28C,1.6*%
%ADD29R,1.6X1.6*%
%ADD30R,1.0X1.35*%
%ADD31R,2.2X2.2*%
%ADD32R,1.5X1.3*%
%ADD34R,0.95X2.15*%
%ADD35R,3.25X2.15*%
%ADD36R,2.0X0.6*%
%ADD37C,1.8*%
%ADD40C,3.0*%
%ADD41C,2.5*%
%FSLAX53Y53*%
G04*
G71*
G90*
G75*
G01*
%LNTopMask*%
%LPD*%
D20*
X41279Y39692D3*
Y36892D3*
X67317Y37844D3*
Y40644D3*
D21*
X82241Y36793D3*
Y41597D3*
D22*
X59140Y18260D3*
Y19960D3*
D23*
X15083Y30960D3*
X13183D3*
D22*
X44059Y16146D3*
Y14446D3*
Y18527D3*
Y20227D3*
D24*
X67317Y7938D3*
X69017D3*
X78113Y8097D3*
X79813D3*
D22*
X59690Y8255D3*
Y6555D3*
X64453Y16510D3*
Y18210D3*
Y11748D3*
Y13447D3*
X81560Y12720D3*
Y11020D3*
D21*
X25879Y41756D3*
Y36952D3*
D23*
X81924Y30483D3*
X80024D3*
D40*
X39000Y3600D3*
D41*
X95000Y43000D3*
D25*
X88970Y18460D3*
D26*
Y21230D3*
Y24000D3*
Y26770D3*
Y29540D3*
X91810Y19845D3*
Y22615D3*
Y25385D3*
Y28155D3*
D27*
X90390Y36495D3*
Y11505D3*
D28*
X6900Y19390D3*
D29*
Y21930D3*
D28*
X9440Y19390D3*
Y21930D3*
X11980Y19390D3*
Y21930D3*
X14520Y19390D3*
Y21930D3*
X17060Y19390D3*
Y21930D3*
X19600Y19390D3*
Y21930D3*
X22140Y19390D3*
Y21930D3*
X24680Y19390D3*
Y21930D3*
D30*
X6827Y33817D3*
X8327D3*
D31*
X31753Y39533D3*
X37553D3*
X71286Y39057D3*
X77086D3*
D32*
X85099Y30483D3*
Y28583D3*
D16*
X46599Y40435D3*
X49139D3*
X54219D3*
X59299D3*
D34*
X10796Y33976D3*
X13096D3*
X15396D3*
D35*
X13096Y39776D3*
D36*
X56537Y19004D3*
Y20274D3*
Y21544D3*
Y22814D3*
Y24084D3*
Y25354D3*
Y26624D3*
Y27894D3*
X47137D3*
Y26624D3*
Y25354D3*
Y24084D3*
Y22814D3*
Y21544D3*
Y20274D3*
Y19004D3*
X77940Y10090D3*
Y11360D3*
Y12630D3*
Y13900D3*
Y15170D3*
Y16440D3*
Y17710D3*
Y18980D3*
Y20250D3*
Y21520D3*
Y22790D3*
Y24060D3*
Y25330D3*
Y26600D3*
X68540D3*
Y25330D3*
Y24060D3*
Y22790D3*
Y21520D3*
Y20250D3*
Y18980D3*
Y17710D3*
Y16440D3*
Y15170D3*
Y13900D3*
Y12630D3*
Y11360D3*
Y10090D3*
X47200Y15670D3*
Y14400D3*
Y13130D3*
Y11860D3*
Y10590D3*
Y9320D3*
Y8050D3*
Y6780D3*
X56600D3*
Y8050D3*
Y9320D3*
Y10590D3*
Y11860D3*
Y13130D3*
Y14400D3*
Y15670D3*
D37*
X93270Y1730D3*
X90730D3*
Y4270D3*
X93270D3*
M02*
